<?xml version="1.0" encoding="UTF-8" standalone="no"?>
<!-- Created with Inkscape (http://www.inkscape.org/) -->

<svg
   xmlns:dc="http://purl.org/dc/elements/1.1/"
   xmlns:cc="http://creativecommons.org/ns#"
   xmlns:rdf="http://www.w3.org/1999/02/22-rdf-syntax-ns#"
   xmlns:svg="http://www.w3.org/2000/svg"
   xmlns="http://www.w3.org/2000/svg"
   xmlns:sodipodi="http://sodipodi.sourceforge.net/DTD/sodipodi-0.dtd"
   xmlns:inkscape="http://www.inkscape.org/namespaces/inkscape"
   width="112.88889mm"
   height="338.66666mm"
   viewBox="0 0 399.99999 1200"
   id="svg4278"
   version="1.1"
   inkscape:version="0.91 r13725"
   sodipodi:docname="floral-sidebar.svg">
  <defs
     id="defs4280" />
  <sodipodi:namedview
     id="base"
     pagecolor="#ffffff"
     bordercolor="#666666"
     borderopacity="1.0"
     inkscape:pageopacity="0.0"
     inkscape:pageshadow="2"
     inkscape:zoom="0.98994949"
     inkscape:cx="-76.37723"
     inkscape:cy="163.67816"
     inkscape:document-units="px"
     inkscape:current-layer="layer1"
     showgrid="false"
     fit-margin-top="0"
     fit-margin-left="0"
     fit-margin-right="0"
     fit-margin-bottom="0"
     inkscape:window-width="1920"
     inkscape:window-height="1056"
     inkscape:window-x="0"
     inkscape:window-y="24"
     inkscape:window-maximized="1" />
  <metadata
     id="metadata4283">
    <rdf:RDF>
      <cc:Work
         rdf:about="">
        <dc:format>image/svg+xml</dc:format>
        <dc:type
           rdf:resource="http://purl.org/dc/dcmitype/StillImage" />
        <dc:title></dc:title>
      </cc:Work>
    </rdf:RDF>
  </metadata>
  <g
     inkscape:label="Layer 1"
     inkscape:groupmode="layer"
     id="layer1"
     transform="translate(-48.571432,410.49492)">
    <rect
       style="opacity:1;fill:#f2f2f2;fill-opacity:1;fill-rule:evenodd;stroke:#f60000;stroke-width:0.10006306;stroke-linecap:round;stroke-miterlimit:4;stroke-dasharray:none;stroke-opacity:1"
       id="rect4700"
       width="399.89993"
       height="1199.8999"
       x="48.621464"
       y="-410.44489" />
    <text
       xml:space="preserve"
       style="font-style:normal;font-weight:normal;font-size:40px;line-height:125%;font-family:sans-serif;text-align:end;letter-spacing:0px;word-spacing:0px;text-anchor:end;fill:#000000;fill-opacity:1;stroke:none;stroke-width:1px;stroke-linecap:butt;stroke-linejoin:miter;stroke-opacity:1;opacity:1;"
       x="259.21771"
       y="-287.42648"
       id="text4767"
       sodipodi:linespacing="125%"
       onmouseover="this.style.cursor='pointer'"
       onclick="window.parent.location='index.html'"><tspan
         sodipodi:role="line"
         id="tspan4769"
         x="259.21771"
         y="-287.42648"
         style="font-style:normal;font-variant:normal;font-weight:500;font-stretch:normal;font-size:60px;line-height:125%;font-family:Ubuntu;-inkscape-font-specification:'Ubuntu, Medium';text-align:center;writing-mode:lr-tb;text-anchor:middle;">Ryder Farm</tspan></text>
    <g
       transform="matrix(0.32246322,0,0,0.32264719,88.539602,-22.645761)"
       id="layer1-7"
       inkscape:label="Layer 1"
       onmouseover="this.style.cursor='pointer'"
       onclick="window.parent.location='index.html'">
      <path
         inkscape:connector-curvature="0"
         id="path5402"
         d="m 680.17866,578.79966 c -9.1139,-1.393 -23.6507,-5.4215 -26.6853,-7.3953 -5.3167,-3.4581 -19.0037,-16.9546 -22.0604,-21.7535 -5.9016,-9.2654 -6.0379,-11.4339 -6.7922,-108.0922 l -0.7122,-91.25 -10.625,0 -10.625,0 -0.625,36.25 -0.625,36.25 -177.49998,0 -177.5,0 -0.625,-36.875 -0.625,-36.875 -12.5,0 -12.5,0 -0.68064,100.625 c -0.46512,68.765 -1.12469,102.1473 -2.08311,105.4333 -1.63229,5.5963 -5.63974,10.2504 -10.9675,12.7374 -2.07281,0.9676 -11.61271,3.4625 -21.19978,5.5443 l -17.43102,3.785 -53.13551,0 -53.135523,0 -12.02072,-3.759 c -8.78579,-2.7474 -13.00643,-4.7878 -15.68346,-7.5815 l -3.66274,-3.8225 -0.625,-94.6061 c -0.34375,-52.0332 -0.34375,-175.7476 0,-274.9207 l 0.625,-180.314724 5.22474,-6.0653603 c 5.52838,-6.41785999 24.0826,-17.9189397 37.93338,-23.5135097 17.1086,-6.91048 26.43815,-8.45915 51.216883,-8.50182 20.20192,-0.0347 24.54704,0.32665 34.375,2.85939 15.15845,3.90645 36.674,14.5537297 47.18212,23.34873971 l 8.43213,7.05745999 0.31787,140.2223243 0.31788,140.2223 11.25,0 11.25,0 0.625,-433.12503 0.625,-433.125 196.25,0 196.24998,0 0,23.75 0,23.75 -178.74996,0.625 -178.75002,0.625 0,408.75 0,408.75003 5.625,0 5.625,0 0.66008,-115.625 0.66007,-115.625004 3.48965,-10 c 5.48407,-15.7153 7.67586,-19.448 16.51454,-28.125 4.55198,-4.46878 8.64744,-9.0306403 9.101,-10.1375203 1.17877,-2.87665 29.94591,-28.5709697 33.8285,-30.2150297 1.78539,-0.75603 4.37116,-2.28816 5.74616,-3.40474 1.375,-1.11658 5.03125,-3.0848 8.125,-4.37381 8.99056,-3.74593 8.75,-3.21524 8.75,-19.30259 l 0,-14.62755 -7.02824,-8.03189 c -10.91335,-12.47184 -21.72212,-26.35169 -21.71829,-27.88909 0.002,-0.766046 -1.09023,-3.642806 -2.427,-6.392806 -4.78183,-9.83726 -9.06231,-21.61245 -10.49491,-28.87054 l -1.45656,-7.37946 -5,-0.29262 c -8.73876,-0.51144 -27.34103,-4.24303 -31.8541,-6.38989 -3.33973,-1.5887 -4.5613,-3.09005 -5.24345,-6.44437 -0.48915,-2.40521 -1.45844,-6.90437 -2.15396,-9.99812 -0.69554,-3.09375 -1.28911,-12.01789 -1.31905,-19.83141 l -0.0544,-14.20642 4.46927,-4.09368 c 2.45809,-2.25154 6.10671,-4.42119 8.10802,-4.82145 2.00131,-0.40027 9.13076,-4.29018 15.84324,-8.64425 l 12.20447,-7.9165 -0.625,-17.9549 c -0.6624,-19.02926 -1.84513,-22.23277 -5.50195,-14.90249 -1.09893,2.20286 -1.99805,4.7093 -1.99805,5.56987 0,0.86059 -2.03143,3.99615 -4.51429,6.96795 -2.48286,2.97179 -5.00019,6.68125 -5.59406,8.24327 -0.92339,2.42867 -1.98149,2.84001 -7.30558,2.84001 l -6.22579,0 -5.05514,-8.65559 c -2.78033,-4.76057 -5.05514,-9.44281 -5.05514,-10.40497 0,-3.08671 7.96452,-13.07405 14.70754,-18.44291 3.59835,-2.86507 6.62683,-5.72384 6.72996,-6.35287 0.67321,-4.10629 0.30948,-4.26866 -9.5625,-4.26866 l -10,0 -0.39036,-6.16716 c -0.71,-11.21664 -0.4441,-11.50872 11.94385,-13.12012 14.12427,-1.83726 22.59236,-4.53768 26.88401,-8.57315 4.49095,-4.22287 4.33574,-5.26457 -0.78445,-5.26457 -2.32206,0 -4.87103,-0.7821 -5.66435,-1.738 -0.79333,-0.9559 -4.22236,-2.9339 -7.62009,-4.39556 -3.39771,-1.46166 -6.7909,-3.80342 -7.54041,-5.20389 -0.74951,-1.40048 -2.99228,-3.5373 -4.9839,-4.74848 -7.8749,-4.78901 -9.14488,-7.91765 -9.18313,-22.62285 -0.0338,-12.97826 0.0883,-13.57987 3.92948,-19.37908 5.53826,-8.36125 8.74089,-9.75548 20.99591,-9.14033 8.4193,0.42261 10.79544,1.03746 14.375,3.71968 2.35864,1.76736 6.13369,4.14683 8.38899,5.28772 3.0596,1.54777 5.04285,4.13173 7.8125,10.17887 2.04157,4.4575 3.71195,8.70485 3.71195,9.43856 0,0.73372 1.125,2.76425 2.5,4.51227 1.375,1.74803 2.5,4.721 2.5,6.6066 0,1.88562 0.80085,4.09302 1.77966,4.90537 1.44968,1.20312 2.55059,0.38053 5.9375,-4.43642 2.28681,-3.25236 7.22991,-9.05126 10.98469,-12.88642 6.85684,-7.00368 8.89666,-9.68223 11.16737,-14.66411 0.67462,-1.48009 1.78815,-3.03815 2.47452,-3.46235 3.73591,-2.30893 5.64717,-9.38203 6.44372,-23.84658 0.86966,-15.79241 1.26586,-16.99954 12.51319,-38.125 1.2811,-2.40625 2.35629,-5.31575 2.38931,-6.46556 0.18731,-6.52239 27.62855,-22.28444 38.7965,-22.28444 2.84784,0 6.20503,-0.5497 7.46042,-1.22156 3.1442,-1.68272 47.5689,-1.84134 52.7669,-0.1884 2.2887,0.72779 5.7413,1.64307 7.6726,2.03396 1.9313,0.3909 6.057,3.05721 9.1684,5.92516 6.1383,5.65806 16.6952,18.94262 16.6952,21.00878 0,0.70401 0.8868,2.63347 1.9707,4.28768 2.9829,4.55241 5.435,16.45496 5.4848,26.62282 0.042,8.4942 0.2474,9.17057 3.1232,10.26395 1.6933,0.64377 4.4382,3.32417 6.0999,5.95645 7.3896,11.70582 23.3214,22.28752 23.3214,15.48973 0,-1.27678 2.8642,-5.18563 6.3649,-8.68632 8.2615,-8.26153 18.38706,-11.92962 33.57076,-12.16145 9.7232,-0.14845 10.9871,0.12653 15.9375,3.46754 2.9573,1.99582 5.3769,4.26527 5.3769,5.04321 0,0.77794 1.7869,3.25804 3.9708,5.51134 4.5077,4.65073 5.7864,10.55962 5.9379,27.43916 l 0.091,10.16705 -4.934,4.20795 c -7.7268,6.58981 -11.525,9.26984 -17.2976,12.20507 -2.9462,1.49806 -5.0224,3.26467 -4.6138,3.92581 0.4086,0.66113 6.7566,1.20607 14.1067,1.21096 7.35,0.005 17.2119,0.37226 21.9152,0.8164 10.5756,0.99865 11.7416,2.67153 10.0665,14.44301 l -1.118,7.8567 -15.5946,0 c -13.8432,0 -15.6433,0.24526 -16.0284,2.18386 -0.2757,1.38753 0.653,2.5971 2.5469,3.31715 1.6395,0.62332 4.7348,3.13098 6.8785,5.57258 3.5618,4.05662 3.7812,4.79428 2.5457,8.55785 -0.7437,2.26521 -1.5178,4.78891 -1.7204,5.60822 -0.7717,3.12133 -7.0807,5.91478 -12.7967,5.666 -4.4741,-0.19472 -6.5317,-1.07517 -9.7086,-4.1544 -2.2173,-2.14902 -4.5815,-3.56732 -5.2538,-3.15178 -0.6724,0.41553 -1.6274,6.41312 -2.1223,13.32798 -1.1207,15.65742 -2.1606,16.68063 -17.0393,16.7661 -5.40386,0.031 -9.82676,0.38026 -9.82866,0.77605 0,0.39578 1.3843,2.0232 3.0802,3.61648 2.9434,2.7651 3.6968,2.8645 16.56256,2.18522 16.1925,-0.85491 23.56,-3.03478 33.1604,-9.81133 2.5747,-1.81747 6.5352,-3.65226 8.801,-4.07732 3.1465,-0.59028 5.7844,-2.81075 11.1679,-9.40052 13.0731,-16.00232 13.4839,-16.96148 17.1767,-40.10714 0.6032,-3.78125 1.4737,-14.85126 1.9343,-24.60001 0.4606,-9.74876 1.2854,-19.71094 1.8328,-22.13816 0.8231,-3.64946 0.4792,-5.11265 -1.9869,-8.45534 -3.9865,-5.40335 -4.2426,-14.71095 -0.4322,-15.70739 3.4174,-0.89366 6.2,-6.59945 6.2,-12.71325 0,-2.74358 0.571,-5.34122 1.2689,-5.77255 1.9977,-1.23466 4.8905,-9.07321 4.7341,-12.82793 -0.402,-9.6493 1.4612,-20.71119 3.9314,-23.34053 1.411,-1.50204 2.5655,-3.36989 2.5655,-4.15079 0,-0.7809 0.7434,-1.86965 1.6518,-2.41944 4.0838,-2.4714 7.0982,-12.21505 7.102,-22.95676 0,-10.48835 3.8511,-34.19554 6.2253,-38.36 0.6845,-1.20056 3.1599,-8.15917 5.501,-15.46356 2.341,-7.3044 6.5657,-17.66389 9.3882,-23.0211 2.8225,-5.3572 5.1317,-10.23313 5.1317,-10.83538 0,-1.73306 14.3346,-20.82383 22.2097,-29.57881 32.0685,-35.65162 56.4775,-50.46645 92.0818,-55.88828 19.6239,-2.98834 37.9296,-1.72197 65.0835,4.50243 10.6594,2.44341 34.8976,10.36953 36.9735,12.09066 1.0854,0.8999 2.6986,1.63619 3.585,1.63619 0.8863,0 3.5335,1.6875 5.8825,3.75 2.3491,2.0625 4.8515,3.75 5.561,3.75 0.7094,0 3.1335,1.40625 5.3869,3.125 2.2534,1.71875 4.4811,3.125 4.9504,3.125 0.4693,0 2.8889,1.82813 5.3768,4.0625 14.8589,13.34483 20.46944,19.16976 22.38244,23.23774 1.1832,2.51612 5.1607,9.11304 8.8389,14.65981 3.6782,5.54678 6.6876,11.18724 6.6876,12.53436 0,1.34713 0.7789,3.56129 1.7308,4.92037 0.952,1.35907 2.9757,7.24986 4.4971,13.09063 1.5215,5.84078 3.9066,13.15084 5.3004,16.24459 5.4286,12.05058 6.4685,51.36146 2.0832,78.75 -3.1784,19.8503 -6.4338,35.91675 -7.9782,39.375 -0.9211,2.0625 -2.9215,7.6875 -4.4453,12.5 -4.3648,13.78451 -17.2144,37.73906 -23.76024,44.29443 -23.4898,23.52402 -33.8714,32.70306 -40.3277,35.65621 -3.8169,1.7459 -7.8394,3.17436 -8.9389,3.17436 -1.0995,0 -3.3545,0.8881 -5.0111,1.97356 -2.3221,1.52147 -4.6187,1.77284 -10.0255,1.0973 -6.0605,-0.75721 -7.386,-0.52947 -9.7564,1.67634 -1.5087,1.40394 -4.4306,2.73828 -6.4931,2.9652 -6.5669,0.72253 -5.7127,5.60605 6.9588,39.7876 6.2442,16.84375 14.0589,38.21875 17.366,47.5 11.4834,32.22769 13.6792,37.62039 16.8561,41.39585 1.7567,2.08779 3.194,4.41968 3.194,5.18199 0,0.76232 1.1962,2.65929 2.6582,4.2155 2.7563,2.93397 2.4281,7.22865 -0.4958,6.48655 -0.8774,-0.22269 -9.9843,-9.27959 -20.2376,-20.12645 -14.7361,-15.58921 -18.9497,-19.38703 -20.1092,-18.125 -0.8067,0.87811 -2.7472,13.40906 -4.3122,27.84656 -1.565,14.4375 -3.4198,26.97725 -4.1219,27.86611 -0.7021,0.88887 -2.0728,1.45137 -3.0461,1.25 -1.0115,-0.20927 -8.0729,-15.4726 -16.4837,-35.62966 -8.0929,-19.39495 -15.2951,-35.9887 -16.005,-36.875 -0.7099,-0.8863 -1.6761,-3.0177 -2.1472,-4.73645 -0.4711,-1.71875 -1.3387,-4.25 -1.9279,-5.625 -0.5893,-1.375 -7.5044,-17.96875 -15.3669,-36.875 -8.0841,-19.43906 -15.0541,-34.52479 -16.0415,-34.71972 -1.128,-0.22273 -4.9355,5.971 -10.7578,17.5 -4.9565,9.8146 -9.8458,19.25097 -10.8651,20.96972 -3.836,6.46863 -48.9519,94.5129 -50.9024,99.33676 -1.3595,3.36229 -2.8148,5.03824 -4.375,5.03824 -2.1935,0 -2.3588,-1.52487 -2.6768,-24.6875 -0.2277,-16.58619 -0.7805,-24.6875 -1.6847,-24.6875 -0.7401,0 -8.6383,6.04688 -17.5515,13.4375 -21.1382,17.52731 -20.3739,17.00808 -22.0538,14.98395 -0.9982,-1.20275 -0.899,-2.46986 0.3698,-4.72027 3.3638,-5.96669 5.7521,-11.8147 7.1118,-17.41445 0.7561,-3.11395 2.079,-6.50548 2.9397,-7.53673 3.1072,-3.72245 59.3327,-108.05572 59.3327,-110.09898 0,-2.71941 -1.6526,-3.90902 -10.0519,-7.23602 -8.0752,-3.19865 -26.1501,-18.4132 -33.4568,-28.16242 -2.629,-3.50767 -7.1731,-10.73695 -10.0982,-16.06508 -8.7071,-15.8604 -9.845,-13.46807 -7.8214,16.44375 1.2761,18.86135 1.2086,24.04108 -0.4737,36.36875 -1.0789,7.90625 -2.3672,17.75 -2.8628,21.875 -0.4957,4.125 -1.4336,8.34318 -2.0843,9.37371 -0.6508,1.03055 -1.5543,4.96805 -2.0078,8.75 -1.3002,10.84248 -9.9679,27.14218 -19.7963,37.22729 -8.8762,9.10799 -16.8983,15.3297 -23.8468,18.49488 -2.4063,1.09607 -7.1875,4.70908 -10.6251,8.02891 -6.6126,6.38624 -12.1116,9.74005 -32.8534,20.03706 -12.8317,6.37018 -12.8521,6.38763 -12.109,10.35954 0.4095,2.18824 0.1014,6.50986 -0.6844,9.60361 -0.7859,3.09375 -2.797,12.09375 -4.4692,20 -3.2219,15.23396 -6.2306,23.93261 -12.0404,34.809816 -7.5427,14.1219 -21.95196,31.00044 -30.80076,36.07912 -11.7537,6.74591 -16.4948,10.61145 -18.9732,15.46952 -2.709,5.31014 -2.3868,7.39154 1.1441,7.39154 2.1684,0 7.6613,6.21646 7.6613,8.67056 0,0.6995 1.4062,2.19322 3.125,3.31939 1.7187,1.12616 3.125,2.72858 3.125,3.56093 0,0.83233 1.4062,2.83443 3.125,4.44912 1.7187,1.61469 3.125,3.86149 3.125,4.9929 0,1.1314 1.8281,4.2695097 4.0625,6.9735597 5.4277,6.56869001 9.6875,12.7013 9.6875,13.94672 0,1.20551 4.6352,6.0225803 8.04146,8.3570303 2.3553,1.61422 2.4344,5.00402 3.125,134.005424 l 0.7085,132.3494 13.125,0 13.125,0 0.625,-136.381 0.625,-136.380974 7.2219,-8.2253403 c 7.5399,-8.58748 18.089,-17.1377197 21.1441,-17.1377197 0.9796,0 4.9804,-1.92653 8.8907,-4.28118 3.9103,-2.35463 12.0334,-5.72977 18.0515,-7.50028 10.4294,-3.06834 12.3572,-3.2191 41.1599,-3.21883 26.2952,2.5e-4 31.7314,0.34449 41.875,2.65163 20.6833,4.70434 50.6878,19.0020597 56.8213,27.07641971 1.3299,1.75061999 1.6385,53.25457029 1.6709,278.82927429 0.039,272.039 -10e-4,276.7393 -2.3899,280.0941 -1.3362,1.8766 -8.5081,7.026 -15.9375,11.443 l -13.5078,8.0309 -15.625,0.4248 c -28.2319,0.7678 -95.5465,1.1513 -99.375,0.5662 z m -521.48299,-25.5333 c 1.04126,-1.6525 -0.91074,-4.5665 -10.22903,-15.2705 -6.33372,-7.2755 -12.16106,-13.627 -12.94964,-14.1144 -0.78857,-0.4873 -2.03106,0.1088 -2.76109,1.324 -1.6816,2.8 -9.74333,13.4145 -16.64229,21.9123 -2.92324,3.6006 -4.99168,7.0697 -4.59653,7.7091 0.41285,0.668 10.32584,1.0176 23.3051,0.8221 19.2989,-0.2908 22.77396,-0.6376 23.87348,-2.3826 z m -85.044793,-12.4076 c 10.61446,-9.4605 33.402703,-35.728 33.402703,-38.5026 0,-3.7807 -7.096903,-19.5068 -8.978293,-19.8951 -0.92624,-0.1912 -11.23816,7.4139 -22.91538,16.9001 l -21.23133,17.2477 -0.37321,6.4045 c -0.33747,5.7909 0.17745,7.2559 5.37305,15.2874 3.16046,4.8856 6.16925,8.8829 6.6862,8.8829 0.51696,0 4.13327,-2.8463 8.03626,-6.3249 z m 726.869683,1.9499 c 0.315,-3.4548 -1.6236,-5.448 -24.6179,-25.3125 -13.7279,-11.8594 -25.5683,-21.5625 -26.3121,-21.5625 -2.0807,0 -49.3578,46.5781 -49.8133,49.0767 -0.3785,2.077 2.4555,2.1833 50,1.875 l 50.4014,-0.3267 0.3419,-3.75 z m -613.80434,-10.9375 c 1.49416,-1.9157 10.33736,-29.8011 10.33736,-32.5971 0,-2.659 -36.29964,-38.4884 -44.63244,-44.0543 -3.57909,-2.3907 -6.84666,-4.8955 -7.26127,-5.5664 -1.81357,-2.9344 -7.40422,-0.9792 -14.79827,5.1754 -4.22566,3.5173 -7.86371,6.8719 -8.08455,7.4546 -0.22084,0.5827 5.40416,7.74 12.5,15.9052 7.09584,8.1652 20.77183,23.9356 30.39108,35.0454 9.61925,11.1098 18.1285,20.1997 18.90944,20.1997 0.78095,0 1.96833,-0.7032 2.63865,-1.5625 z m 506.14634,-38.0189 c 13.9926,-14.551 25.4377,-27.2072 25.4336,-28.125 -0.01,-2.1975 -20.8906,-20.0749 -22.8507,-19.564 -0.8343,0.2175 -9.3392,8.4003 -18.8999,18.184 l -17.383,17.7887 0.8046,17.6892 c 0.8044,17.6815 1.8516,21.5855 5.5929,20.8496 1.0238,-0.2014 13.3099,-12.2715 27.3025,-26.8225 z m 109.8161,-30.413 0,-24.3352 -25.625,-22.2533 c -14.0938,-12.2394 -26.9163,-22.8984 -28.4945,-23.6868 -2.6328,-1.3153 -3.6893,-0.6184 -12.8125,8.4513 -5.4687,5.4366 -9.943,10.4415 -9.943,11.1219 0,2.1451 73.0326,75.3739 75,75.2015 1.5968,-0.1399 1.875,-3.7745 1.875,-24.4994 z M 89.268647,453.37536 c 16.656723,-13.0946 30.284933,-24.5415 30.284933,-25.4375 0,-2.3154 -6.20749,-10.4167 -13.02549,-16.9994 l -5.82106,-5.6201 -3.973363,2.2804 c -2.18535,1.2542 -12.56988,8.5226 -23.07673,16.152 l -19.10336,13.8716 0,18.9473 c 0,18.6361 0.29249,20.614 3.04841,20.614 0.75995,0 15.00995,-10.7138 31.66666,-23.8083 z m 103.547073,-17.6636 c 0.50032,-0.8096 0.76991,-7.978 0.59909,-15.9299 l -0.3106,-14.458 -7.08782,-6.6767 c -3.8983,-3.6722 -9.05656,-8.1669 -11.46281,-9.9882 -2.40625,-1.8213 -8.55855,-7.1171 -13.67179,-11.7684 -5.11322,-4.6513 -9.78379,-8.4569 -10.37902,-8.4569 -2.54187,0 -19.83185,14.0034 -19.46541,15.7653 0.37253,1.7912 58.20023,52.7938 60.00494,52.9229 0.47505,0.034 1.27309,-0.6006 1.77342,-1.4101 z m 498.33714,-45.3625 c 12.1829,-13.3839 22.1508,-25.1426 22.1508,-26.1305 0,-1.9343 -29.9598,-28.3117 -39.3708,-34.6631 -9.7252,-6.5635 -9.3793,-8.0575 -9.3793,40.5054 0,23.6257 0.375,43.3309 0.8334,43.7892 0.4583,0.4584 1.4592,0.8334 2.2242,0.8334 0.765,0 11.3588,-10.9505 23.5417,-24.3344 z m -607.956043,-25.83 c 28.793853,-21.5186 33.856763,-25.7078 33.856763,-28.014 0,-1.9464 -17.185013,-18.7834 -18.764113,-18.3841 -0.67974,0.1718 -2.22917,1.2968 -3.44317,2.5 -4.19756,4.1599 -35.03132,27.8125 -36.25675,27.8125 -0.67642,0 -1.81374,0.7035 -2.52738,1.5634 -1.62941,1.9633 -2.56379,34.6908 -0.99035,34.6883 0.62877,-9e-4 13.28502,-9.0757 28.125,-20.1661 z m 716.071643,-30.4361 0.3398,-24.943 -20.951,-20.9783 c -11.5231,-11.538 -21.801,-20.9488 -22.8399,-20.9127 -2.0313,0.071 -25.3922,27.2774 -26.0117,30.2943 -0.214,1.042 11.2327,12.408 26.8548,26.6657 14.9753,13.6672 29.7681,27.2359 32.8729,30.1526 9.2058,8.648 9.3449,8.3583 9.7351,-20.2786 z m -608.76243,-3.7901 0.32745,-17.4844 -19.95613,-20 c -10.97587,-11 -20.40447,-19.8872 -20.95245,-19.7492 -1.28402,0.3233 -19.12132,18.0547 -19.12132,19.0078 0,1.9113 55.85655,56.3714 57.5,56.0625 1.54152,-0.2897 1.93324,-3.462 2.20245,-17.8367 z m -85.24173,-77.2755 c 3.7341,-3.3226 6.78928,-6.9951 6.78928,-8.1611 0,-3.0879 -15.456883,-18.0126 -18.105363,-17.482 -1.19213,0.2388 -10.52539,8.0279 -20.74059,17.3092 l -18.57309,16.875 -0.0405,18.2291 c -0.0222,10.0261 0.32223,18.5919 0.76553,19.0352 0.4433,0.4433 10.32564,-8.3223 21.96073,-19.4792 11.6351,-11.1568 24.209903,-23.0036 27.943993,-26.3262 z m 617.67946,-21.1138 c -0.558,-1.9044 -21.2196,-22.2201 -22.5985,-22.2201 -0.7983,0 -8.9706,7.5347 -18.1608,16.7439 l -16.7094,16.7438 -0.503,22.6822 c -0.2766,12.4752 -0.1019,23.331 0.3882,24.1241 0.8977,1.4524 58.1166,-56.2539 57.5835,-58.0739 z m 85.3599,6.0133 0,-19.2665 -14.0625,-13.6997 c -16.6207,-16.1919 -44.0354,-40.2672 -45.8524,-40.2672 -0.7026,0 -2.2501,1.5468 -3.4389,3.4375 -1.1888,1.8906 -3.7249,5.2759 -5.6358,7.5229 -7.5245,8.8479 -8.9108,6.7461 30.3744,46.0495 19.5106,19.5195 36.1805,35.4901 37.0444,35.4901 1.1931,0 1.5708,-4.6329 1.5708,-19.2666 z m -617.77949,-2.5611 0.34558,-19.9526 -19.70593,-19.7349 c -10.83827,-10.8541 -20.45782,-19.7348 -21.37678,-19.7348 -1.97547,0 -22.7093,18.81 -22.72362,20.6152 -0.005,0.6821 13.06828,14.338 29.05266,30.3464 21.11257,21.1442 29.74636,29.0113 31.5625,28.7597 2.36436,-0.3275 2.51875,-1.4289 2.84559,-20.299 z M 88.770467,172.96906 c 16.243213,-15.0368 29.533113,-27.9643 29.533113,-28.7277 0,-2.3332 -24.175423,-25.8077 -26.578283,-25.8077 -1.2376,0 -2.55328,0.7898 -2.92372,1.7552 -0.37045,0.9654 -7.94655,7.8454 -16.83577,15.289 l -16.16223,13.5337 0,26.0527 c 0,21.4544 0.30302,25.9813 1.71689,25.6485 0.94428,-0.2223 15.00678,-12.707 31.25,-27.7437 z m 598.404693,-6.5438 c 14.7144,-15.5421 26.8787,-29.1827 27.0318,-30.3125 0.2937,-2.1672 -22.1294,-22.0541 -24.8666,-22.0541 -0.8337,0 -8.398,8.7187 -16.8095,19.375 l -15.2938,19.375 -0.092,20.1041 c -0.086,18.7766 0.2479,21.7709 2.4257,21.7709 0.4679,0 12.8897,-12.7163 27.6041,-28.2584 z m -495.39503,-20.2666 0.35156,-15.3695 -23.40243,-23.9902 C 155.85792,93.604256 144.88963,82.627156 144.35527,82.405356 c -1.51754,-0.63 -18.3454,13.9332 -18.45443,15.9708 -0.13843,2.587104 61.35994,63.950504 63.6512,63.511504 1.52414,-0.292 1.94257,-3.2458 2.22809,-15.729 z m 610.89853,-28.4437 0,-26.135204 -29.2528,-22.8231 c -16.089,-12.5527 -29.9685,-22.823 -30.8434,-22.823 -1.8737,0 -24.2788,28.4356 -24.2788,30.8136 0,3.0735 80.374,68.436704 83.0545,67.543204 0.8711,-0.2904 1.3205,-9.3339 1.3205,-26.5755 z M 67.114487,75.267356 c 10.00264,-6.7721 38.689093,-33.7753 38.689093,-36.4188 0,-2.3865 -28.672543,-34.7899303 -30.784243,-34.7899303 -2.07418,0 -12.33301,12.0540403 -15.84454,18.6172303 -2.51447,4.6996 -2.78061,7.2247 -3.15376,29.9211 -0.39142,23.8078 -0.0975,28.3367 1.83915,28.3367 0.48679,0 4.65123,-2.5498 9.2543,-5.6663 z m 603.246673,-7.1462 c 2.0889,-2.2344 11.2354,-13.7711 20.3256,-25.6372 11.6555,-15.2148 16.3025,-22.2159 15.7642,-23.75 -0.4199,-1.1964 -7.2947,-7.15714 -15.2773,-13.2460303 l -14.5137,-11.0707 -4.4907,2.52526 c -2.7286,1.53439 -5.5653,4.65215 -7.2294,7.9457 -2.586,5.1182303 -2.7428,7.1046703 -2.8125,35.6287703 -0.073,29.7192 0.085,31.0464 3.7435,31.568 0.3808,0.054 2.4014,-1.7295 4.4903,-3.9638 z M 189.6755,42.313656 c -0.3556,-24.4007 -1.05391,-26.56543 -10.0278,-31.08633 -2.45802,-1.2383003 -6.71912,-3.6558603 -9.46912,-5.3723603 -9.03519,-5.63956999 -9.9398,-6.15041999 -16.25,-9.17668 -4.91715,-2.35819 -8.78243,-3.0904 -18.125,-3.43352 -10.56746,-0.38811 -11.875,-0.19934 -11.875,1.71441 0,1.1828 6.1875,8.72666 13.75,16.7641403 7.5625,8.03744 16.47387,17.75724 19.80305,21.59944 12.97215,14.9712 29.03169,31.1436 30.72886,30.9447 1.47993,-0.1734 1.7282,-3.8939 1.46501,-21.9538 z m 614.61156,-17.0338 c 0.3346,-9.36164 0.1074,-10.4079 -3.4159,-15.7271303 -2.3615,-3.56524 -6.0618,-6.94324 -9.8849,-9.02404999 -3.3608,-1.82918001 -6.8375,-4.20170001 -7.726,-5.27229001 -3.5035,-4.22151 -11.6669,-6.5269697 -26.2066,-7.4011697 -15.0101,-0.90248 -21.25,0.16302 -21.25,3.6284997 0,1.02407 1.1026,2.45207 2.4503,3.17332 1.3476,0.72125 14.0551,9.51973 28.2388,19.5521503 28.6064,20.23397 31.3319,21.90577 34.9359,21.42967 2.2298,-0.2945 2.5387,-1.414 2.8584,-10.359 z M 573.0678,-72.503874 c 3.8389,-3.30469 18.9076,-21.51146 22.5015,-27.1875 6.06836,-9.584176 18.98426,-46.143996 18.98426,-53.736776 0,-1.55766 -0.8592,-3.5452 -1.9094,-4.41674 -1.5918,-1.32114 -2.7228,-0.93089 -6.8017,2.34693 -2.6907,2.16238 -5.4119,3.93159 -6.047,3.93159 -3.13046,0 -7.50586,5.37251 -8.86886,10.88997 -0.8133,3.29177 -2.0725,7.67253 -2.7984,9.73503 -0.7259,2.0625 -1.7833,5.71875 -2.3499,8.125 -1.864,7.91703 -13.0842,40.146556 -15.7331,45.192856 -3.4035,6.48379 -1.7721,9.24704 3.0226,5.11964 z M 365.80358,-107.98133 c 0,-18.29279 -0.24331,-20.55864 -2.62068,-24.4053 -2.88101,-4.66158 -6.51298,-6.93018 -14.5616,-9.09548 -7.08446,-1.90592 -10.65561,-0.17469 -9.59862,4.65325 1.64199,7.50001 5.91584,19.98674 8.84797,25.85074 3.34618,6.69205 15.42203,23.161746 16.98257,23.161746 0.5227,0 0.95036,-9.07423 0.95036,-20.164956 z m 48.75,-118.65763 c 7.76129,-1.67805 16.94135,-8.19925 19.20009,-13.63906 3.89252,-9.37454 4.93312,-15.94513 3.45496,-21.81544 -0.77278,-3.06897 -1.40505,-7.26642 -1.40505,-9.32766 0,-2.06124 -0.55045,-4.0879 -1.22323,-4.5037 -1.43728,-0.8883 -8.75612,4.21897 -8.82172,6.15602 -0.11375,3.35848 -5.95241,8.31734 -10.65951,9.05326 -8.54949,1.33663 -34.29554,23.98431 -34.29554,30.16828 0,0.67949 3.51563,1.63644 7.8125,2.12658 4.29688,0.49012 9.21875,1.66872 10.9375,2.61908 1.71875,0.95038 4.53125,1.42439 6.25,1.05338 1.71875,-0.37101 5.65625,-1.22185 8.75,-1.89074 z m 144.76632,-1.80241 c 3.422,-1.71875 7.359,-3.125 8.7491,-3.125 1.39,0 5.1523,-1.1252 8.3606,-2.50045 l 5.8333,-2.50045 -3.8026,-4.80118 c -4.3858,-5.53749 -17.2396,-16.8759 -24.5317,-21.63948 -2.75,-1.79644 -10.0625,-5.94109 -16.25,-9.21033 -9.5871,-5.06545 -12.3586,-5.9647 -18.75,-6.0836 l -7.5,-0.13951 -0.392,8.75 c -0.6552,14.62552 0.4172,18.57807 6.6534,24.52152 5.8654,5.59011 29.7919,19.85348 33.3037,19.85348 1.1575,0 4.9042,-1.40625 8.3262,-3.125 z m -195.07882,-21.85214 c 6.35938,-4.09624 11.5625,-7.95305 11.5625,-8.5707 0,-0.61763 -2.24044,-1.4235 -4.97875,-1.79077 -7.06397,-0.94749 -16.02933,-5.60205 -17.98697,-9.33835 -2.47934,-4.73199 -3.55603,-1.78773 -4.25868,11.64555 -0.64155,12.2653 -0.11438,15.5407 2.49767,15.51668 0.88095,-0.007 6.80485,-3.36618 13.16423,-7.46241 z m 224.74322,-39.78655 c -1.2596,-1.33387 -2.8535,-0.38371 -8.5692,5.10812 -7.5176,7.22323 -16.3946,11.17384 -22.4895,10.00872 -1.8546,-0.35452 -3.372,-0.10085 -3.372,0.56372 0,0.66459 5.4844,5.45044 12.1875,10.63525 6.7031,5.1848 13.8748,11.21216 15.9371,13.3941 l 3.7497,3.96719 2.0519,-21.01921 c 1.6322,-16.72039 1.7354,-21.35434 0.5045,-22.65789 z m -49.4307,7.80529 c 0,-0.38962 -1.4848,-2.65504 -3.2995,-5.03426 -3.5641,-4.67274 -3.543,-3.81873 -0.6535,-26.46813 1.088,-8.52847 4.0554,-13.68465 9.3779,-16.29492 2.6172,-1.28355 3.3251,-2.52519 3.3251,-5.83247 0,-3.38961 -0.9408,-4.94687 -4.8674,-8.05678 -6.4209,-5.08546 -8.8539,-5.02926 -8.982,0.20746 -0.2433,9.93878 -1.0418,17.155 -2.1325,19.27173 -0.6493,1.25992 -1.5415,5.94702 -1.9827,10.41577 -1.1041,11.18104 -2.8309,16.76801 -6.5481,21.18559 -1.7416,2.06979 -2.8545,4.26806 -2.4732,4.88507 0.3814,0.61703 3.0936,1.74703 6.0271,2.51113 2.9336,0.7641 6.1775,1.94966 7.2088,2.6346 2.0501,1.36165 5,1.70101 5,0.57521 z m -128.51969,-3.21451 c 1.15792,-0.5924 3.32748,-1.07709 4.82123,-1.07709 2.1066,0 2.50782,-0.49076 1.78835,-2.1875 -0.51016,-1.20312 -1.57224,-3.95027 -2.36016,-6.10479 -0.78794,-2.15451 -2.05949,-4.68576 -2.82568,-5.625 -2.52581,-3.09631 -5.10303,-10.59428 -5.99943,-17.45429 -0.48535,-3.71438 -2.18119,-8.72217 -3.7685,-11.12842 -1.58733,-2.40625 -3.26146,-5.64062 -3.72033,-7.1875 -1.19796,-4.03851 -3.98881,-3.46516 -6.24161,1.28228 -1.06871,2.25212 -4.4701,6.98351 -7.55865,10.51418 -7.57799,8.66279 -7.22755,10.78089 1.56138,9.43695 2.35038,-0.3594 4.86631,0.0564 5.99128,0.98995 3.7139,3.08227 8.48017,15.38945 9.05801,23.3891 0.55587,7.69534 0.60759,7.78944 3.8561,7.01459 1.81098,-0.43196 4.24008,-1.27008 5.39801,-1.86246 z m -31.47155,-2.96266 c 1.88099,-2.26647 0.83563,-10.54238 -1.52699,-12.08893 -0.88374,-0.57849 -4.13298,-0.90525 -7.22055,-0.72615 -7.55168,0.43806 -8.07258,3.36528 -1.7509,9.83925 5.06467,5.1867 7.97819,6.01254 10.49844,2.97583 z m 181.45534,-10.18317 c 1.2572,-1.1378 2.2859,-3.3559 2.2859,-4.92911 0,-3.5313 -4.7725,-7.24711 -6.9678,-5.42511 -2.2972,1.90647 -4.6601,8.38527 -3.8388,10.52551 0.964,2.51223 5.6597,2.41783 8.5207,-0.17129 z m 378.53596,-7.40125 c 5.8437,-1.05601 12.1448,-2.22963 14.0024,-2.60807 4.8444,-0.9869 33.789,-29.10972 40.9599,-39.79694 7.88034,-11.74435 21.28774,-41.06313 21.28774,-46.55095 0,-0.88439 0.5125,-2.58471 1.139,-3.77851 0.6264,-1.1938 2.2987,-9.20179 3.7162,-17.79554 3.3896,-20.55032 4.6632,-53.20006 2.6818,-68.75 -1.5195,-11.92524 -5.3668,-28.44485 -7.5935,-32.60546 -0.6564,-1.2266 -1.1935,-3.56091 -1.1935,-5.18736 0,-1.62645 -0.5156,-3.49156 -1.1458,-4.14468 -2.7138,-2.81257 -7.6042,-13.72635 -7.6042,-16.96986 0,-2.32452 -0.9993,-4.18975 -2.9182,-5.44708 -1.605,-1.05165 -3.70134,-3.45524 -4.65834,-5.34132 -4.3375,-8.54822 -31.9662,-35.14454 -40.5896,-39.07294 -2.8463,-1.29665 -5.8985,-3.22914 -6.7826,-4.29443 -0.8841,-1.06527 -2.3135,-1.93687 -3.1763,-1.93687 -0.8629,0 -2.2692,-0.84375 -3.125,-1.875 -0.8559,-1.03125 -2.4111,-1.875 -3.4561,-1.875 -1.045,0 -6.8156,-1.94385 -12.8237,-4.31966 -6.008,-2.37581 -13.6623,-4.95405 -17.0095,-5.72941 -3.3471,-0.77537 -7.2107,-1.90626 -8.5857,-2.51308 -4.1341,-1.82449 -25.6157,-4.67524 -35.4986,-4.7109 -9.7062,-0.035 -30.3079,3.28409 -37.0014,5.96126 -1.375,0.54995 -5.5938,1.90723 -9.375,3.01617 -3.7813,1.10893 -9.6875,4.14657 -13.125,6.7503 -3.4375,2.60373 -8.7813,6.21543 -11.875,8.02601 -6.5839,3.85311 -24.9551,22.77639 -31.25,32.18921 -2.4063,3.59804 -6.3643,9.01042 -8.7956,12.02753 -2.4313,3.0171 -7.7363,12.11007 -11.7888,20.20661 -7.9003,15.78374 -8.4587,17.06861 -10.7429,24.72096 -0.8209,2.75 -2.0202,6.37369 -2.6652,8.05264 -0.645,1.67896 -1.6446,5.33521 -2.2213,8.125 -0.5768,2.7898 -2.5383,10.62371 -4.3591,17.40869 -3.5603,13.26767 -3.4086,18.25242 0.6919,22.72732 1.9549,2.13344 2.1421,3.28579 1.1151,6.86675 -1.5056,5.24955 -1.6243,15.8059 -0.1879,16.69371 0.5755,0.35565 0.7843,5.17354 0.464,10.70642 -0.5276,9.1141 -0.2939,10.49968 2.4858,14.73962 5.0743,7.7396 13.504,28.29366 13.504,32.9265 0,1.00054 3.0542,8.02756 6.7873,15.61561 5.6425,11.46958 8.3305,15.33144 15.9375,22.89755 10.9189,10.8604 23.7457,20.11519 27.8787,20.11519 6.6366,0 13.0143,-4.29349 13.1067,-8.82354 0.022,-1.07168 2.0241,-5.24378 4.4493,-9.27132 2.4253,-4.02754 4.2061,-7.93195 3.9574,-8.67646 -0.2804,-0.83969 -4.9212,-1.36925 -12.222,-1.3947 -17.1985,-0.06 -20.7739,-1.46135 -27.7757,-10.88676 -10.1685,-13.68845 -18.2513,-34.06518 -14.8583,-37.45812 0.819,-0.819 1.4997,-2.36097 1.5126,-3.4266 0.028,-2.29766 14.7309,-14.85826 21.8329,-18.65171 3.5977,-1.92165 7.2132,-2.66079 13.0152,-2.66079 4.4185,0 11.0657,-0.95577 14.7716,-2.12395 6.4202,-2.0238 6.9378,-2.01626 10.9789,0.16 4.7518,2.559 8.1279,1.9407 8.1279,-1.48854 0,-1.25452 -3.3334,-5.70864 -7.4074,-9.89804 -13.7827,-14.17286 -17.457,-26.37586 -15.3967,-51.13591 1.4805,-17.79276 1.121,-17.02289 20.1426,-43.13372 4.5817,-6.28928 18.0391,-17.37984 21.0889,-17.37984 0.4129,0 1.6387,-0.75218 2.7241,-1.6715 3.8254,-3.24009 19.2931,-7.0785 28.5243,-7.0785 9.6158,0 20.3394,3.15291 27.1732,7.98937 2.0483,1.44959 4.8155,3.19813 6.1495,3.88563 1.334,0.6875 3.5092,3.21875 4.8337,5.625 1.3246,2.40625 4.6042,7.30399 7.2881,10.88386 2.6838,3.57988 4.8796,7.16064 4.8796,7.95724 0,0.7966 0.8048,4.05511 1.7883,7.24114 4.4138,14.2977 6.1285,32.74008 3.2117,34.54276 -0.6874,0.4249 -1.25,2.08416 -1.25,3.68726 0,3.45163 -3.0602,10.39724 -8.0135,18.18774 -1.9671,3.09375 -10.5865,12.44249 -19.1544,20.77496 -20.7595,20.18918 -20.8609,19.85004 5.9352,19.85004 20.5586,0 20.6185,0.009 25.1007,3.4375 2.4712,1.89063 5.045,3.4375 5.7196,3.4375 1.5619,0 5.8559,4.69276 8.0065,8.75 2.2703,4.2828 3.9607,15.28168 3.8067,24.76772 -0.119,7.33007 -0.52,8.39942 -5.6255,15 -7.9177,10.23621 -14.3103,15.23228 -19.4903,15.23228 -3.2131,0 -13.7745,2.47383 -16.5447,3.87531 -2.3369,1.18224 -13.2609,-0.49562 -17.2997,-2.65713 -4.3498,-2.32792 -4.7314,-0.26709 -1.9786,10.68472 2.4723,9.83576 3.1156,11.01894 8.1619,15.01219 5.299,4.19326 5.8296,4.3341 16.2396,4.30992 5.9188,-0.0137 15.5428,-0.889 21.3866,-1.945 z m -329.4913,-38.1889 c 5.6786,-4.9985 5.8493,-5.35396 5.4885,-11.43375 -0.5534,-9.32822 -3.1812,-10.32257 -9.6537,-3.65304 -4.665,4.80698 -5.0936,5.80929 -5.0936,11.91378 0,10.11236 0.9899,10.45161 9.2588,3.17301 z m -289.51152,-4.37795 c 0.46963,-6.26679 -2.90257,-9.94717 -7.95286,-8.67962 -2.66512,0.6689 -3.16304,1.36427 -2.56744,3.58565 0.4064,1.5157 0.74659,3.72222 0.75598,4.90339 0.0174,2.19111 5.87812,6.16067 8.14206,5.51476 0.6875,-0.19615 1.41751,-2.59203 1.62226,-5.32418 z m 604.76492,-12.48701 c 5.8653,-2.78328 6.4968,-6.4344 2.3397,-13.52798 -4.7794,-8.15538 -12.5317,-12.52958 -20.3601,-11.48801 -7.4161,0.98674 -10.2418,4.16064 -10.2418,11.50404 0,6.17239 0.5252,6.79215 10,11.80167 7.8829,4.16778 12.2262,4.57454 18.2622,1.71028 z m -119.1827,-4.53865 c 6.2599,-3.4988 7.1706,-4.92294 7.1706,-11.21341 0,-6.76395 -1.2539,-9.9339 -5.9023,-14.92247 l -3.0968,-3.32336 -5.9041,2.96549 c -6.7095,3.36994 -8.8468,6.96955 -8.8468,14.89906 0,4.80085 0.5739,5.94824 4.6598,9.31619 5.0764,4.18444 7.6347,4.67346 11.9196,2.2785 z m 68.0455,-48.9477 c 9.1412,-2.43372 13.9452,-6.01454 31.884,-23.76574 10.1855,-10.07895 18.4911,-23.41596 18.4911,-29.69275 0,-1.34511 0.5344,-3.44421 1.1875,-4.66466 0.7806,-1.45846 0.5716,-6.03586 -0.6097,-13.35533 -3.4782,-21.55038 -5.2985,-25.27183 -19.2698,-39.39434 -8.0618,-8.14902 -9.6485,-9.08557 -18.5949,-10.97572 -9.4014,-1.98629 -21.0752,0.0796 -32.4678,5.74598 -11.495,5.71726 -18.9097,12.2121 -24.5596,21.51267 -2.4342,4.00714 -5.235,7.95725 -6.2239,8.77804 -6.9255,5.74764 -11.1643,30.15012 -7.7668,44.7136 2.5759,11.04215 5.9231,16.26165 18.0153,28.09305 9.4864,9.28173 12.0846,11.12685 17.8819,12.69891 8.7442,2.37123 14.0022,2.44431 22.0327,0.30629 z M 361.42858,-741.56641 c -0.4249,-0.6875 -0.21004,-1.25 0.47746,-1.25 0.6875,0 1.59764,0.5625 2.02254,1.25 0.4249,0.6875 0.21004,1.25 -0.47746,1.25 -0.6875,0 -1.59764,-0.5625 -2.02254,-1.25 z"
         style="fill:#050505" />
    </g>
    <rect
       style="opacity:0.69899998;fill:#f2f2f2;fill-opacity:1;fill-rule:evenodd;stroke:#f60000;stroke-width:0.09621845;stroke-linecap:round;stroke-miterlimit:4;stroke-dasharray:none;stroke-opacity:1"
       id="rect5619"
       width="323.24316"
       height="81.670471"
       x="97.369568"
       y="305.15906"
       onclick="window.parent.location='csa.html';"
       onmouseover="this.style.cursor='pointer'" />
    <rect
       y="192.02197"
       x="97.369568"
       height="81.670471"
       width="323.24316"
       id="rect4168"
       style="opacity:0.69899998;fill:#f2f2f2;fill-opacity:1;fill-rule:evenodd;stroke:#f60000;stroke-width:0.09621845;stroke-linecap:round;stroke-miterlimit:4;stroke-dasharray:none;stroke-opacity:1"
       onclick="window.parent.location='about.html';"
       onmouseover="this.style.cursor='pointer'" />
    <text
       xml:space="preserve"
       style="font-style:normal;font-weight:normal;font-size:40px;line-height:125%;font-family:sans-serif;letter-spacing:0px;word-spacing:0px;fill:#000000;fill-opacity:1;stroke:none;stroke-width:1px;stroke-linecap:butt;stroke-linejoin:miter;stroke-opacity:1"
       x="223.30583"
       y="360.9039"
       id="text5460"
       sodipodi:linespacing="125%"
       onclick="window.parent.location='csa.html';"
       onmouseover="this.style.cursor='pointer'"><tspan
         sodipodi:role="line"
         id="tspan5462"
         x="223.30583"
         y="360.9039"
         style="font-style:normal;font-variant:normal;font-weight:300;font-stretch:normal;font-size:40px;line-height:125%;font-family:Ubuntu;-inkscape-font-specification:'Ubuntu, Light';text-align:start;writing-mode:lr-tb;text-anchor:start">CSA</tspan></text>
    <rect
       style="opacity:0.69899998;fill:#f2f2f2;fill-opacity:1;fill-rule:evenodd;stroke:#f60000;stroke-width:0.09621845;stroke-linecap:round;stroke-miterlimit:4;stroke-dasharray:none;stroke-opacity:1"
       id="rect4170"
       width="323.24316"
       height="81.670471"
       x="97.369568"
       y="419.3063"
       onclick="window.parent.location='intern.html';"
       onmouseover="this.style.cursor='pointer'" />
    <text
       xml:space="preserve"
       style="font-style:normal;font-weight:normal;font-size:40px;line-height:125%;font-family:sans-serif;letter-spacing:0px;word-spacing:0px;fill:#000000;fill-opacity:1;stroke:none;stroke-width:1px;stroke-linecap:butt;stroke-linejoin:miter;stroke-opacity:1"
       x="243.63951"
       y="476.00476"
       id="text5464"
       sodipodi:linespacing="125%"
       onclick="window.parent.location='intern.html';"
       onmouseover="this.style.cursor='pointer'"><tspan
         sodipodi:role="line"
         id="tspan5466"
         x="243.63951"
         y="476.00476"
         style="font-style:normal;font-variant:normal;font-weight:300;font-stretch:normal;font-size:40px;line-height:125%;font-family:Ubuntu;-inkscape-font-specification:'Ubuntu, Light';text-align:center;writing-mode:lr-tb;text-anchor:middle">Internships</tspan></text>
    <rect
       y="535.47388"
       x="97.369568"
       height="81.670471"
       width="323.24316"
       id="rect4172"
       style="opacity:0.69899998;fill:#cccccc;fill-opacity:1;fill-rule:evenodd;stroke:#f60000;stroke-width:0.09621845;stroke-linecap:round;stroke-miterlimit:4;stroke-dasharray:none;stroke-opacity:1"
       onclick="window.parent.location='floral.html';"
       onmouseover="this.style.cursor='pointer'" />
    <text
       xml:space="preserve"
       style="font-style:normal;font-weight:normal;font-size:40px;line-height:125%;font-family:sans-serif;letter-spacing:0px;word-spacing:0px;fill:#000000;fill-opacity:1;stroke:none;stroke-width:1px;stroke-linecap:butt;stroke-linejoin:miter;stroke-opacity:1"
       x="136.30052"
       y="593.06567"
       id="text5468"
       sodipodi:linespacing="125%"
       onclick="window.parent.location='floral.html';"
       onmouseover="this.style.cursor='pointer'"><tspan
         sodipodi:role="line"
         id="tspan5470"
         x="136.30052"
         y="593.06567"
         style="font-style:normal;font-variant:normal;font-weight:300;font-stretch:normal;font-size:40px;line-height:125%;font-family:Ubuntu;-inkscape-font-specification:'Ubuntu, Light';text-align:start;writing-mode:lr-tb;text-anchor:start">Floral Design</tspan></text>
    <rect
       style="opacity:0.69899998;fill:#f2f2f2;fill-opacity:1;fill-rule:evenodd;stroke:#f60000;stroke-width:0.09621845;stroke-linecap:round;stroke-miterlimit:4;stroke-dasharray:none;stroke-opacity:1"
       id="rect4174"
       width="323.24316"
       height="81.670471"
       x="97.369568"
       y="661.74292"
       onclick="window.parent.location='markets.html';"
       onmouseover="this.style.cursor='pointer'" />
    <text
       xml:space="preserve"
       style="font-style:normal;font-weight:normal;font-size:40px;line-height:125%;font-family:sans-serif;letter-spacing:0px;word-spacing:0px;fill:#000000;fill-opacity:1;stroke:none;stroke-width:1px;stroke-linecap:butt;stroke-linejoin:miter;stroke-opacity:1"
       x="179.01186"
       y="713.74646"
       id="text5472"
       sodipodi:linespacing="125%"
       onclick="window.parent.location='markets.html';"
       onmouseover="this.style.cursor='pointer'"><tspan
         sodipodi:role="line"
         id="tspan5474"
         x="179.01186"
         y="713.74646"
         style="font-style:normal;font-variant:normal;font-weight:300;font-stretch:normal;font-size:40px;line-height:125%;font-family:Ubuntu;-inkscape-font-specification:'Ubuntu, Light';text-align:start;writing-mode:lr-tb;text-anchor:start">Markets</tspan></text>
    <text
       xml:space="preserve"
       style="font-style:normal;font-weight:normal;font-size:40px;line-height:125%;font-family:sans-serif;text-align:center;letter-spacing:0px;word-spacing:0px;text-anchor:middle;fill:#000000;fill-opacity:1;stroke:none;stroke-width:1px;stroke-linecap:butt;stroke-linejoin:miter;stroke-opacity:1"
       x="259.46771"
       y="245.14297"
       id="text5476"
       sodipodi:linespacing="125%"
       onclick="window.parent.location='about.html';"
       onmouseover="this.style.cursor='pointer'"><tspan
         sodipodi:role="line"
         id="tspan5478"
         x="259.46771"
         y="245.14297"
         style="font-style:normal;font-variant:normal;font-weight:300;font-stretch:normal;font-size:40px;line-height:125%;font-family:Ubuntu;-inkscape-font-specification:'Ubuntu, Light';text-align:center;writing-mode:lr-tb;text-anchor:middle">Who We Are</tspan></text>
  </g>
</svg>
