<?xml version="1.0" encoding="UTF-8" standalone="no"?>
<!-- Created with Inkscape (http://www.inkscape.org/) -->

<svg
   xmlns:dc="http://purl.org/dc/elements/1.1/"
   xmlns:cc="http://creativecommons.org/ns#"
   xmlns:rdf="http://www.w3.org/1999/02/22-rdf-syntax-ns#"
   xmlns:svg="http://www.w3.org/2000/svg"
   xmlns="http://www.w3.org/2000/svg"
   xmlns:sodipodi="http://sodipodi.sourceforge.net/DTD/sodipodi-0.dtd"
   xmlns:inkscape="http://www.inkscape.org/namespaces/inkscape"
   width="105.83334mm"
   height="251.17781mm"
   viewBox="0 0 375.00001 890.00011"
   id="svg5634"
   version="1.1"
   inkscape:version="0.91 r13725"
   sodipodi:docname="home-intern.svg">
  <defs
     id="defs5636" />
  <sodipodi:namedview
     id="base"
     pagecolor="#ffffff"
     bordercolor="#666666"
     borderopacity="1.0"
     inkscape:pageopacity="0.0"
     inkscape:pageshadow="2"
     inkscape:zoom="0.98994949"
     inkscape:cx="-219.66616"
     inkscape:cy="428.19697"
     inkscape:document-units="px"
     inkscape:current-layer="layer1"
     showgrid="false"
     fit-margin-top="0"
     fit-margin-left="0"
     fit-margin-right="0"
     fit-margin-bottom="0"
     inkscape:window-width="1920"
     inkscape:window-height="1056"
     inkscape:window-x="0"
     inkscape:window-y="24"
     inkscape:window-maximized="1" />
  <metadata
     id="metadata5639">
    <rdf:RDF>
      <cc:Work
         rdf:about="">
        <dc:format>image/svg+xml</dc:format>
        <dc:type
           rdf:resource="http://purl.org/dc/dcmitype/StillImage" />
        <dc:title />
      </cc:Work>
    </rdf:RDF>
  </metadata>
  <g
     inkscape:label="Layer 1"
     inkscape:groupmode="layer"
     id="layer1"
     transform="translate(-15.357142,298.35214)">
    <rect
       ry="1.4690734"
       y="-298.35214"
       x="15.357142"
       height="890.00012"
       width="375"
       id="rect4185"
       style="opacity:1;fill:#f2f2f2;fill-opacity:1;fill-rule:evenodd;stroke:none;stroke-width:0.31001684;stroke-linecap:round;stroke-miterlimit:4;stroke-dasharray:none;stroke-opacity:1" />
    <rect
       style="opacity:0.69899998;fill:none;fill-opacity:1;fill-rule:evenodd;stroke:#000000;stroke-width:1.79316235;stroke-linecap:round;stroke-miterlimit:4;stroke-dasharray:7.17265016, 7.17265016;stroke-dashoffset:0;stroke-opacity:0.82517479"
       id="rect4371"
       width="333.20728"
       height="322.0589"
       x="36.253498"
       y="-277.45557" />
    <path
       inkscape:connector-curvature="0"
       id="path4373"
       d="m 70.106818,2.183288 c -9.372534,-1.78661003 -17.907747,-9.83112 -20.064306,-18.91071 -0.378004,-1.59138 -0.583669,-36.17813 -0.592787,-99.698678 -0.01569,-107.36848 -0.240418,-100.66857 3.588187,-106.85042 2.131414,-3.4414 5.915168,-7.05021 9.573104,-9.13052 5.960458,-3.38984 -3.044269,-3.18572 140.224884,-3.1785 109.17082,0.006 131.32249,0.1331 133.78911,0.77051 9.78676,2.52923 17.2138,10.20902 19.07238,19.7215 0.3835,1.96283 0.58088,35.85896 0.57436,98.62654 -0.0102,104.288858 0.12158,99.977108 -3.25551,106.048658 -2.0325,3.65414 -6.53908,8.04309 -10.26065,9.99283997 C 336.28705,2.963398 344.7935,2.772788 202.57249,2.715148 131.09913,2.686148 71.489578,2.446858 70.106818,2.183288 Z m 263.673322,-20.74361 1.60631,-1.34102 0.14787,-96.214678 0.14794,-96.21469 -1.67817,-1.62889 -1.67823,-1.62891 -129.60222,0 -129.602257,0 -1.538283,1.55846 -1.538286,1.55845 0,96.0019 0,96.001898 1.67337,1.62423 1.673369,1.62424 129.391207,0 129.39115,0 1.60623,-1.34099 z m -243.350703,-19.5402 c -0.191403,-0.48411 -0.348058,-6.87338 -0.348058,-14.1982 0,-10.4807 0.174449,-13.63752 0.818938,-14.81835 0.94952,-1.73976 49.596973,-49.009038 50.437973,-49.009038 0.3091,0 6.09618,5.376 12.86015,11.9466 6.76405,6.570668 12.55379,11.946618 12.86622,11.946618 0.31236,0 18.73644,-17.628158 40.94226,-39.173728 22.20587,-21.54557 40.63027,-39.17379 40.94323,-39.17379 0.31291,0 15.31845,14.31782 33.34555,31.81741 l 32.77666,31.81735 -0.14755,34.722398 -0.14754,34.72247 -111.99998,0.14031 c -101.76012,0.1275 -112.031739,0.0599 -112.347927,-0.74001 z M 116.65957,-136.7233 c -8.68088,-1.07081 -16.98548,-6.41368 -21.964518,-14.13127 -5.834187,-9.04315 -5.641661,-22.13246 0.45819,-31.15686 6.115108,-9.04684 14.842548,-13.6603 25.841708,-13.6603 10.99913,0 19.72664,4.61346 25.84173,13.6603 6.29073,9.30683 6.29851,22.38288 0.0186,31.7526 -6.66986,9.95185 -18.01608,15.03789 -30.19594,13.53553 z"
       style="fill:#bcbcbc" />
    <text
       xml:space="preserve"
       style="font-style:normal;font-weight:normal;font-size:22.23333168px;line-height:125%;font-family:sans-serif;text-align:center;letter-spacing:0px;word-spacing:0px;text-anchor:middle;fill:#000000;fill-opacity:1;stroke:none;stroke-width:1px;stroke-linecap:butt;stroke-linejoin:miter;stroke-opacity:1"
       x="202.65657"
       y="114.15399"
       id="text4569"
       sodipodi:linespacing="125%"><tspan
         sodipodi:role="line"
         x="202.65657"
         y="114.15399"
         style="font-style:normal;font-variant:normal;font-weight:300;font-stretch:normal;font-size:40.00000381px;line-height:125%;font-family:Ubuntu;-inkscape-font-specification:'Ubuntu, Light';text-align:center;writing-mode:lr-tb;text-anchor:middle"
         id="tspan4571">Internships</tspan></text>
    <g
       id="g4573"
       transform="matrix(0.55583327,0,0,0.55583325,-130.74821,2.817328)"
       style="image-rendering:auto"
       onclick="window.parent.location='intern.html';"
       onmouseover="this.style.cursor='pointer'">
      <g
         id="g4575">
        <rect
           style="opacity:0.69899998;fill:#333333;fill-opacity:1;fill-rule:evenodd;stroke:#f60000;stroke-width:0.1;stroke-linecap:round;stroke-miterlimit:4;stroke-dasharray:none;stroke-opacity:1"
           id="rect4577"
           width="256.66663"
           height="61.666668"
           x="471.66669"
           y="961.66663"
           ry="0.31418201" />
        <text
           xml:space="preserve"
           style="font-style:normal;font-weight:normal;font-size:40px;line-height:125%;font-family:sans-serif;letter-spacing:0px;word-spacing:0px;fill:#000000;fill-opacity:1;stroke:none;stroke-width:1px;stroke-linecap:butt;stroke-linejoin:miter;stroke-opacity:1"
           x="501.96866"
           y="1004"
           id="text4579"
           sodipodi:linespacing="125%"><tspan
             sodipodi:role="line"
             id="tspan4581"
             x="501.96866"
             y="1004"
             style="font-style:normal;font-variant:normal;font-weight:500;font-stretch:normal;font-size:26.98651123px;line-height:125%;font-family:Ubuntu;-inkscape-font-specification:'Ubuntu, Medium';text-align:start;letter-spacing:4px;writing-mode:lr-tb;text-anchor:start;fill:#ffffff;fill-opacity:1">Learn More</tspan></text>
      </g>
    </g>
    <rect
       style="opacity:1;fill:#f2f2f2;fill-opacity:1;fill-rule:evenodd;stroke:none;stroke-width:0.1;stroke-linecap:round;stroke-miterlimit:4;stroke-dasharray:none;stroke-opacity:1"
       id="rect4583"
       width="335"
       height="360.28571"
       x="35.357143"
       y="145.75922" />
    <text
       xml:space="preserve"
       style="font-style:normal;font-weight:normal;font-size:22.23333359px;line-height:125%;font-family:sans-serif;text-align:justify;letter-spacing:0px;word-spacing:0px;writing-mode:lr-tb;text-anchor:start;fill:#000000;fill-opacity:1;stroke:none;stroke-width:1px;stroke-linecap:butt;stroke-linejoin:miter;stroke-opacity:1"
       x="35.35714"
       y="162.65137"
       id="text4859"
       sodipodi:linespacing="125%"><tspan
         sodipodi:role="line"
         x="47.389648"
         y="162.65137"
         id="tspan4861"><tspan
           x="35.35714"
           y="162.65137"
           id="tspan4863" /><tspan
           dx="0 0 0 0 0 0 0.48160124 0 0 0 0 0 0.48160124 0 0 0 0 0 0 0.48160124 0 0 0 0.48158598"
           x="47.389648"
           y="162.65137"
           id="tspan4865">Lorem ipsum dolor  sit amet, </tspan></tspan><tspan
         sodipodi:role="line"
         x="35.35714"
         y="190.44305"
         id="tspan4867"><tspan
           dx="0 0 0 0 0 0 0 0 0 0 0 0 0 7.1584125 0 0 0 0 0 0 0 0 0 0 0 7.1584125"
           x="35.35714"
           y="190.44305"
           id="tspan4869">consectetur  adipisicing elit, </tspan></tspan><tspan
         sodipodi:role="line"
         x="35.35714"
         y="218.23477"
         id="tspan4871"><tspan
           dx="0 0 0 0 0 3.5430217 0 0 3.5430255 0 0 0 0 0 0 0 3.5430255 0 0 0 0 0 0 0 3.542995"
           x="35.35714"
           y="218.23477"
           id="tspan4873">sed  do eiusmod tempor  in-</tspan></tspan><tspan
         sodipodi:role="line"
         x="35.35714"
         y="246.0264"
         id="tspan4875"><tspan
           dx="0 0 0 0 0 0 0 0 0 4.9811587 0 0 4.9811511 0 0 0 0 0 0 0 4.9811664 0 0 4.9811511"
           x="35.35714"
           y="246.0264"
           id="tspan4877">cididunt ut labore  et dolore </tspan></tspan><tspan
         sodipodi:role="line"
         x="35.35714"
         y="273.81815"
         id="tspan4879"><tspan
           dx="0 0 0 0 0 0 0 5.3451343 0 0 0 0 0 0 0 5.3451343 0 0 5.3451343 0 0 0 0 5.3451495"
           x="35.35714"
           y="273.81815"
           id="tspan4881">magna  aliqua. Ut enim ad  </tspan></tspan><tspan
         sodipodi:role="line"
         x="35.35714"
         y="301.60965"
         id="tspan4883"><tspan
           dx="0 0 0 0 0 0 4.0009418 0 0 0 0 0 0 0 4.0009418 0 0 0 0 0 4.0009418"
           x="35.35714"
           y="301.60965"
           id="tspan4885">minim veniam, quis  nostrud </tspan></tspan><tspan
         sodipodi:role="line"
         x="35.35714"
         y="329.40128"
         id="tspan4887"><tspan
           dx="0 0 0 0 0 0 0 0 0 0 0 0 0 0 6.7531238 0 0 0 0 0 0 0 6.7531238"
           x="35.35714"
           y="329.40128"
           id="tspan4889">exercitation  ullamco laboris </tspan></tspan><tspan
         sodipodi:role="line"
         x="35.35714"
         y="357.1929"
         id="tspan4891"><tspan
           dx="0 0 0 0 0 0 5.8284526 0 0 5.8284488 0 0 0 0 0 0 0 5.8284564 0 0 5.8284411 0 0 0 5.8284564"
           x="35.35714"
           y="357.1929"
           id="tspan4893">nisi  ut aliquip ex ea  com-</tspan></tspan><tspan
         sodipodi:role="line"
         x="35.35714"
         y="384.98465"
         id="tspan4895"><tspan
           dx="0 0 0 0 0 5.4230952 0 0 0 0 0 0 0 0 0 0 0 5.4230914 0 0 0 0 5.4230914"
           x="35.35714"
           y="384.98465"
           id="tspan4897">modo consequat.  Duis aute </tspan></tspan><tspan
         sodipodi:role="line"
         x="35.35714"
         y="412.77615"
         id="tspan4899"><tspan
           dx="0 0 0 0 0 0 6.3458667 0 0 0 0 0 0 6.3458667 0 0 6.3458667"
           x="35.35714"
           y="412.77615"
           id="tspan4901">irure dolor  in reprehenderit </tspan></tspan><tspan
         sodipodi:role="line"
         x="35.35714"
         y="440.56778"
         id="tspan4903"><tspan
           dx="0 0 0 0 0.22828627 0 0 0 0 0 0 0 0 0 0.22828245 0 0 0 0 0 0.22829771 0 0 0 0 0 0.22829771"
           x="35.35714"
           y="440.56778"
           id="tspan4905">in  voluptate velit esse  cillum </tspan></tspan><tspan
         sodipodi:role="line"
         x="35.35714"
         y="468.35941"
         id="tspan4907"><tspan
           dx="0 0 0 0 0 0 0 22.575764 0 0 0 22.575771 0 0 0 0 0 0 22.575756"
           x="35.35714"
           y="468.35941"
           id="tspan4909">dolore eu  fugiat nulla </tspan></tspan><tspan
         sodipodi:role="line"
         x="35.35714"
         y="496.15115"
         id="tspan4911"><tspan
           x="35.35714"
           y="496.15115"
           id="tspan4913">pariatur.</tspan></tspan></text>
  </g>
</svg>
