<?xml version="1.0" encoding="UTF-8" standalone="no"?>
<!-- Created with Inkscape (http://www.inkscape.org/) -->

<svg
   xmlns:dc="http://purl.org/dc/elements/1.1/"
   xmlns:cc="http://creativecommons.org/ns#"
   xmlns:rdf="http://www.w3.org/1999/02/22-rdf-syntax-ns#"
   xmlns:svg="http://www.w3.org/2000/svg"
   xmlns="http://www.w3.org/2000/svg"
   xmlns:sodipodi="http://sodipodi.sourceforge.net/DTD/sodipodi-0.dtd"
   xmlns:inkscape="http://www.inkscape.org/namespaces/inkscape"
   width="338.66666mm"
   height="677.33337mm"
   viewBox="0 0 1200 2400.0002"
   id="svg5007"
   version="1.1"
   inkscape:version="0.91 r13725"
   sodipodi:docname="floral.svg">
  <defs
     id="defs5009">
    <clipPath
       clipPathUnits="userSpaceOnUse"
       id="clipPath5191">
      <circle
         style="opacity:1;fill:#88888f;fill-opacity:0.94117647;fill-rule:evenodd;stroke:#f60000;stroke-width:0.10166225;stroke-linecap:round;stroke-miterlimit:4;stroke-dasharray:none;stroke-opacity:1"
         id="circle5193"
         cx="1568.4784"
         cy="677.271"
         r="112.44917" />
    </clipPath>
  </defs>
  <sodipodi:namedview
     id="base"
     pagecolor="#ffffff"
     bordercolor="#666666"
     borderopacity="1.0"
     inkscape:pageopacity="0.0"
     inkscape:pageshadow="2"
     inkscape:zoom="0.49497475"
     inkscape:cx="-13.12483"
     inkscape:cy="-9.5918828"
     inkscape:document-units="px"
     inkscape:current-layer="layer1"
     showgrid="false"
     inkscape:window-width="1920"
     inkscape:window-height="1056"
     inkscape:window-x="0"
     inkscape:window-y="24"
     inkscape:window-maximized="1"
     fit-margin-top="0"
     fit-margin-left="0"
     fit-margin-right="0"
     fit-margin-bottom="0"
     showguides="false"
     inkscape:guide-bbox="true"
     inkscape:snap-bbox="true"
     inkscape:bbox-paths="true"
     inkscape:bbox-nodes="true"
     inkscape:snap-bbox-edge-midpoints="true"
     inkscape:snap-bbox-midpoints="true">
    <sodipodi:guide
       position="354.28571,2350"
       orientation="0,1"
       id="guide5715"
       inkscape:label=""
       inkscape:color="rgb(0,0,255)" />
    <sodipodi:guide
       position="417.14286,1250.0001"
       orientation="0,1"
       id="guide5717"
       inkscape:label=""
       inkscape:color="rgb(0,0,255)" />
    <sodipodi:guide
       position="1150,1571.4291"
       orientation="1,0"
       id="guide5721"
       inkscape:label=""
       inkscape:color="rgb(0,0,255)" />
    <sodipodi:guide
       position="762.85714,1600.0001"
       orientation="0,1"
       id="guide5723"
       inkscape:label=""
       inkscape:color="rgb(0,0,255)" />
    <sodipodi:guide
       position="765.71429,1275.0001"
       orientation="0,1"
       id="guide5725"
       inkscape:label=""
       inkscape:color="rgb(0,0,255)" />
    <sodipodi:guide
       position="25.000001,1391.4291"
       orientation="1,0"
       id="guide5727"
       inkscape:label=""
       inkscape:color="rgb(0,0,255)" />
    <sodipodi:guide
       position="1125,1477.1431"
       orientation="1,0"
       id="guide5729"
       inkscape:label=""
       inkscape:color="rgb(0,0,255)" />
    <sodipodi:guide
       position="728.57143,2325"
       orientation="0,1"
       id="guide5731"
       inkscape:label=""
       inkscape:color="rgb(0,0,255)" />
    <sodipodi:guide
       position="728.57143,1575.0001"
       orientation="0,1"
       id="guide5733"
       inkscape:label=""
       inkscape:color="rgb(0,0,255)" />
    <sodipodi:guide
       position="665.71429,1625.0001"
       orientation="0,1"
       id="guide5735"
       inkscape:label=""
       inkscape:color="rgb(0,0,255)" />
    <sodipodi:guide
       position="660,1975"
       orientation="0,1"
       id="guide5737"
       inkscape:label=""
       inkscape:color="rgb(0,0,255)" />
    <sodipodi:guide
       position="482.85714,2000"
       orientation="0,1"
       id="guide5739"
       inkscape:label=""
       inkscape:color="rgb(0,0,255)" />
    <sodipodi:guide
       position="580,2025"
       orientation="0,1"
       id="guide5741"
       inkscape:label=""
       inkscape:color="rgb(0,0,255)" />
    <sodipodi:guide
       position="275,2231.4286"
       orientation="1,0"
       id="guide5743"
       inkscape:label=""
       inkscape:color="rgb(0,0,255)" />
    <sodipodi:guide
       position="325,1808.571"
       orientation="1,0"
       id="guide5745"
       inkscape:label=""
       inkscape:color="rgb(0,0,255)" />
    <sodipodi:guide
       position="600,1742.857"
       orientation="1,0"
       id="guide5747"
       inkscape:label=""
       inkscape:color="rgb(0,0,255)" />
    <sodipodi:guide
       position="875,1880"
       orientation="1,0"
       id="guide5749"
       inkscape:label=""
       inkscape:color="rgb(0,0,255)" />
    <sodipodi:guide
       position="900,1860"
       orientation="1,0"
       id="guide5751"
       inkscape:label=""
       inkscape:color="rgb(0,0,255)" />
    <sodipodi:guide
       position="925,2107.117"
       orientation="1,0"
       id="guide5753"
       inkscape:label=""
       inkscape:color="rgb(0,0,255)" />
    <sodipodi:guide
       position="-377.14286,1800"
       orientation="0,1"
       id="guide5755"
       inkscape:label=""
       inkscape:color="rgb(0,0,255)" />
    <sodipodi:guide
       position="-274.28571,1825"
       orientation="0,1"
       id="guide5757"
       inkscape:label=""
       inkscape:color="rgb(0,0,255)" />
    <sodipodi:guide
       position="-131.42857,1775"
       orientation="0,1"
       id="guide5759"
       inkscape:label=""
       inkscape:color="rgb(0,0,255)" />
    <sodipodi:guide
       position="1.7714767e-06,1200.0001"
       orientation="0,1200"
       id="guide5761" />
    <sodipodi:guide
       position="1200,1200.0001"
       orientation="-1200.0001,0"
       id="guide5763" />
    <sodipodi:guide
       position="1200,2400.0001"
       orientation="0,-1200"
       id="guide5765" />
    <sodipodi:guide
       position="1.7714767e-06,2400.0001"
       orientation="1200.0001,0"
       id="guide5767" />
    <sodipodi:guide
       position="300,2400.0001"
       orientation="1,0"
       id="guide4798"
       inkscape:label=""
       inkscape:color="rgb(0,0,255)" />
    <sodipodi:guide
       position="625,2350"
       orientation="1,0"
       id="guide4800"
       inkscape:label=""
       inkscape:color="rgb(0,0,255)" />
    <sodipodi:guide
       position="600,55.049985"
       orientation="1,0"
       id="guide4802" />
    <sodipodi:guide
       position="575,2276.8226"
       orientation="1,0"
       id="guide4804"
       inkscape:label=""
       inkscape:color="rgb(0,0,255)" />
  </sodipodi:namedview>
  <metadata
     id="metadata5012">
    <rdf:RDF>
      <cc:Work
         rdf:about="">
        <dc:format>image/svg+xml</dc:format>
        <dc:type
           rdf:resource="http://purl.org/dc/dcmitype/StillImage" />
        <dc:title />
      </cc:Work>
    </rdf:RDF>
  </metadata>
  <g
     inkscape:label="Layer 1"
     inkscape:groupmode="layer"
     id="layer1"
     transform="translate(-42.857152,613.3521)">
    <rect
       ry="0.31415585"
       y="586.698"
       x="42.907131"
       height="1199.9001"
       width="1199.9"
       id="rect5133"
       style="opacity:1;fill:#f2f2f2;fill-opacity:1;fill-rule:evenodd;stroke:#f60000;stroke-width:0.09995696;stroke-linecap:round;stroke-miterlimit:4;stroke-dasharray:none;stroke-opacity:1" />
    <rect
       style="opacity:1;fill:#f2f2f2;fill-opacity:1;fill-rule:evenodd;stroke:#f60000;stroke-width:0.09995696;stroke-linecap:round;stroke-miterlimit:4;stroke-dasharray:none;stroke-opacity:1"
       id="rect5553"
       width="1199.9"
       height="1199.9001"
       x="42.907131"
       y="-613.30212"
       ry="0.31415585" />
    <rect
       style="opacity:1;fill:#cccccf;fill-opacity:0.94117647;fill-rule:evenodd;stroke:#000000;stroke-width:2.38824224;stroke-linecap:round;stroke-miterlimit:4;stroke-dasharray:9.55296987, 9.55296987;stroke-dashoffset:0;stroke-opacity:0.82517479"
       id="rect5621"
       width="547.61176"
       height="347.61176"
       x="369.05127"
       y="-562.1579" />
    <path
       inkscape:connector-curvature="0"
       id="path4144"
       d="m 504.68789,-261.16456 c -9.75508,-1.91579 -18.63873,-10.54209 -20.88333,-20.27833 -0.39343,-1.70649 -0.60745,-38.79461 -0.61696,-106.90913 -0.0161,-115.13362 -0.25027,-107.9492 3.73468,-114.57809 2.2184,-3.69029 6.15657,-7.5601 9.96383,-9.79086 6.2038,-3.63499 -3.16851,-3.41612 145.94888,-3.40836 113.62719,0.006 136.68309,0.14271 139.2504,0.82624 10.18625,2.71213 17.91642,10.94736 19.85092,21.14777 0.39914,2.10476 0.60461,38.45239 0.59782,105.75944 -0.0112,111.83128 0.12646,107.20769 -3.38843,113.7183 -2.11546,3.91846 -6.80598,8.62486 -10.67948,10.7156 -6.73259,3.63395 2.12109,3.42961 -145.90538,3.36779 -74.39091,-0.031 -136.43375,-0.28772 -137.87295,-0.57037 z m 274.43651,-22.24384 1.67185,-1.43798 0.15393,-103.17314 0.15398,-103.17315 -1.74668,-1.74669 -1.74672,-1.74674 -134.89261,0 -134.89262,0 -1.60109,1.67121 -1.60107,1.67115 0,102.94498 0,102.94496 1.7417,1.74171 1.74164,1.74168 134.67301,0 134.67289,0 1.67179,-1.43799 z m -253.28435,-20.95333 c -0.19918,-0.51919 -0.3622,-7.37047 -0.3622,-15.22507 0,-11.23872 0.18154,-14.62383 0.85233,-15.89004 0.98827,-1.8656 51.62151,-52.55348 52.49686,-52.55348 0.32171,0 6.34502,5.76477 13.38514,12.81059 7.04011,7.04584 13.06621,12.81061 13.39136,12.81061 0.32516,0 19.50127,-18.90308 42.61354,-42.00687 23.11234,-23.10378 42.28884,-42.00686 42.61456,-42.00686 0.3257,0 15.94372,15.3533 34.70674,34.11844 l 34.1146,34.11845 -0.1536,37.23366 -0.15346,37.23364 -116.57183,0.15046 c -105.91399,0.13669 -116.6049,0.0642 -116.93404,-0.79353 z m 27.30089,-105.75543 c -9.03522,-1.14824 -17.67882,-6.87756 -22.8611,-15.1533 -6.07234,-9.69717 -5.87196,-23.73309 0.47692,-33.41014 6.36468,-9.70114 15.4484,-14.6483 26.89657,-14.6483 11.44808,0 20.53182,4.94716 26.89655,14.6483 6.54752,9.97987 6.55563,24.00163 0.0195,34.04895 -6.94216,10.67167 -18.75152,16.12552 -31.42853,14.51449 z"
       style="fill:#888888;fill-opacity:1" />
    <rect
       style="opacity:1;fill:#f2f2f2;fill-opacity:1;fill-rule:evenodd;stroke:#f60000;stroke-width:0.1;stroke-linecap:round;stroke-miterlimit:4;stroke-dasharray:none;stroke-opacity:1"
       id="rect4823"
       width="550"
       height="175"
       x="367.85715"
       y="-188.35204"
       ry="0.314156" />
    <text
       xml:space="preserve"
       style="font-style:normal;font-variant:normal;font-weight:normal;font-stretch:normal;font-size:40px;line-height:125%;font-family:Ubuntu;-inkscape-font-specification:Ubuntu;text-align:center;letter-spacing:0px;word-spacing:0px;text-anchor:middle;fill:#000000;fill-opacity:1;stroke:none;stroke-width:1px;stroke-linecap:butt;stroke-linejoin:miter;stroke-opacity:1"
       x="291.53116"
       y="-127.51605"
       id="text13777"
       sodipodi:linespacing="125%"><tspan
         sodipodi:role="line"
         x="464.79102"
         y="-127.51605"
         id="tspan13779"
         style="text-anchor:start;text-align:start"><tspan
           x="464.79102"
           y="-127.51605"
           style="font-style:normal;font-variant:normal;font-weight:normal;font-stretch:normal;font-size:60px;font-family:Ubuntu;-inkscape-font-specification:Ubuntu;text-anchor:start;text-align:start"
           id="tspan13781">Floral Design</tspan></tspan></text>
    <text
       xml:space="preserve"
       style="font-style:italic;font-variant:normal;font-weight:normal;font-stretch:normal;font-size:40px;line-height:125%;font-family:sans-serif;-inkscape-font-specification:'sans-serif Italic';text-align:center;letter-spacing:0px;word-spacing:0px;text-anchor:middle;fill:#000000;fill-opacity:1;stroke:none;stroke-width:1px;stroke-linecap:butt;stroke-linejoin:miter;stroke-opacity:1"
       x="96.485077"
       y="-85.305161"
       id="text13767"
       sodipodi:linespacing="125%"><tspan
         sodipodi:role="line"
         x="371.91965"
         y="-85.305161"
         id="tspan13769"
         style="text-anchor:start;text-align:start"><tspan
           x="369.53195"
           y="-85.305161"
           style="font-size:15px;text-anchor:start;text-align:start"
           id="tspan13771">Lorem ipsum dolor sit amet, consectetur adipisicing elit, sed do eiusmod </tspan></tspan><tspan
         sodipodi:role="line"
         x="450.42062"
         y="-66.555161"
         id="tspan13773"
         style="text-anchor:start;text-align:start"><tspan
           x="448.03293"
           y="-66.555161"
           style="font-size:15px;text-anchor:start;text-align:start"
           id="tspan13775">tempor incididunt ut labore et dolore magna aliqua. </tspan></tspan></text>
    <text
       xml:space="preserve"
       style="font-style:normal;font-variant:normal;font-weight:normal;font-stretch:normal;font-size:40px;line-height:125%;font-family:Ubuntu;-inkscape-font-specification:Ubuntu;letter-spacing:0px;word-spacing:0px;fill:#000000;fill-opacity:1;stroke:none;stroke-width:1px;stroke-linecap:butt;stroke-linejoin:miter;stroke-opacity:1"
       x="367.85715"
       y="52.204906"
       id="text13761"
       sodipodi:linespacing="125%"><tspan
         sodipodi:role="line"
         x="367.85715"
         y="52.204906"
         id="tspan13763"><tspan
           x="367.85715"
           y="52.204906"
           id="tspan13765">Heading 1</tspan></tspan></text>
    <text
       xml:space="preserve"
       style="font-style:normal;font-variant:normal;font-weight:normal;font-stretch:normal;font-size:40px;line-height:125%;font-family:Ubuntu;-inkscape-font-specification:Ubuntu;text-align:justify;letter-spacing:0px;word-spacing:0px;writing-mode:lr-tb;text-anchor:start;fill:#000000;fill-opacity:1;stroke:none;stroke-width:1px;stroke-linecap:butt;stroke-linejoin:miter;stroke-opacity:1"
       x="367.85715"
       y="112.96156"
       id="text13675"
       sodipodi:linespacing="125%"><tspan
         sodipodi:role="line"
         x="373.00037"
         y="137.96156"
         id="tspan13677"><tspan
           x="367.85715"
           y="112.96156"
           style="font-style:normal;font-variant:normal;font-weight:normal;font-stretch:normal;font-size:20px;font-family:Ubuntu;-inkscape-font-specification:Ubuntu"
           id="tspan13679" /><tspan
           dx="0 0 0 0.53385305 0 0 0 0 0.53385687 0 0 0.53384924 0 0 0 0 0 0.5338645 0 0 0 0 0 0 0 0.53384924 0 0 0 0 0.53383398 0 0 0 0 0 0 0 0.53383398 0 0 0 0 0 0 0 0 0 0 0 0 0.5338645"
           x="373.00037"
           y="112.96156"
           style="font-style:normal;font-variant:normal;font-weight:normal;font-stretch:normal;font-size:20px;font-family:Ubuntu;-inkscape-font-specification:Ubuntu"
           id="tspan13681">Ut enim ad minim veniam, quis nostrud exercitation ullamco </tspan></tspan><tspan
         sodipodi:role="line"
         x="367.85715"
         y="162.96156"
         id="tspan13683"><tspan
           dx="0 0 0 0 0 0 0 0 2.4956589 0 0 0 0 2.4956589 0 0 2.4956665 0 0 0 0 0 0 0 2.4956512 0 0 2.4956665 0 0 2.4956665 0 0 0 0 0 0 0 2.495636 0 0 0 0 0 0 0 0 0 0 2.4956665 0 0 0 0 2.4956665"
           x="367.85715"
           y="137.96156"
           style="font-style:normal;font-variant:normal;font-weight:normal;font-stretch:normal;font-size:20px;font-family:Ubuntu;-inkscape-font-specification:Ubuntu"
           id="tspan13685">laboris nisi ut aliquip ex ea commodo consequat. Duis aute </tspan></tspan><tspan
         sodipodi:role="line"
         x="367.85715"
         y="187.96156"
         id="tspan13687"><tspan
           dx="0 0 0 0 0 0 4.8974609 0 0 0 0 0 4.8974609 0 0 4.8974609 0 0 0 0 0 0 0 0 0 0 0 0 0 4.8974609 0 0 4.8974609 0 0 0 0 0 0 0 0 0 4.8974609 0 0 0 0 0 4.8974609 0 0 0 0 4.8974609"
           x="367.85715"
           y="162.96156"
           style="font-style:normal;font-variant:normal;font-weight:normal;font-stretch:normal;font-size:20px;font-family:Ubuntu;-inkscape-font-specification:Ubuntu"
           id="tspan13689">irure dolor in reprehenderit in voluptate velit esse cillum </tspan></tspan><tspan
         sodipodi:role="line"
         x="367.85715"
         y="212.96156"
         id="tspan13691"><tspan
           dx="0 0 0 0 0 0 0 7.8404007 0 0 7.8404007 0 0 0 0 0 0 7.8404083 0 0 0 0 0 7.8403931 0 0 0 0 0 0 0 0 0 7.8403931 0 0 0 0 0 0 0 0 0 7.8404236 0 0 0 0 7.8403931"
           x="367.85715"
           y="187.96156"
           style="font-style:normal;font-variant:normal;font-weight:normal;font-stretch:normal;font-size:20px;font-family:Ubuntu;-inkscape-font-specification:Ubuntu"
           id="tspan13693">dolore eu fugiat nulla pariatur. Excepteur sint occaecat </tspan></tspan><tspan
         sodipodi:role="line"
         x="367.85715"
         y="237.96156"
         id="tspan13695"><tspan
           dx="0 0 0 0 0 0 0 0 0 0 4.4384766 0 0 0 4.4384766 0 0 0 0 0 0 0 0 0 4.4384766 0 0 0 0 4.4384766 0 0 4.4384766 0 0 0 0 0 4.4384766 0 0 0 4.4384766 0 0 0 0 0 0 0 4.4384766"
           x="367.85715"
           y="212.96156"
           style="font-style:normal;font-variant:normal;font-weight:normal;font-stretch:normal;font-size:20px;font-family:Ubuntu;-inkscape-font-specification:Ubuntu"
           id="tspan13697">cupidatat non proident, sunt in culpa qui officia deserunt </tspan></tspan><tspan
         sodipodi:role="line"
         x="367.85715"
         y="262.96155"
         id="tspan13699"><tspan
           x="367.85715"
           y="237.96156"
           style="font-style:normal;font-variant:normal;font-weight:normal;font-stretch:normal;font-size:20px;font-family:Ubuntu;-inkscape-font-specification:Ubuntu"
           id="tspan13701">mollit anim id est laborum. </tspan><tspan
           dx="0"
           x="614.06812"
           y="237.96156"
           style="font-style:normal;font-variant:normal;font-weight:normal;font-stretch:normal;font-size:20px;font-family:Ubuntu;-inkscape-font-specification:Ubuntu"
           id="tspan13703" /></tspan><tspan
         sodipodi:role="line"
         x="367.85715"
         y="287.96155"
         id="tspan13705"><tspan
           x="367.85715"
           y="262.96155"
           style="font-style:normal;font-variant:normal;font-weight:normal;font-stretch:normal;font-size:20px;font-family:Ubuntu;-inkscape-font-specification:Ubuntu"
           id="tspan13707" /></tspan><tspan
         sodipodi:role="line"
         x="372.79205"
         y="337.96155"
         id="tspan13709"><tspan
           x="367.85715"
           y="287.96155"
           style="font-style:normal;font-variant:normal;font-weight:normal;font-stretch:normal;font-size:20px;font-family:Ubuntu;-inkscape-font-specification:Ubuntu"
           id="tspan13711" /><tspan
           dx="0 0 0 0 0 0 0.32551813 0 0 0 0 0 0.32551813 0 0 0 0 0 0.3255105 0 0 0 0.3255105 0 0 0 0 0 0.32552576 0 0 0 0 0 0 0 0 0 0 0 0.32554102 0 0 0 0 0 0 0 0 0 0 0 0.32554102 0 0 0 0 0 0.3255105"
           x="372.79205"
           y="287.96155"
           style="font-style:normal;font-variant:normal;font-weight:normal;font-stretch:normal;font-size:20px;font-family:Ubuntu;-inkscape-font-specification:Ubuntu"
           id="tspan13713">Lorem ipsum dolor sit amet, consectetur adipisicing elit, sed </tspan></tspan><tspan
         sodipodi:role="line"
         x="367.85715"
         y="362.96155"
         id="tspan13715"><tspan
           dx="0 0 0 4.4775391 0 0 0 0 0 0 0 4.4775391 0 0 0 0 0 0 4.4775391 0 0 0 0 0 0 0 0 0 0 4.4775391 0 0 4.4775391 0 0 0 0 0 0 4.4775391 0 0 4.4775391 0 0 0 0 0 0 4.4775391"
           x="367.85715"
           y="312.96155"
           style="font-style:normal;font-variant:normal;font-weight:normal;font-stretch:normal;font-size:20px;font-family:Ubuntu;-inkscape-font-specification:Ubuntu"
           id="tspan13717">do eiusmod tempor incididunt ut labore et dolore magna </tspan></tspan><tspan
         sodipodi:role="line"
         x="367.85715"
         y="387.96161"
         id="tspan13719"><tspan
           dx="0 0 0 0 0 0 0 0 2.5878906 0 0 2.5878906 0 0 0 0 2.5878906 0 0 2.5878906 0 0 0 0 0 2.5878906 0 0 0 0 0 0 0 2.5878906 0 0 0 0 2.5878906 0 0 0 0 0 0 0 2.5878906"
           x="367.85715"
           y="337.96155"
           style="font-style:normal;font-variant:normal;font-weight:normal;font-stretch:normal;font-size:20px;font-family:Ubuntu;-inkscape-font-specification:Ubuntu"
           id="tspan13721">aliqua. Ut enim ad minim veniam, quis nostrud exercitation </tspan></tspan><tspan
         sodipodi:role="line"
         x="367.85715"
         y="412.96161"
         id="tspan13723"><tspan
           dx="0 0 0 0 0 0 0 0 4.6044922 0 0 0 0 0 0 0 4.6044922 0 0 0 0 4.6044922 0 0 4.6044922 0 0 0 0 0 0 0 4.6044922 0 0 4.6044922 0 0 4.6044922 0 0 0 0 0 0 0 4.6044922"
           x="367.85715"
           y="362.96155"
           style="font-style:normal;font-variant:normal;font-weight:normal;font-stretch:normal;font-size:20px;font-family:Ubuntu;-inkscape-font-specification:Ubuntu"
           id="tspan13725">ullamco laboris nisi ut aliquip ex ea commodo consequat. </tspan></tspan><tspan
         sodipodi:role="line"
         x="367.85715"
         y="437.96161"
         id="tspan13727"><tspan
           dx="0 0 0 0 0 0.88107681 0 0 0 0 0.88108063 0 0 0 0 0 0.88108826 0 0 0 0 0 0.881073 0 0 0.881073 0 0 0 0 0 0 0 0 0 0 0 0 0 0.881073 0 0 0.881073 0 0 0 0 0 0 0 0 0 0.881073 0 0 0 0 0 0.881073"
           x="367.85715"
           y="387.96161"
           style="font-style:normal;font-variant:normal;font-weight:normal;font-stretch:normal;font-size:20px;font-family:Ubuntu;-inkscape-font-specification:Ubuntu"
           id="tspan13729">Duis aute irure dolor in reprehenderit in voluptate velit esse </tspan></tspan><tspan
         sodipodi:role="line"
         x="367.85715"
         y="462.96161"
         id="tspan13731"><tspan
           dx="0 0 0 0 0 0 0 11.51786 0 0 0 0 0 0 11.517868 0 0 11.517853 0 0 0 0 0 0 11.517853 0 0 0 0 0 11.517853 0 0 0 0 0 0 0 0 0 11.517853 0 0 0 0 0 0 0 0 0 11.517853"
           x="367.85715"
           y="412.96161"
           style="font-style:normal;font-variant:normal;font-weight:normal;font-stretch:normal;font-size:20px;font-family:Ubuntu;-inkscape-font-specification:Ubuntu"
           id="tspan13733">cillum dolore eu fugiat nulla pariatur. Excepteur sint </tspan></tspan><tspan
         sodipodi:role="line"
         x="367.85715"
         y="487.96161"
         id="tspan13735"><tspan
           dx="0 0 0 0 0 0 0 0 0 4.6923828 0 0 0 0 0 0 0 0 0 4.6923828 0 0 0 4.6923828 0 0 0 0 0 0 0 0 0 4.6923828 0 0 0 0 4.6923828 0 0 4.6923828 0 0 0 0 0 4.6923828 0 0 0 4.6923828"
           x="367.85715"
           y="437.96161"
           style="font-style:normal;font-variant:normal;font-weight:normal;font-stretch:normal;font-size:20px;font-family:Ubuntu;-inkscape-font-specification:Ubuntu"
           id="tspan13737">occaecat cupidatat non proident, sunt in culpa qui officia </tspan></tspan><tspan
         sodipodi:role="line"
         x="367.85715"
         y="512.96161"
         id="tspan13739"><tspan
           x="367.85715"
           y="462.96161"
           style="font-style:normal;font-variant:normal;font-weight:normal;font-stretch:normal;font-size:20px;font-family:Ubuntu;-inkscape-font-specification:Ubuntu"
           id="tspan13741">deserunt mollit anim id est laborum.</tspan><tspan
           dx="0"
           x="695.86499"
           y="462.96161"
           style="font-style:normal;font-variant:normal;font-weight:normal;font-stretch:normal;font-size:20px;font-family:Ubuntu;-inkscape-font-specification:Ubuntu"
           id="tspan13743" /></tspan><tspan
         sodipodi:role="line"
         x="367.85715"
         y="537.96161"
         id="tspan13745"><tspan
           x="367.85715"
           y="487.96161"
           style="font-style:normal;font-variant:normal;font-weight:normal;font-stretch:normal;font-size:20px;font-family:Ubuntu;-inkscape-font-specification:Ubuntu"
           id="tspan13747" /></tspan><tspan
         sodipodi:role="line"
         x="367.85715"
         y="0"
         id="tspan13749"><tspan
           x="367.85715"
           y="512.96161"
           style="font-style:normal;font-variant:normal;font-weight:normal;font-stretch:normal;font-size:20px;font-family:Ubuntu;-inkscape-font-specification:Ubuntu"
           id="tspan13751" /></tspan><tspan
         sodipodi:role="line"
         x="367.85715"
         y="0"
         id="tspan13753"><tspan
           x="367.85715"
           y="537.96161"
           style="font-style:normal;font-variant:normal;font-weight:normal;font-stretch:normal;font-size:20px;font-family:Ubuntu;-inkscape-font-specification:Ubuntu"
           id="tspan13755" /></tspan><tspan
         sodipodi:role="line"
         x="367.85715"
         y="0"
         id="tspan13757"><tspan
           x="367.85715"
           y="562.96161"
           style="font-style:normal;font-variant:normal;font-weight:normal;font-stretch:normal;font-size:20px;font-family:Ubuntu;-inkscape-font-specification:Ubuntu"
           id="tspan13759" /></tspan></text>
    <rect
       y="514.07623"
       x="45.036686"
       height="530.39227"
       width="1195.6409"
       id="rect5129"
       style="opacity:1;fill:none;fill-opacity:1;fill-rule:evenodd;stroke:#000000;stroke-width:4.35906887;stroke-linecap:round;stroke-miterlimit:4;stroke-dasharray:17.43627661, 17.43627661;stroke-dashoffset:0;stroke-opacity:0.82517479" />
    <path
       style="fill:#888888;fill-opacity:1"
       d="m 426.53114,971.33349 c -15.27318,-2.9995 -29.18187,-16.50536 -32.69614,-31.74894 -0.61609,-2.67178 -0.95115,-60.73907 -0.96602,-167.38322 -0.0251,-180.26005 -0.39188,-169.01169 5.84727,-179.39028 3.47326,-5.77774 9.63915,-11.83655 15.59993,-15.32915 9.71303,-5.69116 -4.9608,-5.34849 228.50627,-5.33633 177.90151,0.009 213.9992,0.22343 218.01871,1.2936 15.94829,4.24628 28.05098,17.13984 31.07976,33.11021 0.625,3.29535 0.9466,60.20336 0.93595,165.58327 -0.0173,175.08967 0.19805,167.85068 -5.30508,178.04407 -3.312,6.13507 -10.65589,13.50367 -16.72047,16.77697 -10.54095,5.6896 3.32093,5.3696 -228.43802,5.2728 -116.47097,-0.048 -213.60887,-0.4504 -215.86216,-0.893 z m 429.67411,-34.82623 2.61762,-2.25142 0.24096,-161.53393 0.24111,-161.53403 -2.73473,-2.73472 -2.73474,-2.7348 -211.19589,0 -211.19604,0 -2.50662,2.61655 -2.50678,2.61645 0,161.17679 0,161.17671 2.72691,2.72691 2.72676,2.72691 210.85206,0 210.85191,0 2.61747,-2.25142 z M 459.64827,903.70159 c -0.31187,-0.81289 -0.56707,-11.53969 -0.56707,-23.83733 0,-17.59598 0.28416,-22.89589 1.33441,-24.87849 1.54733,-2.92089 80.82169,-82.28077 82.19226,-82.28077 0.50367,0 9.93411,9.02566 20.95651,20.05702 11.0224,11.03139 20.45723,20.05705 20.96638,20.05705 0.509,0 30.53224,-29.59578 66.71823,-65.76845 36.18599,-36.17265 66.20986,-65.76845 66.71995,-65.76845 0.50994,0 24.9624,24.03805 54.33887,53.41787 l 53.41186,53.41787 -0.24049,58.29526 -0.24033,58.29513 -182.51175,0.23563 c -165.82525,0.21404 -182.56356,0.10019 -183.07883,-1.24234 z m 42.74392,-165.57706 c -14.14621,-1.79775 -27.67914,-10.76792 -35.7927,-23.72491 -9.50731,-15.18247 -9.19355,-37.15794 0.74667,-52.30891 9.96495,-15.18867 24.18693,-22.93424 42.11076,-22.93424 17.92382,0 32.14596,7.74557 42.11091,22.93424 10.25116,15.62508 10.26384,37.57839 0.0298,53.30906 -10.86912,16.70821 -29.35845,25.24708 -49.20632,22.72476 z"
       id="path5131"
       inkscape:connector-curvature="0" />
    <text
       xml:space="preserve"
       style="font-style:normal;font-variant:normal;font-weight:normal;font-stretch:normal;font-size:40px;line-height:125%;font-family:Ubuntu;-inkscape-font-specification:Ubuntu;letter-spacing:0px;word-spacing:0px;fill:#000000;fill-opacity:1;stroke:none;stroke-width:1px;stroke-linecap:butt;stroke-linejoin:miter;stroke-opacity:1"
       x="367.85715"
       y="1132.205"
       id="text13669"
       sodipodi:linespacing="125%"><tspan
         sodipodi:role="line"
         x="367.85715"
         y="1132.205"
         id="tspan13671"><tspan
           x="367.85715"
           y="1132.205"
           id="tspan13673">Heading 2</tspan></tspan></text>
    <text
       xml:space="preserve"
       style="font-style:normal;font-variant:normal;font-weight:normal;font-stretch:normal;font-size:40px;line-height:125%;font-family:Ubuntu;-inkscape-font-specification:Ubuntu;text-align:justify;letter-spacing:0px;word-spacing:0px;writing-mode:lr-tb;text-anchor:start;fill:#000000;fill-opacity:1;stroke:none;stroke-width:1px;stroke-linecap:butt;stroke-linejoin:miter;stroke-opacity:1"
       x="367.85715"
       y="1192.9615"
       id="text13583"
       sodipodi:linespacing="125%"><tspan
         sodipodi:role="line"
         x="373.00037"
         y="1217.9615"
         id="tspan13585"><tspan
           x="367.85715"
           y="1192.9615"
           style="font-style:normal;font-variant:normal;font-weight:normal;font-stretch:normal;font-size:20px;font-family:Ubuntu;-inkscape-font-specification:Ubuntu"
           id="tspan13587" /><tspan
           dx="0 0 0 0.53385305 0 0 0 0 0.53385687 0 0 0.53384924 0 0 0 0 0 0.5338645 0 0 0 0 0 0 0 0.53384924 0 0 0 0 0.53383398 0 0 0 0 0 0 0 0.53383398 0 0 0 0 0 0 0 0 0 0 0 0 0.5338645"
           x="373.00037"
           y="1192.9615"
           style="font-style:normal;font-variant:normal;font-weight:normal;font-stretch:normal;font-size:20px;font-family:Ubuntu;-inkscape-font-specification:Ubuntu"
           id="tspan13589">Ut enim ad minim veniam, quis nostrud exercitation ullamco </tspan></tspan><tspan
         sodipodi:role="line"
         x="367.85715"
         y="1242.9615"
         id="tspan13591"><tspan
           dx="0 0 0 0 0 0 0 0 2.4956589 0 0 0 0 2.4956589 0 0 2.4956665 0 0 0 0 0 0 0 2.4956512 0 0 2.4956665 0 0 2.4956665 0 0 0 0 0 0 0 2.495636 0 0 0 0 0 0 0 0 0 0 2.4956665 0 0 0 0 2.4956665"
           x="367.85715"
           y="1217.9615"
           style="font-style:normal;font-variant:normal;font-weight:normal;font-stretch:normal;font-size:20px;font-family:Ubuntu;-inkscape-font-specification:Ubuntu"
           id="tspan13593">laboris nisi ut aliquip ex ea commodo consequat. Duis aute </tspan></tspan><tspan
         sodipodi:role="line"
         x="367.85715"
         y="1267.9615"
         id="tspan13595"><tspan
           dx="0 0 0 0 0 0 4.8974609 0 0 0 0 0 4.8974609 0 0 4.8974609 0 0 0 0 0 0 0 0 0 0 0 0 0 4.8974609 0 0 4.8974609 0 0 0 0 0 0 0 0 0 4.8974609 0 0 0 0 0 4.8974609 0 0 0 0 4.8974609"
           x="367.85715"
           y="1242.9615"
           style="font-style:normal;font-variant:normal;font-weight:normal;font-stretch:normal;font-size:20px;font-family:Ubuntu;-inkscape-font-specification:Ubuntu"
           id="tspan13597">irure dolor in reprehenderit in voluptate velit esse cillum </tspan></tspan><tspan
         sodipodi:role="line"
         x="367.85715"
         y="1292.9615"
         id="tspan13599"><tspan
           dx="0 0 0 0 0 0 0 7.8404007 0 0 7.8404007 0 0 0 0 0 0 7.8404083 0 0 0 0 0 7.8403931 0 0 0 0 0 0 0 0 0 7.8403931 0 0 0 0 0 0 0 0 0 7.8404236 0 0 0 0 7.8403931"
           x="367.85715"
           y="1267.9615"
           style="font-style:normal;font-variant:normal;font-weight:normal;font-stretch:normal;font-size:20px;font-family:Ubuntu;-inkscape-font-specification:Ubuntu"
           id="tspan13601">dolore eu fugiat nulla pariatur. Excepteur sint occaecat </tspan></tspan><tspan
         sodipodi:role="line"
         x="367.85715"
         y="1317.9615"
         id="tspan13603"><tspan
           dx="0 0 0 0 0 0 0 0 0 0 4.4384766 0 0 0 4.4384766 0 0 0 0 0 0 0 0 0 4.4384766 0 0 0 0 4.4384766 0 0 4.4384766 0 0 0 0 0 4.4384766 0 0 0 4.4384766 0 0 0 0 0 0 0 4.4384766"
           x="367.85715"
           y="1292.9615"
           style="font-style:normal;font-variant:normal;font-weight:normal;font-stretch:normal;font-size:20px;font-family:Ubuntu;-inkscape-font-specification:Ubuntu"
           id="tspan13605">cupidatat non proident, sunt in culpa qui officia deserunt </tspan></tspan><tspan
         sodipodi:role="line"
         x="367.85715"
         y="1342.9615"
         id="tspan13607"><tspan
           x="367.85715"
           y="1317.9615"
           style="font-style:normal;font-variant:normal;font-weight:normal;font-stretch:normal;font-size:20px;font-family:Ubuntu;-inkscape-font-specification:Ubuntu"
           id="tspan13609">mollit anim id est laborum. </tspan><tspan
           dx="0"
           x="614.06812"
           y="1317.9615"
           style="font-style:normal;font-variant:normal;font-weight:normal;font-stretch:normal;font-size:20px;font-family:Ubuntu;-inkscape-font-specification:Ubuntu"
           id="tspan13611" /></tspan><tspan
         sodipodi:role="line"
         x="367.85715"
         y="1367.9615"
         id="tspan13613"><tspan
           x="367.85715"
           y="1342.9615"
           style="font-style:normal;font-variant:normal;font-weight:normal;font-stretch:normal;font-size:20px;font-family:Ubuntu;-inkscape-font-specification:Ubuntu"
           id="tspan13615" /></tspan><tspan
         sodipodi:role="line"
         x="372.79205"
         y="1417.9615"
         id="tspan13617"><tspan
           x="367.85715"
           y="1367.9615"
           style="font-style:normal;font-variant:normal;font-weight:normal;font-stretch:normal;font-size:20px;font-family:Ubuntu;-inkscape-font-specification:Ubuntu"
           id="tspan13619" /><tspan
           dx="0 0 0 0 0 0 0.32551813 0 0 0 0 0 0.32551813 0 0 0 0 0 0.3255105 0 0 0 0.3255105 0 0 0 0 0 0.32552576 0 0 0 0 0 0 0 0 0 0 0 0.32554102 0 0 0 0 0 0 0 0 0 0 0 0.32554102 0 0 0 0 0 0.3255105"
           x="372.79205"
           y="1367.9615"
           style="font-style:normal;font-variant:normal;font-weight:normal;font-stretch:normal;font-size:20px;font-family:Ubuntu;-inkscape-font-specification:Ubuntu"
           id="tspan13621">Lorem ipsum dolor sit amet, consectetur adipisicing elit, sed </tspan></tspan><tspan
         sodipodi:role="line"
         x="367.85715"
         y="1442.9615"
         id="tspan13623"><tspan
           dx="0 0 0 4.4775391 0 0 0 0 0 0 0 4.4775391 0 0 0 0 0 0 4.4775391 0 0 0 0 0 0 0 0 0 0 4.4775391 0 0 4.4775391 0 0 0 0 0 0 4.4775391 0 0 4.4775391 0 0 0 0 0 0 4.4775391"
           x="367.85715"
           y="1392.9615"
           style="font-style:normal;font-variant:normal;font-weight:normal;font-stretch:normal;font-size:20px;font-family:Ubuntu;-inkscape-font-specification:Ubuntu"
           id="tspan13625">do eiusmod tempor incididunt ut labore et dolore magna </tspan></tspan><tspan
         sodipodi:role="line"
         x="367.85715"
         y="1467.9617"
         id="tspan13627"><tspan
           dx="0 0 0 0 0 0 0 0 2.5878906 0 0 2.5878906 0 0 0 0 2.5878906 0 0 2.5878906 0 0 0 0 0 2.5878906 0 0 0 0 0 0 0 2.5878906 0 0 0 0 2.5878906 0 0 0 0 0 0 0 2.5878906"
           x="367.85715"
           y="1417.9615"
           style="font-style:normal;font-variant:normal;font-weight:normal;font-stretch:normal;font-size:20px;font-family:Ubuntu;-inkscape-font-specification:Ubuntu"
           id="tspan13629">aliqua. Ut enim ad minim veniam, quis nostrud exercitation </tspan></tspan><tspan
         sodipodi:role="line"
         x="367.85715"
         y="1492.9617"
         id="tspan13631"><tspan
           dx="0 0 0 0 0 0 0 0 4.6044922 0 0 0 0 0 0 0 4.6044922 0 0 0 0 4.6044922 0 0 4.6044922 0 0 0 0 0 0 0 4.6044922 0 0 4.6044922 0 0 4.6044922 0 0 0 0 0 0 0 4.6044922"
           x="367.85715"
           y="1442.9615"
           style="font-style:normal;font-variant:normal;font-weight:normal;font-stretch:normal;font-size:20px;font-family:Ubuntu;-inkscape-font-specification:Ubuntu"
           id="tspan13633">ullamco laboris nisi ut aliquip ex ea commodo consequat. </tspan></tspan><tspan
         sodipodi:role="line"
         x="367.85715"
         y="1517.9617"
         id="tspan13635"><tspan
           dx="0 0 0 0 0 0.88107681 0 0 0 0 0.88108063 0 0 0 0 0 0.88108826 0 0 0 0 0 0.881073 0 0 0.881073 0 0 0 0 0 0 0 0 0 0 0 0 0 0.881073 0 0 0.881073 0 0 0 0 0 0 0 0 0 0.881073 0 0 0 0 0 0.881073"
           x="367.85715"
           y="1467.9617"
           style="font-style:normal;font-variant:normal;font-weight:normal;font-stretch:normal;font-size:20px;font-family:Ubuntu;-inkscape-font-specification:Ubuntu"
           id="tspan13637">Duis aute irure dolor in reprehenderit in voluptate velit esse </tspan></tspan><tspan
         sodipodi:role="line"
         x="367.85715"
         y="1542.9617"
         id="tspan13639"><tspan
           dx="0 0 0 0 0 0 0 11.51786 0 0 0 0 0 0 11.517868 0 0 11.517853 0 0 0 0 0 0 11.517853 0 0 0 0 0 11.517853 0 0 0 0 0 0 0 0 0 11.517853 0 0 0 0 0 0 0 0 0 11.517853"
           x="367.85715"
           y="1492.9617"
           style="font-style:normal;font-variant:normal;font-weight:normal;font-stretch:normal;font-size:20px;font-family:Ubuntu;-inkscape-font-specification:Ubuntu"
           id="tspan13641">cillum dolore eu fugiat nulla pariatur. Excepteur sint </tspan></tspan><tspan
         sodipodi:role="line"
         x="367.85715"
         y="1567.9617"
         id="tspan13643"><tspan
           dx="0 0 0 0 0 0 0 0 0 4.6923828 0 0 0 0 0 0 0 0 0 4.6923828 0 0 0 4.6923828 0 0 0 0 0 0 0 0 0 4.6923828 0 0 0 0 4.6923828 0 0 4.6923828 0 0 0 0 0 4.6923828 0 0 0 4.6923828"
           x="367.85715"
           y="1517.9617"
           style="font-style:normal;font-variant:normal;font-weight:normal;font-stretch:normal;font-size:20px;font-family:Ubuntu;-inkscape-font-specification:Ubuntu"
           id="tspan13645">occaecat cupidatat non proident, sunt in culpa qui officia </tspan></tspan><tspan
         sodipodi:role="line"
         x="367.85715"
         y="1592.9617"
         id="tspan13647"><tspan
           x="367.85715"
           y="1542.9617"
           style="font-style:normal;font-variant:normal;font-weight:normal;font-stretch:normal;font-size:20px;font-family:Ubuntu;-inkscape-font-specification:Ubuntu"
           id="tspan13649">deserunt mollit anim id est laborum.</tspan><tspan
           dx="0"
           x="695.86499"
           y="1542.9617"
           style="font-style:normal;font-variant:normal;font-weight:normal;font-stretch:normal;font-size:20px;font-family:Ubuntu;-inkscape-font-specification:Ubuntu"
           id="tspan13651" /></tspan><tspan
         sodipodi:role="line"
         x="367.85715"
         y="1617.9617"
         id="tspan13653"><tspan
           x="367.85715"
           y="1567.9617"
           style="font-style:normal;font-variant:normal;font-weight:normal;font-stretch:normal;font-size:20px;font-family:Ubuntu;-inkscape-font-specification:Ubuntu"
           id="tspan13655" /></tspan><tspan
         sodipodi:role="line"
         x="367.85715"
         y="201.96318"
         id="tspan13657"><tspan
           x="367.85715"
           y="1592.9617"
           style="font-style:normal;font-variant:normal;font-weight:normal;font-stretch:normal;font-size:20px;font-family:Ubuntu;-inkscape-font-specification:Ubuntu"
           id="tspan13659" /></tspan><tspan
         sodipodi:role="line"
         x="367.85715"
         y="0.13124886"
         id="tspan13661"><tspan
           x="367.85715"
           y="1617.9617"
           style="font-style:normal;font-variant:normal;font-weight:normal;font-stretch:normal;font-size:20px;font-family:Ubuntu;-inkscape-font-specification:Ubuntu"
           id="tspan13663" /></tspan><tspan
         sodipodi:role="line"
         x="367.85715"
         y="0.13124886"
         id="tspan13665"><tspan
           x="367.85715"
           y="1642.9617"
           style="font-style:normal;font-variant:normal;font-weight:normal;font-stretch:normal;font-size:20px;font-family:Ubuntu;-inkscape-font-specification:Ubuntu"
           id="tspan13667" /></tspan></text>
    <text
       xml:space="preserve"
       style="font-style:normal;font-variant:normal;font-weight:normal;font-stretch:normal;font-size:40px;line-height:125%;font-family:Ubuntu;-inkscape-font-specification:Ubuntu;letter-spacing:0px;word-spacing:0px;fill:#000000;fill-opacity:1;stroke:none;stroke-width:1px;stroke-linecap:butt;stroke-linejoin:miter;stroke-opacity:1"
       x="367.85715"
       y="1667.5112"
       id="text5258"
       sodipodi:linespacing="125%"><tspan
         sodipodi:role="line"
         id="tspan5260"
         x="367.85715"
         y="1667.5112"
         style="font-style:normal;font-variant:normal;font-weight:normal;font-stretch:normal;font-size:30px;font-family:Ubuntu;-inkscape-font-specification:Ubuntu" /></text>
    <g
       id="contact-btn"
       transform="translate(42.85715,676.90944)">
      <g
         id="g9549"
         transform="translate(0,26.263967)">
        <rect
           ry="0.61060679"
           y="903.45929"
           x="447.44904"
           height="119.84801"
           width="305.10196"
           id="rect5991"
           style="opacity:0.69899998;fill:#333333;fill-opacity:1;fill-rule:evenodd;stroke:#f60000;stroke-width:0.15199453;stroke-linecap:round;stroke-miterlimit:4;stroke-dasharray:none;stroke-opacity:1" />
        <text
           sodipodi:linespacing="125%"
           id="text5993"
           y="955.5127"
           x="600.20953"
           style="font-style:normal;font-weight:normal;font-size:40px;line-height:125%;font-family:sans-serif;letter-spacing:0px;word-spacing:0px;fill:#000000;fill-opacity:1;stroke:none;stroke-width:1px;stroke-linecap:butt;stroke-linejoin:miter;stroke-opacity:1"
           xml:space="preserve"><tspan
             style="font-style:normal;font-variant:normal;font-weight:500;font-stretch:normal;font-size:30px;line-height:125%;font-family:Ubuntu;-inkscape-font-specification:'Ubuntu, Medium';text-align:center;letter-spacing:4px;writing-mode:lr-tb;text-anchor:middle;fill:#ffffff;fill-opacity:1"
             y="955.5127"
             x="607.69586"
             id="tspan5995"
             sodipodi:role="line">Schedule an </tspan><tspan
             id="tspan9547"
             style="font-style:normal;font-variant:normal;font-weight:500;font-stretch:normal;font-size:30px;line-height:125%;font-family:Ubuntu;-inkscape-font-specification:'Ubuntu, Medium';text-align:center;letter-spacing:4px;writing-mode:lr-tb;text-anchor:middle;fill:#ffffff;fill-opacity:1"
             y="993.0127"
             x="602.20953"
             sodipodi:role="line">Appointment</tspan></text>
      </g>
    </g>
    <path
       style="opacity:0.5;fill:#888888;fill-opacity:1"
       d="m 995.76466,889.70726 c -12.1501,-2.38617 -23.2148,-13.13039 -26.0105,-25.25701 -0.4901,-2.12547 -0.7566,-48.31934 -0.7684,-133.15724 -0.02,-143.40106 -0.3118,-134.45273 4.6516,-142.70914 2.763,-4.59632 7.6682,-9.41625 12.4101,-12.19469 7.7269,-4.52745 -3.9464,-4.25485 181.78214,-4.24518 141.5248,0.007 170.2413,0.17775 173.4389,1.02909 12.6873,3.37802 22.3152,13.63514 24.7246,26.33994 0.4972,2.62153 0.7531,47.89317 0.7447,131.72534 -0.014,139.2879 0.1575,133.52911 -4.2204,141.63819 -2.6348,4.88059 -8.477,10.74249 -13.3015,13.34647 -8.3856,4.52621 2.6419,4.27164 -181.7278,4.19464 -92.6553,-0.0382 -169.93084,-0.35831 -171.72344,-0.71041 z m 341.81594,-27.70507 2.0823,-1.79106 0.1917,-128.50399 0.1918,-128.50407 -2.1756,-2.17553 -2.1755,-2.1756 -168.0112,0 -168.01144,0 -1.9941,2.08152 -1.9942,2.08145 0,128.21988 0,128.21982 2.1694,2.16932 2.16914,2.16932 167.7378,0 167.7376,0 2.0823,-1.79106 z m -315.4703,-26.09767 c -0.2482,-0.64668 -0.4512,-9.18009 -0.4512,-18.96315 0,-13.99801 0.2261,-18.21421 1.0616,-19.79142 1.2309,-2.32363 64.2955,-65.45626 65.3858,-65.45626 0.4007,0 7.9028,7.18012 16.6714,15.95582 8.7686,8.77573 16.2742,15.95585 16.6793,15.95585 0.4049,0 24.2891,-23.54413 53.0759,-52.32033 28.7868,-28.77618 52.6715,-52.32033 53.0772,-52.32033 0.4057,0 19.8582,19.12283 43.2278,42.49516 l 42.4905,42.49516 -0.1914,46.37523 -0.1911,46.37513 -145.1924,0.18745 c -131.9178,0.17027 -145.2336,0.0797 -145.6434,-0.98831 z m 34.0037,-131.7204 c -11.2536,-1.43015 -22.0194,-8.56613 -28.4739,-18.87372 -7.5633,-12.078 -7.3137,-29.56 0.594,-41.61295 7.9273,-12.08294 19.2412,-18.24472 33.5,-18.24472 14.2588,0 25.5729,6.16178 33.5002,18.24472 8.1551,12.43012 8.1652,29.89448 0.024,42.4086 -8.6466,13.29177 -23.3553,20.08464 -39.1447,18.07807 z"
       id="path8757"
       inkscape:connector-curvature="0" />
    <path
       inkscape:connector-curvature="0"
       id="path8759"
       d="m -53.116191,889.70726 c -12.1501,-2.38617 -23.2148,-13.13039 -26.0105,-25.25701 -0.4901,-2.12547 -0.7566,-48.31934 -0.7684,-133.15724 -0.02,-143.40106 -0.3118,-134.45273 4.6516,-142.70914 2.763,-4.59632 7.6682,-9.41625 12.4101,-12.19469 7.7269,-4.52745 -3.9464,-4.25485 181.782141,-4.24518 141.5248,0.007 170.2413,0.17775 173.4389,1.02909 12.6873,3.37802 22.3152,13.63514 24.7246,26.33994 0.4972,2.62153 0.7531,47.89317 0.7447,131.72534 -0.014,139.2879 0.1575,133.52911 -4.2204,141.63819 -2.6348,4.88059 -8.477,10.74249 -13.3015,13.34647 -8.3856,4.52621 2.6419,4.27164 -181.7278,4.19464 -92.655301,-0.0382 -169.930841,-0.35831 -171.723441,-0.71041 z m 341.815941,-27.70507 2.0823,-1.79106 0.1917,-128.50399 0.1918,-128.50407 -2.1756,-2.17553 -2.1755,-2.1756 -168.0112,0 -168.011441,0 -1.9941,2.08152 -1.9942,2.08145 0,128.21988 0,128.21982 2.1694,2.16932 2.16914,2.16932 167.737801,0 167.7376,0 2.0823,-1.79106 z M -26.770551,835.90452 c -0.2482,-0.64668 -0.4512,-9.18009 -0.4512,-18.96315 0,-13.99801 0.2261,-18.21421 1.0616,-19.79142 1.2309,-2.32363 64.2955,-65.45626 65.3858,-65.45626 0.4007,0 7.9028,7.18012 16.6714,15.95582 8.7686,8.77573 16.2742,15.95585 16.6793,15.95585 0.4049,0 24.2891,-23.54413 53.075901,-52.32033 28.7868,-28.77618 52.6715,-52.32033 53.0772,-52.32033 0.4057,0 19.8582,19.12283 43.2278,42.49516 l 42.4905,42.49516 -0.1914,46.37523 -0.1911,46.37513 -145.1924,0.18745 c -131.917801,0.17027 -145.233601,0.0797 -145.643401,-0.98831 z M 7.2331483,704.18412 c -11.2536,-1.43015 -22.0193993,-8.56613 -28.4738993,-18.87372 -7.5633,-12.078 -7.3137,-29.56 0.594,-41.61295 7.9273,-12.08294 19.2411993,-18.24472 33.5,-18.24472 14.2588,0 25.5729,6.16178 33.5002,18.24472 8.1551,12.43012 8.1652,29.89448 0.024,42.4086 -8.6466,13.29177 -23.3553,20.08464 -39.1447007,18.07807 z"
       style="opacity:0.5;fill:#888888;fill-opacity:1" />
    <g
       id="g9523">
      <g
         id="g9479"
         transform="matrix(0.05763942,0,0,0.05763942,552.74256,994.00968)">
        <g
           id="g9481">
          <g
             id="g9483">
            <path
               id="path9485"
               d="M 256,48 C 141.1,48 48,141.1 48,256 48,370.9 141.1,464 256,464 370.9,464 464,370.9 464,256 464,141.1 370.9,48 256,48 Z m 0,398.7 C 150.9,446.7 65.3,361.2 65.3,256 65.3,150.9 150.8,65.3 256,65.3 c 105.1,0 190.7,85.5 190.7,190.7 0,105.1 -85.6,190.7 -190.7,190.7 z"
               inkscape:connector-curvature="0" />
          </g>
        </g>
        <g
           id="g9487">
          <g
             id="g9489">
            <path
               id="path9491"
               d="m 256,96 c -88.4,0 -160,71.6 -160,160 0,88.4 71.6,160 160,160 88.4,0 160,-71.6 160,-160 C 416,167.6 344.4,96 256,96 Z"
               inkscape:connector-curvature="0" />
          </g>
        </g>
      </g>
      <g
         transform="matrix(0.05763941,0,0,0.05763941,471.06796,994.01818)"
         id="g9493">
        <g
           id="g9495">
          <path
             inkscape:connector-curvature="0"
             d="M 256,48 C 141.1,48 48,141.1 48,256 48,370.9 141.1,464 256,464 370.9,464 464,370.9 464,256 464,141.1 370.9,48 256,48 Z m 0,398.7 C 150.9,446.7 65.3,361.2 65.3,256 65.3,150.9 150.8,65.3 256,65.3 c 105.1,0 190.7,85.5 190.7,190.7 0,105.1 -85.6,190.7 -190.7,190.7 z"
             id="path9497" />
        </g>
      </g>
      <g
         id="g9499"
         transform="matrix(0.05763941,0,0,0.05763941,552.63056,994.01818)">
        <g
           id="g9501">
          <path
             id="path9503"
             d="M 256,48 C 141.1,48 48,141.1 48,256 48,370.9 141.1,464 256,464 370.9,464 464,370.9 464,256 464,141.1 370.9,48 256,48 Z m 0,398.7 C 150.9,446.7 65.3,361.2 65.3,256 65.3,150.9 150.8,65.3 256,65.3 c 105.1,0 190.7,85.5 190.7,190.7 0,105.1 -85.6,190.7 -190.7,190.7 z"
             inkscape:connector-curvature="0" />
        </g>
      </g>
      <g
         transform="matrix(0.05763941,0,0,0.05763941,634.19296,994.01818)"
         id="g9505">
        <g
           id="g9507">
          <path
             inkscape:connector-curvature="0"
             d="M 256,48 C 141.1,48 48,141.1 48,256 48,370.9 141.1,464 256,464 370.9,464 464,370.9 464,256 464,141.1 370.9,48 256,48 Z m 0,398.7 C 150.9,446.7 65.3,361.2 65.3,256 65.3,150.9 150.8,65.3 256,65.3 c 105.1,0 190.7,85.5 190.7,190.7 0,105.1 -85.6,190.7 -190.7,190.7 z"
             id="path9509" />
        </g>
      </g>
      <g
         id="g9511"
         transform="matrix(0.05763941,0,0,0.05763941,715.75536,994.01818)">
        <g
           id="g9513">
          <path
             id="path9515"
             d="M 256,48 C 141.1,48 48,141.1 48,256 48,370.9 141.1,464 256,464 370.9,464 464,370.9 464,256 464,141.1 370.9,48 256,48 Z m 0,398.7 C 150.9,446.7 65.3,361.2 65.3,256 65.3,150.9 150.8,65.3 256,65.3 c 105.1,0 190.7,85.5 190.7,190.7 0,105.1 -85.6,190.7 -190.7,190.7 z"
             inkscape:connector-curvature="0" />
        </g>
      </g>
      <g
         transform="matrix(0.05763941,0,0,0.05763941,797.31796,994.01818)"
         id="g9517">
        <g
           id="g9519">
          <path
             inkscape:connector-curvature="0"
             d="M 256,48 C 141.1,48 48,141.1 48,256 48,370.9 141.1,464 256,464 370.9,464 464,370.9 464,256 464,141.1 370.9,48 256,48 Z m 0,398.7 C 150.9,446.7 65.3,361.2 65.3,256 65.3,150.9 150.8,65.3 256,65.3 c 105.1,0 190.7,85.5 190.7,190.7 0,105.1 -85.6,190.7 -190.7,190.7 z"
             id="path9521" />
        </g>
      </g>
    </g>
  </g>
</svg>
