<?xml version="1.0" encoding="UTF-8" standalone="no"?>
<!-- Created with Inkscape (http://www.inkscape.org/) -->

<svg
   xmlns:dc="http://purl.org/dc/elements/1.1/"
   xmlns:cc="http://creativecommons.org/ns#"
   xmlns:rdf="http://www.w3.org/1999/02/22-rdf-syntax-ns#"
   xmlns:svg="http://www.w3.org/2000/svg"
   xmlns="http://www.w3.org/2000/svg"
   xmlns:sodipodi="http://sodipodi.sourceforge.net/DTD/sodipodi-0.dtd"
   xmlns:inkscape="http://www.inkscape.org/namespaces/inkscape"
   width="105.83334mm"
   height="505.49298mm"
   viewBox="0 0 374.99998 1791.1168"
   id="svg5634"
   version="1.1"
   inkscape:version="0.91 r13725"
   sodipodi:docname="floral.svg">
  <defs
     id="defs5636">
    <clipPath
       clipPathUnits="userSpaceOnUse"
       id="clipPath5191">
      <circle
         style="opacity:1;fill:#88888f;fill-opacity:0.94117647;fill-rule:evenodd;stroke:#f60000;stroke-width:0.10166225;stroke-linecap:round;stroke-miterlimit:4;stroke-dasharray:none;stroke-opacity:1"
         id="circle5193"
         cx="1568.4784"
         cy="677.271"
         r="112.44917" />
    </clipPath>
    <clipPath
       clipPathUnits="userSpaceOnUse"
       id="clipPath4982">
      <circle
         style="opacity:1;fill:#88888f;fill-opacity:0.94117647;fill-rule:evenodd;stroke:#f60000;stroke-width:0.10166225;stroke-linecap:round;stroke-miterlimit:4;stroke-dasharray:none;stroke-opacity:1"
         id="circle4984"
         cx="1568.4784"
         cy="677.271"
         r="112.44917" />
    </clipPath>
    <clipPath
       clipPathUnits="userSpaceOnUse"
       id="clipPath4986">
      <circle
         style="opacity:1;fill:#88888f;fill-opacity:0.94117647;fill-rule:evenodd;stroke:#f60000;stroke-width:0.10166225;stroke-linecap:round;stroke-miterlimit:4;stroke-dasharray:none;stroke-opacity:1"
         id="circle4988"
         cx="1568.4784"
         cy="677.271"
         r="112.44917" />
    </clipPath>
  </defs>
  <sodipodi:namedview
     id="base"
     pagecolor="#ffffff"
     bordercolor="#666666"
     borderopacity="1.0"
     inkscape:pageopacity="0.0"
     inkscape:pageshadow="2"
     inkscape:zoom="0.49497475"
     inkscape:cx="-570.52321"
     inkscape:cy="1437.0403"
     inkscape:document-units="px"
     inkscape:current-layer="layer1"
     showgrid="false"
     fit-margin-top="0"
     fit-margin-left="0"
     fit-margin-right="0"
     fit-margin-bottom="0"
     inkscape:window-width="1920"
     inkscape:window-height="1056"
     inkscape:window-x="0"
     inkscape:window-y="24"
     inkscape:window-maximized="1"
     showguides="true"
     inkscape:guide-bbox="true"
     inkscape:snap-bbox="true"
     inkscape:bbox-paths="true"
     inkscape:bbox-nodes="true"
     inkscape:snap-bbox-edge-midpoints="true"
     inkscape:snap-bbox-midpoints="true">
    <sodipodi:guide
       position="19.999983,1379.9289"
       orientation="1,0"
       id="guide5610"
       inkscape:label=""
       inkscape:color="rgb(0,0,255)" />
    <sodipodi:guide
       position="354.99996,1085.9745"
       orientation="1,0"
       id="guide5612"
       inkscape:label=""
       inkscape:color="rgb(0,0,255)" />
  </sodipodi:namedview>
  <metadata
     id="metadata5639">
    <rdf:RDF>
      <cc:Work
         rdf:about="">
        <dc:format>image/svg+xml</dc:format>
        <dc:type
           rdf:resource="http://purl.org/dc/dcmitype/StillImage" />
        <dc:title></dc:title>
      </cc:Work>
    </rdf:RDF>
  </metadata>
  <g
     inkscape:label="Layer 1"
     inkscape:groupmode="layer"
     id="layer1"
     transform="translate(-15.357158,298.35217)">
    <rect
       ry="2.9564962"
       y="-298.35217"
       x="15.357142"
       height="1791.1168"
       width="375"
       id="rect4185"
       style="opacity:1;fill:#f2f2f2;fill-opacity:1;fill-rule:evenodd;stroke:none;stroke-width:0.31001684;stroke-linecap:round;stroke-miterlimit:4;stroke-dasharray:none;stroke-opacity:1" />
    <rect
       style="opacity:1;fill:#cccccf;fill-opacity:0.94117647;fill-rule:evenodd;stroke:#000000;stroke-width:1.43428481;stroke-linecap:round;stroke-miterlimit:4;stroke-dasharray:5.73713988, 5.73713988;stroke-dashoffset:0;stroke-opacity:0.82517479"
       id="rect5621"
       width="333.5657"
       height="205.82584"
       x="36.074272"
       y="-274.52374" />
    <path
       inkscape:connector-curvature="0"
       id="path4144"
       d="m 123.77784,-96.293966 c -5.77666,-1.13456 -11.03733,-6.242884 -12.36651,-12.008424 -0.23297,-1.01042 -0.35971,-22.97307 -0.36533,-63.30856 -0.0112,-68.17878 -0.14821,-63.92445 2.21156,-67.84989 1.31368,-2.18531 3.64575,-4.47685 5.90029,-5.79787 3.67373,-2.15241 -1.8763,-2.02286 86.42681,-2.01827 67.28683,0 80.93986,0.0843 82.46016,0.4892 6.03203,1.60615 10.60961,6.48283 11.75517,12.52321 0.23635,1.24635 0.35801,22.77044 0.35399,62.62773 -0.006,66.22329 0.0749,63.48532 -2.00653,67.34069 -1.25272,2.32044 -4.0303,5.107454 -6.32409,6.345544 -3.98685,2.15198 1.25606,2.031 -86.40105,1.99425 -44.05218,-0.0186 -80.79219,-0.17031 -81.64447,-0.33761 z m 162.51355,-13.172284 0.99005,-0.85154 0.0911,-61.09624 0.0913,-61.09611 -1.03433,-1.03444 -1.03436,-1.03432 -79.8796,0 -79.8796,0 -0.94812,0.98956 -0.9481,0.98968 0,60.9611 0,60.96112 1.0314,1.03131 1.03133,1.03143 79.74956,0 79.74947,0 0.98999,-0.85155 z m -149.98782,-12.40796 c -0.11793,-0.30745 -0.2145,-4.36458 -0.2145,-9.01589 0,-6.65525 0.10755,-8.65981 0.50473,-9.40955 0.58522,-1.1048 30.56881,-31.12066 31.08716,-31.12066 0.19051,0 3.75734,3.41362 7.92632,7.58602 4.16894,4.17226 7.73742,7.58606 7.92998,7.58606 0.19253,0 11.5481,-11.1939 25.23452,-24.87525 13.68647,-13.68148 25.04227,-24.87524 25.23514,-24.87524 0.19287,0 9.44143,9.09169 20.55234,20.20391 l 20.2017,20.20394 -0.091,22.04874 -0.0908,22.04874 -69.03055,0.0886 c -62.71929,0.0815 -69.05014,0.0386 -69.24506,-0.46991 z m 16.1668,-62.62531 c -5.35039,-0.68009 -10.46889,-4.07272 -13.53768,-8.97341 -3.59587,-5.74237 -3.47721,-14.05401 0.28242,-19.78451 3.76897,-5.74481 9.1481,-8.67441 15.92739,-8.67441 6.77922,0 12.15835,2.9296 15.92738,8.67441 3.87724,5.90968 3.88204,14.21301 0.012,20.16275 -4.11095,6.31951 -11.10411,9.54912 -18.61108,8.59517 z"
       style="fill:#888888;fill-opacity:1" />
    <rect
       style="opacity:1;fill:#f2f2f2;fill-opacity:1;fill-rule:evenodd;stroke:#f60000;stroke-width:0.05921717;stroke-linecap:round;stroke-miterlimit:4;stroke-dasharray:none;stroke-opacity:1"
       id="rect4823"
       width="325.69443"
       height="103.63006"
       x="42.750557"
       y="-53.176598"
       ry="0.18603431" />
    <text
       xml:space="preserve"
       style="font-style:normal;font-variant:normal;font-weight:normal;font-stretch:normal;font-size:23.68686867px;line-height:125%;font-family:Ubuntu;-inkscape-font-specification:Ubuntu;text-align:center;letter-spacing:0px;word-spacing:0px;text-anchor:middle;fill:#000000;fill-opacity:1;stroke:none;stroke-width:1px;stroke-linecap:butt;stroke-linejoin:miter;stroke-opacity:1"
       x="206.77609"
       y="-17.151251"
       id="text6112"
       sodipodi:linespacing="125%"><tspan
         sodipodi:role="line"
         x="206.77609"
         y="-17.151251"
         id="tspan6114"><tspan
           x="206.77609"
           y="-17.151251"
           style="font-style:normal;font-variant:normal;font-weight:normal;font-stretch:normal;font-size:35.53030396px;font-family:Ubuntu;-inkscape-font-specification:Ubuntu"
           id="tspan6116">Floral Design</tspan></tspan></text>
    <text
       xml:space="preserve"
       style="font-style:italic;font-variant:normal;font-weight:normal;font-stretch:normal;font-size:29.58863068px;line-height:125%;font-family:sans-serif;-inkscape-font-specification:'sans-serif Italic';text-align:center;letter-spacing:0px;word-spacing:0px;text-anchor:middle;fill:#000000;fill-opacity:1;stroke:none;stroke-width:1px;stroke-linecap:butt;stroke-linejoin:miter;stroke-opacity:1"
       x="-311.15997"
       y="12.565587"
       id="text6118"
       sodipodi:linespacing="125%"
       transform="scale(0.47031648,2.1262278)"><tspan
         sodipodi:role="line"
         x="150.86256"
         y="26.435369"
         id="tspan6124"
         style="font-size:18.73736191px;text-align:start;text-anchor:start"><tspan
           x="150.86256"
           y="26.435369"
           style="font-size:18.73736191px;text-align:start;text-anchor:start"
           id="tspan6126"> </tspan></tspan></text>
    <text
       xml:space="preserve"
       style="font-style:normal;font-variant:normal;font-weight:normal;font-stretch:normal;font-size:23.68686867px;line-height:125%;font-family:Ubuntu;-inkscape-font-specification:Ubuntu;letter-spacing:0px;word-spacing:0px;fill:#000000;fill-opacity:1;stroke:none;stroke-width:1px;stroke-linecap:butt;stroke-linejoin:miter;stroke-opacity:1"
       x="42.750557"
       y="89.274475"
       id="text6106"
       sodipodi:linespacing="125%"><tspan
         sodipodi:role="line"
         x="42.750557"
         y="89.274475"
         id="tspan6108"><tspan
           x="42.750557"
           y="89.274475"
           id="tspan6110">Heading 1</tspan></tspan></text>
    <text
       xml:space="preserve"
       style="font-style:normal;font-variant:normal;font-weight:normal;font-stretch:normal;font-size:23.68686867px;line-height:125%;font-family:Ubuntu;-inkscape-font-specification:Ubuntu;letter-spacing:0px;word-spacing:0px;fill:#000000;fill-opacity:1;stroke:none;stroke-width:1px;stroke-linecap:butt;stroke-linejoin:miter;stroke-opacity:1"
       x="42.750557"
       y="847.15283"
       id="text6242"
       sodipodi:linespacing="125%"><tspan
         sodipodi:role="line"
         x="42.750557"
         y="847.15283"
         id="tspan6244"><tspan
           x="42.750557"
           y="847.15283"
           id="tspan6246">Heading 2</tspan></tspan></text>
    <g
       id="g5989"
       transform="matrix(0.59217173,0,0,0.59217173,-149.70526,811.0404)">
      <rect
         style="opacity:0.69899998;fill:#333333;fill-opacity:1;fill-rule:evenodd;stroke:#f60000;stroke-width:0.12938932;stroke-linecap:round;stroke-miterlimit:4;stroke-dasharray:none;stroke-opacity:1"
         id="rect5991"
         width="256.63724"
         height="103.25166"
         x="471.6814"
         y="961.6814"
         ry="0.52605098" />
      <text
         xml:space="preserve"
         style="font-style:normal;font-weight:normal;font-size:40px;line-height:125%;font-family:sans-serif;letter-spacing:0px;word-spacing:0px;fill:#000000;fill-opacity:1;stroke:none;stroke-width:1px;stroke-linecap:butt;stroke-linejoin:miter;stroke-opacity:1"
         x="600.20953"
         y="1004"
         id="text5993"
         sodipodi:linespacing="125%"><tspan
           sodipodi:role="line"
           id="tspan5995"
           x="602.20953"
           y="1004"
           style="font-style:normal;font-variant:normal;font-weight:500;font-stretch:normal;font-size:30px;line-height:125%;font-family:Ubuntu;-inkscape-font-specification:'Ubuntu, Medium';text-align:center;letter-spacing:4px;writing-mode:lr-tb;text-anchor:middle;fill:#ffffff;fill-opacity:1">Schedule an</tspan><tspan
           sodipodi:role="line"
           x="602.20953"
           y="1041.5"
           style="font-style:normal;font-variant:normal;font-weight:500;font-stretch:normal;font-size:30px;line-height:125%;font-family:Ubuntu;-inkscape-font-specification:'Ubuntu, Medium';text-align:center;letter-spacing:4px;writing-mode:lr-tb;text-anchor:middle;fill:#ffffff;fill-opacity:1"
           id="tspan7806">Appointment</tspan></text>
    </g>
    <flowRoot
       xml:space="preserve"
       id="flowRoot5567"
       style="font-style:normal;font-weight:normal;font-size:40px;line-height:125%;font-family:sans-serif;letter-spacing:0px;word-spacing:0px;fill:#000000;fill-opacity:1;stroke:none;stroke-width:1px;stroke-linecap:butt;stroke-linejoin:miter;stroke-opacity:1"
       transform="translate(15.357127,-298.35214)"><flowRegion
         id="flowRegion5569"><rect
           id="rect5571"
           width="0"
           height="47.477169"
           x="24.243662"
           y="308.15225" /></flowRegion><flowPara
         id="flowPara5573"></flowPara></flowRoot>    <rect
       style="opacity:1;fill:#f2f2f2;fill-opacity:1;fill-rule:evenodd;stroke:none;stroke-width:0.1;stroke-linecap:round;stroke-miterlimit:4;stroke-dasharray:none;stroke-opacity:1"
       id="rect5588"
       width="326.27927"
       height="67.680222"
       x="41.621094"
       y="-8.3826275"
       ry="0.18603399" />
    <rect
       style="opacity:1;fill:#f2f2f2;fill-opacity:1;fill-rule:evenodd;stroke:none;stroke-width:0.1;stroke-linecap:round;stroke-miterlimit:4;stroke-dasharray:none;stroke-opacity:1"
       id="rect5614"
       width="335"
       height="476.15768"
       x="35.357128"
       y="115.86612"
       ry="6.0444851" />
    <text
       xml:space="preserve"
       style="font-style:normal;font-variant:normal;font-weight:normal;font-stretch:normal;font-size:17.5px;line-height:125%;font-family:Ubuntu;-inkscape-font-specification:'Ubuntu, Normal';text-align:justify;letter-spacing:0px;word-spacing:0px;writing-mode:lr-tb;text-anchor:start;fill:#000000;fill-opacity:1;stroke:none;stroke-width:1px;stroke-linecap:butt;stroke-linejoin:miter;stroke-opacity:1"
       x="36.821266"
       y="133.60892"
       id="text5772"
       sodipodi:linespacing="125%"><tspan
         sodipodi:role="line"
         x="36.821266"
         y="133.60892"
         id="tspan5774"><tspan
           x="36.821266"
           y="133.60892"
           id="tspan5776">	</tspan><tspan
           dx="2.9465494 0 0 2.9465513 0 0 0 0 2.9465475 0 0 2.9465475 0 0 0 0 0 2.9465475 0 0 0 0 0 0 0 2.9465475 0 0 0 0 2.9465628"
           id="tspan5778">Ut enim ad minim veniam, quis nostrud </tspan></tspan><tspan
         sodipodi:role="line"
         x="35.357422"
         y="155.48392"
         id="tspan5780"><tspan
           dx="0 0 0 0 0 0 0 0 0 0 0 0 0 0.39957428 0 0 0 0 0 0 0 0 0.39958191 0 0 0 0 0 0 0 0.39958191 0 0 0 0 0.39958191 0 0 0.39956665"
           x="35.357422"
           id="tspan5782">exercitation ullamco  laboris nisi ut aliquip </tspan></tspan><tspan
         sodipodi:role="line"
         x="35.357422"
         y="177.35892"
         id="tspan5784"><tspan
           dx="0 0 0 6.0620117 0 0 6.0620117 0 0 0 0 0 0 0 6.0620117 0 0 0 0 0 0 0 0 0 0 6.0620117 0 0 0 0 6.0620117"
           x="35.357422"
           id="tspan5786">ex ea commodo consequat. Duis aute  </tspan></tspan><tspan
         sodipodi:role="line"
         x="35.357422"
         y="199.23392"
         id="tspan5788"><tspan
           dx="0 0 0 0 0 0 3.4257812 0 0 0 0 0 3.4257812 0 0 3.4257812 0 0 0 0 0 0 0 0 0 0 0 0 0 3.4257812 0 0 3.4257812"
           x="35.357422"
           id="tspan5790">irure dolor in reprehenderit in voluptate </tspan></tspan><tspan
         sodipodi:role="line"
         x="35.357422"
         y="221.10892"
         id="tspan5792"><tspan
           dx="0 0 0 0 0 0 4.4733543 0 0 0 0 4.4733582 0 0 0 0 0 0 0 4.4733582 0 0 0 0 0 0 4.4733582 0 0 4.4733429 0 0 0 0 0 0 4.4733582"
           x="35.357422"
           id="tspan5794">velit esse cillum  dolore eu fugiat nulla </tspan></tspan><tspan
         sodipodi:role="line"
         x="35.357422"
         y="242.98392"
         id="tspan5796"><tspan
           dx="0 0 0 0 0 0 0 0 0 0 18.082275 0 0 0 0 0 0 0 0 0 18.082275 0 0 0 0 18.082275"
           x="35.357422"
           id="tspan5798">pariatur. Excepteur sint occaecat  </tspan></tspan><tspan
         sodipodi:role="line"
         x="35.357422"
         y="264.85892"
         id="tspan5800"><tspan
           dx="0 0 0 0 0 0 0 0 0 0 2.4275742 0 0 0 2.4275665 0 0 0 0 0 0 0 0 0 2.4275665 0 0 0 0 2.4275665 0 0 2.4275665 0 0 0 0 0 2.4275818"
           x="35.357422"
           id="tspan5802">cupidatat non proident, sunt in culpa qui </tspan></tspan><tspan
         sodipodi:role="line"
         x="35.357422"
         y="286.73392"
         id="tspan5804"><tspan
           dx="0 0 0 0 0 0 0 0 10.767418 0 0 0 0 0 0 0 0 0 10.76741 0 0 0 0 0 0 10.76741 0 0 0 0 10.767395 0 0 10.767426"
           x="35.357422"
           id="tspan5806">officia deserunt  mollit anim id est </tspan></tspan><tspan
         sodipodi:role="line"
         x="35.357422"
         y="308.60892"
         id="tspan5808"><tspan
           x="35.357422"
           id="tspan5810">laborum. </tspan><tspan
           dx="4.0332031"
           id="tspan5812" /></tspan><tspan
         sodipodi:role="line"
         x="35.357422"
         y="330.48392"
         id="tspan5814"><tspan
           x="35.357422"
           id="tspan5816">	</tspan><tspan
           dx="1.7496743 0 0 0 0 0 1.7496772 0 0 0 0 0 1.7496772 0 0 0 0 0 1.7496848 0 0 0 1.7496848 0 0 0 0 0 1.7496696"
           id="tspan5818">Lorem ipsum dolor sit amet, consectetur </tspan></tspan><tspan
         sodipodi:role="line"
         x="35.357422"
         y="352.35892"
         id="tspan5820"><tspan
           dx="0 0 0 0 0 0 0 0 0 0 0 0 3.5270157 0 0 0 0 0 3.5270157 0 0 0 0 3.5270233 0 0 3.5270081 0 0 0 0 0 0 0 3.5270081"
           x="35.357422"
           id="tspan5822">adipisicing elit, sed  do eiusmod tempor </tspan></tspan><tspan
         sodipodi:role="line"
         x="35.357422"
         y="374.23392"
         id="tspan5824"><tspan
           dx="0 0 0 0 0 0 0 0 0 0 0 6.7854843 0 0 6.7854767 0 0 0 0 0 0 6.7854767 0 0 6.7854767 0 0 0 0 0 0 6.7854614"
           x="35.357422"
           id="tspan5826">incididunt ut labore et dolore magna  </tspan></tspan><tspan
         sodipodi:role="line"
         x="35.357422"
         y="396.10892"
         id="tspan5828"><tspan
           dx="0 0 0 0 0 0 0 0 6.2955742 0 0 6.295578 0 0 0 0 6.295578 0 0 6.295578 0 0 0 0 0 6.2955627 0 0 0 0 0 0 0 6.2955627"
           x="35.357422"
           id="tspan5830">aliqua. Ut enim ad minim veniam, quis </tspan></tspan><tspan
         sodipodi:role="line"
         x="35.357422"
         y="417.98392"
         id="tspan5832"><tspan
           dx="0 0 0 0 0 0 0 0 2.9335938 0 0 0 0 0 0 0 0 0 0 0 0 0 2.9335938 0 0 0 0 0 0 0 2.9335938 0 0 0 0 0 0 0 2.9335938"
           x="35.357422"
           id="tspan5834">nostrud exercitation  ullamco laboris nisi </tspan></tspan><tspan
         sodipodi:role="line"
         x="35.357422"
         y="439.85892"
         id="tspan5836"><tspan
           dx="0 0 0 6.0620117 0 0 0 0 0 0 0 6.0620117 0 0 6.0620117 0 0 6.0620117 0 0 0 0 0 0 0 6.0620117"
           x="35.357422"
           id="tspan5838">ut aliquip ex ea commodo consequat.  </tspan></tspan><tspan
         sodipodi:role="line"
         x="35.357422"
         y="461.73392"
         id="tspan5840"><tspan
           dx="0 0 0 0 0 3.2250977 0 0 0 0 3.2250977 0 0 0 0 0 3.2250977 0 0 0 0 0 3.2250977 0 0 3.2250977 0 0 0 0 0 0 0 0 0 0 0 0 0 3.2250977"
           x="35.357422"
           id="tspan5842">Duis aute irure dolor in reprehenderit in </tspan></tspan><tspan
         sodipodi:role="line"
         x="35.357422"
         y="483.60892"
         id="tspan5844"><tspan
           dx="0 0 0 0 0 0 0 0 0 0 7.4747696 0 0 0 0 0 7.4747696 0 0 0 0 0 7.4747772 0 0 0 0 0 0 7.474762 0 0 0 0 0 0 7.474762"
           x="35.357422"
           id="tspan5846">voluptate velit esse  cillum dolore eu </tspan></tspan><tspan
         sodipodi:role="line"
         x="35.357422"
         y="505.48392"
         id="tspan5848"><tspan
           dx="0 0 0 0 0 0 0 10.350586 0 0 0 0 0 10.350586 0 0 0 0 0 0 0 0 0 10.350586 0 0 0 0 0 0 0 0 0 10.350586"
           x="35.357422"
           id="tspan5850">fugiat nulla pariatur. Excepteur sint  </tspan></tspan><tspan
         sodipodi:role="line"
         x="35.357422"
         y="527.35889"
         id="tspan5852"><tspan
           dx="0 0 0 0 0 0 0 0 0 3.2070312 0 0 0 0 0 0 0 0 0 3.2070312 0 0 0 3.2070312 0 0 0 0 0 0 0 0 0 3.2070312 0 0 0 0 3.2070312"
           x="35.357422"
           id="tspan5854">occaecat cupidatat non proident, sunt in </tspan></tspan><tspan
         sodipodi:role="line"
         x="35.357422"
         y="549.23389"
         id="tspan5856"><tspan
           dx="0 0 0 0 0 0 2.5641747 0 0 0 2.5641785 0 0 0 0 0 0 0 0 2.5641785 0 0 0 0 0 0 0 0 2.5641785 0 0 0 0 0 0 2.5641785 0 0 0 0 2.5641785"
           x="35.357422"
           id="tspan5858">culpa qui officia  deserunt mollit anim id </tspan></tspan><tspan
         sodipodi:role="line"
         x="35.357422"
         y="571.10889"
         id="tspan5860"><tspan
           x="35.357422"
           id="tspan5862">est laborum.</tspan></tspan></text>
    <rect
       style="opacity:1;fill:#f2f2f2;fill-opacity:1;fill-rule:evenodd;stroke:none;stroke-width:0.1;stroke-linecap:round;stroke-miterlimit:4;stroke-dasharray:none;stroke-opacity:1"
       id="rect5880"
       width="335"
       height="70.714287"
       x="35.357128"
       y="-3.3520179"
       ry="4.7406201" />
    <text
       xml:space="preserve"
       style="font-style:normal;font-weight:normal;font-size:40px;line-height:125%;font-family:sans-serif;letter-spacing:0px;word-spacing:0px;fill:#000000;fill-opacity:1;stroke:none;stroke-width:1px;stroke-linecap:butt;stroke-linejoin:miter;stroke-opacity:1"
       x="38.970085"
       y="11.857315"
       id="text6004"
       sodipodi:linespacing="125%"><tspan
         sodipodi:role="line"
         x="38.970085"
         y="11.857315"
         id="tspan6006"
         style="text-align:start;text-anchor:start"><tspan
           x="38.970085"
           y="11.857315"
           style="font-style:italic;font-variant:normal;font-weight:300;font-stretch:normal;font-size:15px;font-family:Ubuntu;-inkscape-font-specification:'Ubuntu Light Italic';text-align:start;text-anchor:start"
           id="tspan6008">Lorem ipsum dolor sit amet, consectetur adipisicing  </tspan></tspan><tspan
         sodipodi:role="line"
         x="39.908203"
         y="30.607315"
         id="tspan6010"
         style="text-align:start;text-anchor:start"><tspan
           x="39.908203"
           style="font-style:italic;font-variant:normal;font-weight:300;font-stretch:normal;font-size:15px;font-family:Ubuntu;-inkscape-font-specification:'Ubuntu Light Italic';text-align:start;text-anchor:start"
           id="tspan6012">elit, sed do eiusmod  tempor incididunt ut labore et  </tspan></tspan><tspan
         sodipodi:role="line"
         x="135.78223"
         y="49.357315"
         id="tspan6014"
         style="text-align:start;text-anchor:start"><tspan
           x="135.78223"
           style="font-style:italic;font-variant:normal;font-weight:300;font-stretch:normal;font-size:15px;font-family:Ubuntu;-inkscape-font-specification:'Ubuntu Light Italic';text-align:start;text-anchor:start"
           id="tspan6016">dolore magna aliqua.</tspan></tspan></text>
    <rect
       style="opacity:1;fill:#f2f2f2;fill-opacity:1;fill-rule:evenodd;stroke:none;stroke-width:0.1;stroke-linecap:round;stroke-miterlimit:4;stroke-dasharray:none;stroke-opacity:1"
       id="rect5896"
       width="335"
       height="485.00006"
       x="35.357128"
       y="864.36182"
       ry="4.3853965" />
    <text
       xml:space="preserve"
       style="font-style:normal;font-variant:normal;font-weight:normal;font-stretch:normal;font-size:17.5px;line-height:125%;font-family:Ubuntu;-inkscape-font-specification:'Ubuntu, Normal';text-align:justify;letter-spacing:0px;word-spacing:0px;writing-mode:lr-tb;text-anchor:start;fill:#000000;fill-opacity:1;stroke:none;stroke-width:1px;stroke-linecap:butt;stroke-linejoin:miter;stroke-opacity:1"
       x="35.993237"
       y="882.10547"
       id="text5912"
       sodipodi:linespacing="125%"><tspan
         sodipodi:role="line"
         x="35.993237"
         y="882.10547"
         id="tspan5914"><tspan
           x="35.993237"
           y="882.10547"
           id="tspan5916">	</tspan><tspan
           dx="3.1830907 0 0 3.1830897 0 0 0 0 3.1830897 0 0 3.1830897 0 0 0 0 0 3.1830897 0 0 0 0 0 0 0 3.1830897 0 0 0 0 3.1830897"
           id="tspan5918">Ut enim ad minim veniam, quis nostrud </tspan></tspan><tspan
         sodipodi:role="line"
         x="35.357422"
         y="903.98047"
         id="tspan5920"><tspan
           dx="0 0 0 0 0 0 0 0 0 0 0 0 0 0.39957428 0 0 0 0 0 0 0 0 0.39958191 0 0 0 0 0 0 0 0.39958191 0 0 0 0 0.39958191 0 0 0.39956665"
           x="35.357422"
           id="tspan5922">exercitation ullamco  laboris nisi ut aliquip </tspan></tspan><tspan
         sodipodi:role="line"
         x="35.357422"
         y="925.85547"
         id="tspan5924"><tspan
           dx="0 0 0 6.0620117 0 0 6.0620117 0 0 0 0 0 0 0 6.0620117 0 0 0 0 0 0 0 0 0 0 6.0620117 0 0 0 0 6.0620117"
           x="35.357422"
           id="tspan5926">ex ea commodo consequat. Duis aute  </tspan></tspan><tspan
         sodipodi:role="line"
         x="35.357422"
         y="947.73047"
         id="tspan5928"><tspan
           dx="0 0 0 0 0 0 3.4257812 0 0 0 0 0 3.4257812 0 0 3.4257812 0 0 0 0 0 0 0 0 0 0 0 0 0 3.4257812 0 0 3.4257812"
           x="35.357422"
           id="tspan5930">irure dolor in reprehenderit in voluptate </tspan></tspan><tspan
         sodipodi:role="line"
         x="35.357422"
         y="969.60547"
         id="tspan5932"><tspan
           dx="0 0 0 0 0 0 4.4733543 0 0 0 0 4.4733582 0 0 0 0 0 0 0 4.4733582 0 0 0 0 0 0 4.4733582 0 0 4.4733429 0 0 0 0 0 0 4.4733582"
           x="35.357422"
           id="tspan5934">velit esse cillum  dolore eu fugiat nulla </tspan></tspan><tspan
         sodipodi:role="line"
         x="35.357422"
         y="991.48047"
         id="tspan5936"><tspan
           dx="0 0 0 0 0 0 0 0 0 0 18.082275 0 0 0 0 0 0 0 0 0 18.082275 0 0 0 0 18.082275"
           x="35.357422"
           id="tspan5938">pariatur. Excepteur sint occaecat  </tspan></tspan><tspan
         sodipodi:role="line"
         x="35.357422"
         y="1013.3555"
         id="tspan5940"><tspan
           dx="0 0 0 0 0 0 0 0 0 0 2.4275742 0 0 0 2.4275665 0 0 0 0 0 0 0 0 0 2.4275665 0 0 0 0 2.4275665 0 0 2.4275665 0 0 0 0 0 2.4275818"
           x="35.357422"
           id="tspan5942">cupidatat non proident, sunt in culpa qui </tspan></tspan><tspan
         sodipodi:role="line"
         x="35.357422"
         y="1035.2305"
         id="tspan5944"><tspan
           dx="0 0 0 0 0 0 0 0 10.767418 0 0 0 0 0 0 0 0 0 10.76741 0 0 0 0 0 0 10.76741 0 0 0 0 10.767395 0 0 10.767426"
           x="35.357422"
           id="tspan5946">officia deserunt  mollit anim id est </tspan></tspan><tspan
         sodipodi:role="line"
         x="35.357422"
         y="1057.1055"
         id="tspan5948"><tspan
           x="35.357422"
           id="tspan5950">laborum.  </tspan><tspan
           dx="4.0332031"
           id="tspan5952" /></tspan><tspan
         sodipodi:role="line"
         x="35.357422"
         y="1078.9805"
         id="tspan5954"><tspan
           x="35.357422"
           id="tspan5956">	</tspan><tspan
           dx="1.7496743 0 0 0 0 0 1.7496772 0 0 0 0 0 1.7496772 0 0 0 0 0 1.7496848 0 0 0 1.7496848 0 0 0 0 0 1.7496696"
           id="tspan5958">Lorem ipsum dolor sit amet, consectetur </tspan></tspan><tspan
         sodipodi:role="line"
         x="35.357422"
         y="1100.8555"
         id="tspan5960"><tspan
           dx="0 0 0 0 0 0 0 0 0 0 0 0 3.5270157 0 0 0 0 0 3.5270157 0 0 0 0 3.5270233 0 0 3.5270081 0 0 0 0 0 0 0 3.5270081"
           x="35.357422"
           id="tspan5962">adipisicing elit, sed  do eiusmod tempor </tspan></tspan><tspan
         sodipodi:role="line"
         x="35.357422"
         y="1122.7305"
         id="tspan5964"><tspan
           dx="0 0 0 0 0 0 0 0 0 0 0 6.7854843 0 0 6.7854767 0 0 0 0 0 0 6.7854767 0 0 6.7854767 0 0 0 0 0 0 6.7854614"
           x="35.357422"
           id="tspan5966">incididunt ut labore et dolore magna  </tspan></tspan><tspan
         sodipodi:role="line"
         x="35.357422"
         y="1144.6055"
         id="tspan5968"><tspan
           dx="0 0 0 0 0 0 0 0 6.2955742 0 0 6.295578 0 0 0 0 6.295578 0 0 6.295578 0 0 0 0 0 6.2955627 0 0 0 0 0 0 0 6.2955627"
           x="35.357422"
           id="tspan5970">aliqua. Ut enim ad minim veniam, quis </tspan></tspan><tspan
         sodipodi:role="line"
         x="35.357422"
         y="1166.4805"
         id="tspan5972"><tspan
           dx="0 0 0 0 0 0 0 0 2.9335938 0 0 0 0 0 0 0 0 0 0 0 0 0 2.9335938 0 0 0 0 0 0 0 2.9335938 0 0 0 0 0 0 0 2.9335938"
           x="35.357422"
           id="tspan5974">nostrud exercitation  ullamco laboris nisi </tspan></tspan><tspan
         sodipodi:role="line"
         x="35.357422"
         y="1188.3555"
         id="tspan5976"><tspan
           dx="0 0 0 6.0620117 0 0 0 0 0 0 0 6.0620117 0 0 6.0620117 0 0 6.0620117 0 0 0 0 0 0 0 6.0620117"
           x="35.357422"
           id="tspan5978">ut aliquip ex ea commodo consequat.  </tspan></tspan><tspan
         sodipodi:role="line"
         x="35.357422"
         y="1210.2305"
         id="tspan5980"><tspan
           dx="0 0 0 0 0 3.2250977 0 0 0 0 3.2250977 0 0 0 0 0 3.2250977 0 0 0 0 0 3.2250977 0 0 3.2250977 0 0 0 0 0 0 0 0 0 0 0 0 0 3.2250977"
           x="35.357422"
           id="tspan5982">Duis aute irure dolor in reprehenderit in </tspan></tspan><tspan
         sodipodi:role="line"
         x="35.357422"
         y="1232.1055"
         id="tspan5984"><tspan
           dx="0 0 0 0 0 0 0 0 0 0 7.4747696 0 0 0 0 0 7.4747696 0 0 0 0 0 7.4747772 0 0 0 0 0 0 7.474762 0 0 0 0 0 0 7.474762"
           x="35.357422"
           id="tspan5986">voluptate velit esse  cillum dolore eu </tspan></tspan><tspan
         sodipodi:role="line"
         x="35.357422"
         y="1253.9805"
         id="tspan5988"><tspan
           dx="0 0 0 0 0 0 0 10.350586 0 0 0 0 0 10.350586 0 0 0 0 0 0 0 0 0 10.350586 0 0 0 0 0 0 0 0 0 10.350586"
           x="35.357422"
           id="tspan5990">fugiat nulla pariatur. Excepteur sint  </tspan></tspan><tspan
         sodipodi:role="line"
         x="35.357422"
         y="1275.8555"
         id="tspan5992"><tspan
           dx="0 0 0 0 0 0 0 0 0 3.2070312 0 0 0 0 0 0 0 0 0 3.2070312 0 0 0 3.2070312 0 0 0 0 0 0 0 0 0 3.2070312 0 0 0 0 3.2070312"
           x="35.357422"
           id="tspan5994">occaecat cupidatat non proident, sunt in </tspan></tspan><tspan
         sodipodi:role="line"
         x="35.357422"
         y="1297.7305"
         id="tspan5996"><tspan
           dx="0 0 0 0 0 0 2.5641747 0 0 0 2.5641785 0 0 0 0 0 0 0 0 2.5641785 0 0 0 0 0 0 0 0 2.5641785 0 0 0 0 0 0 2.5641785 0 0 0 0 2.5641785"
           x="35.357422"
           id="tspan5998">culpa qui officia  deserunt mollit anim id </tspan></tspan><tspan
         sodipodi:role="line"
         x="35.357422"
         y="1319.6055"
         id="tspan6000"><tspan
           x="35.357422"
           id="tspan6002">est laborum.</tspan></tspan></text>
    <rect
       y="592.79718"
       x="16.130463"
       height="213.77269"
       width="373.45337"
       id="rect5129-9"
       style="opacity:1;fill:none;fill-opacity:1;fill-rule:evenodd;stroke:#000000;stroke-width:1.54663944;stroke-linecap:round;stroke-miterlimit:4;stroke-dasharray:6.18655787, 6.18655787;stroke-dashoffset:0;stroke-opacity:0.82517479" />
    <path
       style="fill:#888888;fill-opacity:1"
       d="m 115.52748,777.0175 c -6.14979,-1.20775 -11.75017,-6.64593 -13.1652,-12.7838 -0.24808,-1.07581 -0.38299,-24.45678 -0.38897,-67.39739 -0.0101,-72.58228 -0.1578,-68.05309 2.35442,-72.23206 1.39851,-2.32643 3.88123,-4.76603 6.28136,-6.17233 3.91098,-2.29157 -1.99748,-2.15359 92.00877,-2.1487 71.63261,0.003 86.16746,0.09 87.78593,0.52088 6.42163,1.70978 11.29481,6.90141 12.51436,13.33193 0.25166,1.32688 0.38115,24.24107 0.37686,66.67263 -0.007,70.50041 0.0797,67.58561 -2.1361,71.69001 -1.33359,2.4703 -4.29063,5.43729 -6.73255,6.7553 -4.24435,2.29093 1.33718,2.16208 -91.9813,2.1231 -46.8974,-0.0193 -86.01028,-0.18135 -86.91758,-0.35957 z m 173.00965,-14.02288 1.05398,-0.90655 0.097,-65.04215 0.0971,-65.04218 -1.10114,-1.10115 -1.10116,-1.10117 -85.03869,0 -85.03876,0 -1.00929,1.05356 -1.00937,1.05352 0,64.89835 0,64.89831 1.098,1.098 1.09794,1.098 84.90025,0 84.90019,0 1.05394,-0.90654 z M 128.8622,749.78531 c -0.12558,-0.32732 -0.22833,-4.6465 -0.22833,-9.59818 0,-7.08508 0.11441,-9.2191 0.5373,-10.0174 0.62304,-1.17611 32.54311,-33.13062 33.09498,-33.13062 0.2028,0 4,3.63422 8.4382,8.07603 4.43821,4.44182 8.23717,8.07603 8.44218,8.07603 0.20495,0 12.2939,-11.91683 26.8643,-26.48187 14.57041,-14.56504 26.65961,-26.48187 26.86501,-26.48187 0.20532,0 10.05119,9.67899 21.87971,21.50887 l 21.50646,21.50887 -0.0968,23.47278 -0.0968,23.47272 -73.48893,0.0949 c -66.77006,0.0862 -73.5098,0.0403 -73.71727,-0.50023 z m 17.21098,-66.67013 c -5.69602,-0.72387 -11.1451,-4.33573 -14.41205,-9.55291 -3.82815,-6.11327 -3.70181,-14.96176 0.30065,-21.06235 4.01242,-6.11577 9.73894,-9.23454 16.95603,-9.23454 7.21709,0 12.94367,3.11877 16.95609,9.23454 4.12766,6.29149 4.13277,15.13106 0.012,21.46506 -4.37649,6.72762 -11.82127,10.16582 -19.81308,9.1502 z"
       id="path5131-4"
       inkscape:connector-curvature="0" />
    <path
       style="opacity:0.5;fill:#888888;fill-opacity:1"
       d="m 344.73115,744.15044 c -4.89228,-0.96079 -9.34752,-5.28699 -10.47322,-10.16981 -0.19734,-0.85582 -0.30464,-19.45593 -0.3094,-53.61618 -0.008,-57.74089 -0.12554,-54.13782 1.87299,-57.46229 1.11253,-1.85072 3.08762,-3.79148 4.99696,-4.91023 3.11126,-1.82299 -1.58902,-1.71323 73.19514,-1.70933 56.98541,0.003 68.5482,0.0716 69.83572,0.41436 5.10859,1.36017 8.98529,5.49023 9.95544,10.60586 0.2002,1.05557 0.30324,19.28434 0.29986,53.03963 -0.005,56.08471 0.0634,53.76592 -1.69936,57.03106 -1.06091,1.96519 -3.41329,4.3255 -5.35589,5.374 -3.37649,1.8225 1.06377,1.71999 -73.17328,1.68898 -37.30794,-0.0154 -68.42317,-0.14427 -69.14496,-0.28605 z m 137.63325,-11.15552 0.83844,-0.72119 0.0772,-51.74253 0.0772,-51.74257 -0.87601,-0.87599 -0.87597,-0.87601 -67.65025,0 -67.65032,0 -0.80293,0.83813 -0.80297,0.83811 0,51.62813 0,51.62812 0.87352,0.87348 0.8734,0.87349 67.54015,0 67.54008,0 0.83844,-0.72117 z M 355.33928,722.4866 c -0.0999,-0.26038 -0.18168,-3.69639 -0.18168,-7.63557 0,-5.63634 0.091,-7.33401 0.42746,-7.96908 0.49563,-0.93561 25.88879,-26.35617 26.3278,-26.35617 0.16135,0 3.18209,2.8911 6.71279,6.42467 3.53071,3.53357 6.55286,6.42466 6.71598,6.42466 0.16303,0 9.78008,-9.48011 21.37117,-21.06694 11.5911,-11.58682 21.20835,-21.06695 21.37171,-21.06695 0.16335,0 7.99596,7.69987 17.40581,17.11082 l 17.10894,17.11081 -0.0771,18.67313 -0.077,18.67309 -58.46218,0.0755 c -53.11712,0.0686 -58.47877,0.0321 -58.64378,-0.39795 z m 13.6917,-53.03763 c -4.53129,-0.57586 -8.86618,-3.44919 -11.46511,-7.59957 -3.04538,-4.86324 -2.94488,-11.90242 0.23918,-16.75558 3.19196,-4.86524 7.74753,-7.3463 13.48888,-7.3463 5.74135,0 10.29701,2.48106 13.48897,7.3463 3.28367,5.00502 3.28774,12.03711 0.01,17.07596 -3.48158,5.35197 -9.40409,8.08714 -15.76174,7.27919 z"
       id="path8757"
       inkscape:connector-curvature="0" />
    <path
       inkscape:connector-curvature="0"
       id="path8759"
       d="m -77.604038,744.15044 c -4.892276,-0.96079 -9.347509,-5.28699 -10.473206,-10.16981 -0.19734,-0.85582 -0.304647,-19.45593 -0.309399,-53.61618 -0.0081,-57.74089 -0.125547,-54.13782 1.872982,-57.46229 1.11253,-1.85072 3.087621,-3.79148 4.996962,-4.91023 3.111261,-1.82299 -1.58903,-1.71323 73.1951553,-1.70933 56.9854047,0.003 68.5481917,0.0716 69.8357217,0.41436 5.10858,1.36017 8.98528,5.49023 9.95544,10.60586 0.2002,1.05557 0.30323,19.28434 0.29985,53.03963 -0.005,56.08471 0.0634,53.76592 -1.69936,57.03106 -1.0609,1.96519 -3.41329,4.3255 -5.35589,5.374 -3.37648,1.8225 1.06378,1.71999 -73.1732687,1.68898 -37.3079503,-0.0154 -68.4231913,-0.14427 -69.1449873,-0.28605 z m 137.633266,-11.15552 0.83845,-0.72119 0.0772,-51.74253 0.0772,-51.74257 -0.87602,-0.87599 -0.87597,-0.87601 -67.6502377,0 -67.6503393,0 -0.802931,0.83813 -0.802971,0.83811 0,51.62813 0,51.62812 0.873516,0.87348 0.873411,0.87349 67.5401574,0 67.5400746,0 0.83844,-0.72117 z M -66.995882,722.4866 c -0.09994,-0.26038 -0.181678,-3.69639 -0.181678,-7.63557 0,-5.63634 0.09104,-7.33401 0.427457,-7.96908 0.495626,-0.93561 25.888787,-26.35617 26.3278,-26.35617 0.161343,0 3.182087,2.8911 6.712792,6.42467 3.530704,3.53357 6.552858,6.42466 6.715972,6.42466 0.163035,0 9.780083,-9.48011 21.3711803,-21.06694 11.5910961,-11.58682 21.2083457,-21.06695 21.3717017,-21.06695 0.163356,0 7.995966,7.69987 17.40581,17.11082 l 17.108938,17.11081 -0.07707,18.67313 -0.07694,18.67309 -58.4621816,0.0755 c -53.1171204,0.0686 -58.4787694,0.0321 -58.6437764,-0.39795 z m 13.691697,-53.03763 c -4.531298,-0.57586 -8.866181,-3.44919 -11.465106,-7.59957 -3.045387,-4.86324 -2.944884,-11.90242 0.239176,-16.75558 3.191953,-4.86524 7.74753,-7.3463 13.488882,-7.3463 5.741351,0 10.297008,2.48106 13.488961,7.3463 3.283677,5.00502 3.287744,12.03711 0.0097,17.07596 -3.481581,5.35197 -9.404085,8.08714 -15.761737,7.27919 z"
       style="opacity:0.5;fill:#888888;fill-opacity:1" />
    <g
       transform="matrix(0.40265317,0,0,0.40265317,-56.216632,385.90701)"
       id="g9523">
      <g
         id="g9479"
         transform="matrix(0.05763942,0,0,0.05763942,552.74256,994.00968)">
        <g
           id="g9481">
          <g
             id="g9483">
            <path
               id="path9485"
               d="M 256,48 C 141.1,48 48,141.1 48,256 48,370.9 141.1,464 256,464 370.9,464 464,370.9 464,256 464,141.1 370.9,48 256,48 Z m 0,398.7 C 150.9,446.7 65.3,361.2 65.3,256 65.3,150.9 150.8,65.3 256,65.3 c 105.1,0 190.7,85.5 190.7,190.7 0,105.1 -85.6,190.7 -190.7,190.7 z"
               inkscape:connector-curvature="0" />
          </g>
        </g>
        <g
           id="g9487">
          <g
             id="g9489">
            <path
               id="path9491"
               d="m 256,96 c -88.4,0 -160,71.6 -160,160 0,88.4 71.6,160 160,160 88.4,0 160,-71.6 160,-160 C 416,167.6 344.4,96 256,96 Z"
               inkscape:connector-curvature="0" />
          </g>
        </g>
      </g>
      <g
         transform="matrix(0.05763941,0,0,0.05763941,471.06796,994.01818)"
         id="g9493">
        <g
           id="g9495">
          <path
             inkscape:connector-curvature="0"
             d="M 256,48 C 141.1,48 48,141.1 48,256 48,370.9 141.1,464 256,464 370.9,464 464,370.9 464,256 464,141.1 370.9,48 256,48 Z m 0,398.7 C 150.9,446.7 65.3,361.2 65.3,256 65.3,150.9 150.8,65.3 256,65.3 c 105.1,0 190.7,85.5 190.7,190.7 0,105.1 -85.6,190.7 -190.7,190.7 z"
             id="path9497" />
        </g>
      </g>
      <g
         id="g9499"
         transform="matrix(0.05763941,0,0,0.05763941,552.63056,994.01818)">
        <g
           id="g9501">
          <path
             id="path9503"
             d="M 256,48 C 141.1,48 48,141.1 48,256 48,370.9 141.1,464 256,464 370.9,464 464,370.9 464,256 464,141.1 370.9,48 256,48 Z m 0,398.7 C 150.9,446.7 65.3,361.2 65.3,256 65.3,150.9 150.8,65.3 256,65.3 c 105.1,0 190.7,85.5 190.7,190.7 0,105.1 -85.6,190.7 -190.7,190.7 z"
             inkscape:connector-curvature="0" />
        </g>
      </g>
      <g
         transform="matrix(0.05763941,0,0,0.05763941,634.19296,994.01818)"
         id="g9505">
        <g
           id="g9507">
          <path
             inkscape:connector-curvature="0"
             d="M 256,48 C 141.1,48 48,141.1 48,256 48,370.9 141.1,464 256,464 370.9,464 464,370.9 464,256 464,141.1 370.9,48 256,48 Z m 0,398.7 C 150.9,446.7 65.3,361.2 65.3,256 65.3,150.9 150.8,65.3 256,65.3 c 105.1,0 190.7,85.5 190.7,190.7 0,105.1 -85.6,190.7 -190.7,190.7 z"
             id="path9509" />
        </g>
      </g>
      <g
         id="g9511"
         transform="matrix(0.05763941,0,0,0.05763941,715.75536,994.01818)">
        <g
           id="g9513">
          <path
             id="path9515"
             d="M 256,48 C 141.1,48 48,141.1 48,256 48,370.9 141.1,464 256,464 370.9,464 464,370.9 464,256 464,141.1 370.9,48 256,48 Z m 0,398.7 C 150.9,446.7 65.3,361.2 65.3,256 65.3,150.9 150.8,65.3 256,65.3 c 105.1,0 190.7,85.5 190.7,190.7 0,105.1 -85.6,190.7 -190.7,190.7 z"
             inkscape:connector-curvature="0" />
        </g>
      </g>
      <g
         transform="matrix(0.05763941,0,0,0.05763941,797.31796,994.01818)"
         id="g9517">
        <g
           id="g9519">
          <path
             inkscape:connector-curvature="0"
             d="M 256,48 C 141.1,48 48,141.1 48,256 48,370.9 141.1,464 256,464 370.9,464 464,370.9 464,256 464,141.1 370.9,48 256,48 Z m 0,398.7 C 150.9,446.7 65.3,361.2 65.3,256 65.3,150.9 150.8,65.3 256,65.3 c 105.1,0 190.7,85.5 190.7,190.7 0,105.1 -85.6,190.7 -190.7,190.7 z"
             id="path9521" />
        </g>
      </g>
    </g>
  </g>
</svg>
