<?xml version="1.0" encoding="UTF-8" standalone="no"?>
<!-- Created with Inkscape (http://www.inkscape.org/) -->

<svg
   xmlns:dc="http://purl.org/dc/elements/1.1/"
   xmlns:cc="http://creativecommons.org/ns#"
   xmlns:rdf="http://www.w3.org/1999/02/22-rdf-syntax-ns#"
   xmlns:svg="http://www.w3.org/2000/svg"
   xmlns="http://www.w3.org/2000/svg"
   xmlns:sodipodi="http://sodipodi.sourceforge.net/DTD/sodipodi-0.dtd"
   xmlns:inkscape="http://www.inkscape.org/namespaces/inkscape"
   width="106.00938mm"
   height="107.13049mm"
   viewBox="0 0 375.62378 379.59621"
   id="svg4954"
   version="1.1"
   inkscape:version="0.91 r13725"
   sodipodi:docname="menu.svg">
  <defs
     id="defs4956" />
  <sodipodi:namedview
     id="base"
     pagecolor="#ffffff"
     bordercolor="#666666"
     borderopacity="1.0"
     inkscape:pageopacity="0.0"
     inkscape:pageshadow="2"
     inkscape:zoom="1.4"
     inkscape:cx="31.779002"
     inkscape:cy="327.47493"
     inkscape:document-units="px"
     inkscape:current-layer="layer1"
     showgrid="false"
     fit-margin-top="0"
     fit-margin-left="0"
     fit-margin-right="0"
     fit-margin-bottom="0"
     inkscape:window-width="1920"
     inkscape:window-height="1056"
     inkscape:window-x="0"
     inkscape:window-y="24"
     inkscape:window-maximized="1" />
  <metadata
     id="metadata4959">
    <rdf:RDF>
      <cc:Work
         rdf:about="">
        <dc:format>image/svg+xml</dc:format>
        <dc:type
           rdf:resource="http://purl.org/dc/dcmitype/StillImage" />
        <dc:title />
      </cc:Work>
    </rdf:RDF>
  </metadata>
  <g
     inkscape:label="Layer 1"
     inkscape:groupmode="layer"
     id="layer1"
     transform="translate(24.954747,-139.70696)">
    <g
       id="menu-closed"
       transform="translate(-24.855346,-168.65504)">
      <g
         id="g4808">
        <rect
           style="opacity:1;fill:#f2f2f2;fill-opacity:1;fill-rule:evenodd;stroke:none;stroke-width:0.30377078;stroke-linecap:round;stroke-miterlimit:4;stroke-dasharray:none;stroke-opacity:1"
           id="rect4631"
           width="375"
           height="77.000008"
           x="-0.0010012342"
           y="308.362"
           ry="0.30201751" />
        <g
           id="g4633"
           transform="matrix(0.32246322,0,0,0.32264719,157.03036,305.14188)">
          <path
             style="fill:#050505"
             d="m 554.97337,212.9784 c -1.08797,-0.16629 -2.82329,-0.64719 -3.18554,-0.8828 -0.63468,-0.41282 -2.26857,-2.02395 -2.63346,-2.59682 -0.7045,-1.10605 -0.72076,-1.36491 -0.81082,-12.90344 l -0.085,-10.89292 -1.26835,0 -1.26835,0 -0.0746,4.32732 -0.0746,4.32732 -21.18895,0 -21.18895,0 -0.0746,-4.40192 -0.0746,-4.40195 -1.4922,0 -1.49217,0 -0.0813,12.01206 c -0.0555,8.20879 -0.13426,12.19378 -0.24867,12.58604 -0.19485,0.66805 -0.67325,1.22363 -1.30923,1.52052 -0.24745,0.11551 -1.38627,0.41334 -2.53072,0.66184 l -2.08082,0.45184 -6.34301,0 -6.34302,0 -1.43497,-0.44873 c -1.0488,-0.32796 -1.55264,-0.57154 -1.8722,-0.90504 l -0.43724,-0.4563 -0.0746,-11.29355 c -0.041,-6.21144 -0.041,-20.97977 0,-32.81849 l 0.0746,-21.52497 0.6237,-0.72405 c 0.65994,-0.76612 2.87484,-2.13906 4.52827,-2.80691 2.04233,-0.82492 3.15604,-1.0098 6.11399,-1.01489 2.4116,-0.004 2.93028,0.0389 4.1035,0.34134 1.80953,0.46633 4.37793,1.73734 5.63233,2.78723 l 1.00658,0.84249 0.038,16.73895 0.038,16.73896 1.34295,0 1.34298,0 0.0746,-51.70405 0.0746,-51.704031 23.42722,0 23.42721,0 0,2.83514 0,2.83514 -21.33816,0.0746 -21.33817,0.0746 0,48.794281 0,48.7943 0.67148,0 0.67148,0 0.0788,-13.80267 0.0788,-13.80267 0.41658,-1.19375 c 0.65465,-1.876 0.9163,-2.32159 1.97141,-3.3574 0.54339,-0.53346 1.03229,-1.07802 1.08642,-1.21015 0.14072,-0.3434 3.57478,-3.41065 4.03826,-3.6069 0.21314,-0.0902 0.52181,-0.27315 0.68595,-0.40645 0.16413,-0.13327 0.60059,-0.36824 0.96991,-0.52211 1.07325,-0.44716 1.04454,-0.38382 1.04454,-2.30424 l 0,-1.74616 -0.839,-0.9588 c -1.30277,-1.48881 -2.59307,-3.14571 -2.59261,-3.32924 2.4e-4,-0.0914 -0.13014,-0.43485 -0.28972,-0.76313 -0.57083,-1.17432 -1.08182,-2.57998 -1.25283,-3.4464 l -0.17387,-0.88093 -0.59687,-0.0349 c -1.04319,-0.061 -3.26382,-0.50652 -3.80256,-0.76278 -0.39868,-0.18966 -0.54451,-0.36889 -0.62594,-0.7693 -0.0584,-0.28713 -0.1741,-0.82421 -0.25713,-1.19352 -0.0831,-0.36932 -0.15388,-1.43464 -0.15745,-2.36737 l -0.006,-1.69589 0.53351,-0.48868 c 0.29344,-0.26877 0.72898,-0.52777 0.96789,-0.57555 0.2389,-0.0478 1.08998,-0.51214 1.89128,-1.0319 l 1.4569,-0.94503 -0.0746,-2.14335 c -0.0791,-2.27161 -0.22027,-2.65403 -0.65679,-1.77897 -0.13118,0.26296 -0.23852,0.56216 -0.23852,0.6649 0,0.10273 -0.2425,0.47702 -0.53889,0.83178 -0.29639,0.35476 -0.59689,0.79758 -0.66778,0.98404 -0.11024,0.28992 -0.23654,0.33903 -0.87211,0.33903 l -0.7432,0 -0.60345,-1.03327 c -0.3319,-0.56829 -0.60345,-1.12722 -0.60345,-1.24208 0,-0.36847 0.95076,-1.5607 1.75569,-2.20162 0.42956,-0.34199 0.79109,-0.68327 0.80339,-0.75835 0.0804,-0.49019 0.0369,-0.50958 -1.14152,-0.50958 l -1.19374,0 -0.0466,-0.7362 c -0.0847,-1.33898 -0.053,-1.37384 1.42579,-1.56621 1.68607,-0.21931 2.69695,-0.54168 3.20926,-1.02341 0.5361,-0.50411 0.51758,-0.62846 -0.0936,-0.62846 -0.2772,0 -0.58148,-0.0934 -0.67619,-0.20748 -0.0947,-0.1141 -0.50403,-0.35022 -0.90964,-0.52472 -0.40559,-0.17447 -0.81065,-0.45402 -0.90013,-0.62121 -0.0895,-0.16717 -0.3572,-0.42226 -0.59494,-0.56683 -0.94007,-0.57168 -1.09167,-0.94517 -1.09624,-2.70059 -0.004,-1.54927 0.0105,-1.6211 0.46908,-2.313381 0.66113,-0.9981 1.04345,-1.16454 2.50637,-1.09111 1.00505,0.0504 1.2887,0.12385 1.71601,0.44403 0.28156,0.21097 0.73221,0.49502 1.00143,0.63122 0.36524,0.18477 0.60199,0.49322 0.93261,1.215101 0.24371,0.53211 0.44312,1.03913 0.44312,1.12671 0,0.0876 0.13429,0.32999 0.29844,0.53866 0.16414,0.20867 0.29842,0.56356 0.29842,0.78865 0,0.2251 0.0956,0.4886 0.21245,0.58559 0.17305,0.14362 0.30448,0.0454 0.70879,-0.5296 0.27298,-0.38825 0.86307,-1.08049 1.31129,-1.53831 0.81854,-0.83606 1.06205,-1.15581 1.3331,-1.750521 0.0806,-0.17669 0.21346,-0.36267 0.2954,-0.41331 0.44598,-0.27563 0.67413,-1.11998 0.76922,-2.84668 0.10381,-1.8852 0.1511,-2.0293 1.49375,-4.55114 0.15292,-0.28725 0.28128,-0.63457 0.28521,-0.77182 0.0223,-0.77862 3.29815,-2.6602 4.63132,-2.6602 0.33995,0 0.74072,-0.0656 0.89058,-0.14583 0.37534,-0.20087 5.67851,-0.2198 6.29901,-0.0225 0.27321,0.0869 0.68538,0.19615 0.91592,0.24281 0.23055,0.0467 0.72305,0.36495 1.09447,0.70732 0.73276,0.67541 1.99299,2.26126 1.99299,2.5079 0,0.084 0.10585,0.31438 0.23524,0.51185 0.35608,0.54343 0.64881,1.9643 0.65475,3.17808 0.005,1.01398 0.0295,1.09473 0.37283,1.22525 0.20213,0.0768 0.5298,0.39683 0.72817,0.71104 0.88213,1.39739 2.78397,2.660571 2.78397,1.84909 0,-0.15242 0.34192,-0.61904 0.7598,-1.03694 0.98623,-0.98621 2.19496,-1.42408 4.00749,-1.45175 1.16071,-0.0178 1.31158,0.0151 1.90254,0.41393 0.35302,0.23826 0.64186,0.50917 0.64186,0.60203 0,0.0928 0.21331,0.38893 0.47401,0.65792 0.53812,0.55517 0.69076,1.26054 0.70884,3.275521 l 0.0109,1.21369 -0.589,0.50232 c -0.92239,0.78666 -1.3758,1.10658 -2.0649,1.45697 -0.3517,0.17884 -0.59954,0.38972 -0.55076,0.46864 0.0487,0.0789 0.80655,0.14398 1.68397,0.14457 0.8774,10e-4 2.05467,0.0445 2.61613,0.0975 1.26245,0.1192 1.40164,0.31891 1.20167,1.72413 l -0.13346,0.93789 -1.86159,0 c -1.65254,0 -1.86742,0.0293 -1.91339,0.26071 -0.0329,0.16563 0.0779,0.31002 0.30404,0.39597 0.19571,0.0744 0.56521,0.37376 0.82112,0.66523 0.42519,0.48425 0.45138,0.57231 0.30389,1.02158 -0.0887,0.27041 -0.18119,0.57167 -0.20538,0.66949 -0.0921,0.3726 -0.84525,0.70606 -1.5276,0.67637 -0.53408,-0.0232 -0.77971,-0.12835 -1.15895,-0.49593 -0.2647,-0.25655 -0.54692,-0.42586 -0.62717,-0.37624 -0.0803,0.0496 -0.19428,0.76556 -0.25335,1.59102 -0.13378,1.86908 -0.25792,1.99124 -2.03406,2.00144 -0.64508,0.004 -1.17306,0.0454 -1.17329,0.0927 0,0.0473 0.16525,0.24152 0.3677,0.43172 0.35137,0.33008 0.4413,0.34195 1.97715,0.26085 1.93296,-0.10205 2.81245,-0.36227 3.95851,-1.17121 0.30734,-0.21697 0.78013,-0.43599 1.05061,-0.48672 0.37561,-0.0705 0.69051,-0.33554 1.33316,-1.1222 1.56059,-1.91026 1.60963,-2.02475 2.05046,-4.78775 0.072,-0.4514 0.17592,-1.77288 0.2309,-2.93663 0.055,-1.16375 0.15345,-2.35298 0.21879,-2.64272 0.0983,-0.43565 0.0572,-0.61032 -0.23718,-1.00935 -0.47589,-0.64503 -0.50646,-1.756121 -0.0516,-1.875061 0.40796,-0.10669 0.74013,-0.78781 0.74013,-1.51765 0,-0.3275 0.0682,-0.6376 0.15147,-0.68908 0.23847,-0.14739 0.5838,-1.08311 0.56513,-1.53132 -0.048,-1.15188 0.17442,-2.47239 0.46931,-2.78627 0.16844,-0.1793 0.30626,-0.40228 0.30626,-0.4955 0,-0.0932 0.0887,-0.22318 0.19718,-0.28882 0.48749,-0.29501 0.84733,-1.45816 0.84779,-2.74046 0,-1.25202 0.45972,-4.08206 0.74314,-4.5792 0.0818,-0.1433 0.37721,-0.97398 0.65668,-1.84594 0.27946,-0.87195 0.78377,-2.10862 1.12071,-2.74813 0.33693,-0.63951 0.6126,-1.22157 0.6126,-1.29347 0,-0.20688 1.71117,-2.48582 2.65126,-3.53095 3.82816,-4.25589 6.74197,-6.02441 10.99221,-6.67163 2.34259,-0.35673 4.52783,-0.20557 7.7693,0.53747 1.27248,0.29169 4.16589,1.23786 4.4137,1.44331 0.12957,0.10743 0.32215,0.19532 0.42795,0.19532 0.10581,0 0.42181,0.20145 0.70222,0.44766 0.28042,0.24621 0.57914,0.44765 0.66385,0.44765 0.0846,0 0.37406,0.16787 0.64305,0.37305 0.269,0.20517 0.53493,0.37304 0.59095,0.37304 0.056,0 0.34486,0.21823 0.64185,0.48497 1.77378,1.59302 2.44353,2.28838 2.67189,2.77398 0.14125,0.30038 0.61606,1.08788 1.05514,1.75001 0.43909,0.66215 0.79834,1.33547 0.79834,1.49629 0,0.16081 0.093,0.42512 0.2066,0.58736 0.11364,0.16224 0.35523,0.86544 0.53684,1.56269 0.18163,0.69724 0.46634,1.56986 0.63273,1.93918 0.64804,1.43854 0.77218,6.13125 0.24869,9.40075 -0.37943,2.36961 -0.76804,4.28752 -0.95239,4.70035 -0.10997,0.24621 -0.34876,0.91769 -0.53066,1.49219 -0.52105,1.645511 -2.05496,4.505071 -2.83637,5.287611 -2.80408,2.80817 -4.04337,3.90392 -4.81409,4.25644 -0.45563,0.20842 -0.93581,0.37894 -1.06708,0.37894 -0.13125,0 -0.40044,0.10602 -0.59819,0.2356 -0.2772,0.18161 -0.55135,0.21163 -1.19679,0.13099 -0.72346,-0.0904 -0.8817,-0.0632 -1.16466,0.20011 -0.1801,0.16759 -0.5289,0.32688 -0.77512,0.35397 -0.78392,0.0862 -0.68195,0.66921 0.83071,4.74961 0.7454,2.01071 1.67828,4.56234 2.07306,5.67029 1.37082,3.84717 1.63294,4.49092 2.01218,4.9416 0.20971,0.24924 0.38128,0.5276 0.38128,0.61859 0,0.091 0.1428,0.31746 0.31733,0.50323 0.32903,0.35025 0.28985,0.86292 -0.0591,0.77434 -0.10474,-0.0266 -1.19188,-1.10775 -2.41586,-2.40259 -1.75911,-1.86096 -2.2621,-2.31432 -2.40051,-2.16367 -0.0963,0.10482 -0.32795,1.60071 -0.51477,3.32418 -0.18683,1.72347 -0.40824,3.22038 -0.49207,3.3265 -0.0838,0.1061 -0.24743,0.17325 -0.36361,0.14922 -0.12075,-0.025 -0.9637,-1.84704 -1.96774,-4.25328 -0.96609,-2.31526 -1.82584,-4.29614 -1.91058,-4.40194 -0.0847,-0.1058 -0.20009,-0.36023 -0.25633,-0.5654 -0.0563,-0.20518 -0.1598,-0.50734 -0.23013,-0.67148 -0.0703,-0.16414 -0.89584,-2.14502 -1.83441,-4.40193 -0.96504,-2.32053 -1.79708,-4.12138 -1.91495,-4.14464 -0.13466,-0.0266 -0.58918,0.71278 -1.28421,2.08906 -0.59167,1.1716 -1.17533,2.29805 -1.29701,2.50323 -0.45792,0.77219 -5.84362,11.28243 -6.07646,11.85828 -0.16228,0.40136 -0.336,0.60144 -0.52226,0.60144 -0.26184,0 -0.28158,-0.18204 -0.31953,-2.94707 -0.0271,-1.97997 -0.0932,-2.94706 -0.20112,-2.94706 -0.0884,0 -1.03119,0.72185 -2.09519,1.60409 -2.52336,2.09233 -2.43213,2.03035 -2.63266,1.7887 -0.11917,-0.14356 -0.10733,-0.29482 0.0442,-0.56346 0.40156,-0.71228 0.68666,-1.41038 0.84897,-2.07886 0.0902,-0.37171 0.24818,-0.77659 0.35093,-0.89969 0.37091,-0.44437 7.08281,-12.89907 7.08281,-13.14299 0,-0.32462 -0.19729,-0.46664 -1.19995,-0.86379 -0.96398,-0.38185 -3.12166,-2.19807 -3.99388,-3.36188 -0.31384,-0.41873 -0.85629,-1.28172 -1.20547,-1.91776 -1.03941,-1.89333 -1.17525,-1.60775 -0.93367,1.96296 0.15232,2.25156 0.14426,2.86988 -0.0565,4.3415 -0.12879,0.94381 -0.28258,2.1189 -0.34175,2.61132 -0.0591,0.49241 -0.17113,0.99597 -0.24881,1.11897 -0.0777,0.12303 -0.18555,0.59307 -0.23968,1.04453 -0.15521,1.29432 -1.18991,3.24008 -2.36317,4.44399 -1.05959,1.08726 -2.01722,1.82997 -2.84669,2.20781 -0.28725,0.13084 -0.85801,0.56215 -1.26837,0.95845 -0.78938,0.76234 -1.44582,1.1627 -3.92187,2.3919 -1.53177,0.76045 -1.53421,0.76254 -1.44549,1.23668 0.0489,0.26121 0.0121,0.77711 -0.0817,1.14642 -0.0938,0.36931 -0.33389,1.44368 -0.53351,2.38749 -0.38462,1.81855 -0.74377,2.85694 -1.43732,4.1554 -0.90041,1.68579 -2.6205,3.70067 -3.67682,4.30692 -1.40309,0.80528 -1.96905,1.26675 -2.26491,1.84667 -0.32339,0.63389 -0.28493,0.88236 0.13658,0.88236 0.25885,0 0.91455,0.74209 0.91455,1.03505 0,0.0835 0.16787,0.26182 0.37305,0.39625 0.20517,0.13444 0.37305,0.32571 0.37305,0.42508 0,0.0994 0.16787,0.33835 0.37304,0.53111 0.20517,0.19276 0.37305,0.46097 0.37305,0.59602 0,0.13507 0.21822,0.50967 0.48495,0.83248 0.64794,0.78412 1.15644,1.5162 1.15644,1.66487 0,0.14391 0.55333,0.71895 0.95995,0.99761 0.28116,0.1927 0.2906,0.59736 0.37305,15.99681 l 0.0845,15.79914 1.56679,0 1.56679,0 0.0746,-16.2804 0.0746,-16.28038 0.8621,-0.98191 c 0.90008,-1.02513 2.15937,-2.0458 2.52407,-2.0458 0.11694,0 0.59454,-0.22997 1.06132,-0.51107 0.4668,-0.28108 1.43649,-0.68398 2.1549,-0.89534 1.24499,-0.36628 1.47513,-0.38427 4.91343,-0.38424 3.13897,3e-5 3.78791,0.0411 4.9988,0.31652 2.46907,0.56159 6.05083,2.26837 6.78301,3.23225 0.15876,0.20898 0.1956,6.35722 0.19946,33.28506 0.005,32.4745 -1.1e-4,33.03559 -0.28529,33.43606 -0.15951,0.22403 -1.01565,0.83873 -1.90253,1.36601 l -1.61249,0.95869 -1.86522,0.0507 c -3.37017,0.0916 -11.4058,0.13741 -11.86283,0.0676 z m -62.25171,-3.04802 c 0.12428,-0.19727 -0.10873,-0.54512 -1.2211,-1.82291 -0.75607,-0.86851 -1.45171,-1.62671 -1.54585,-1.6849 -0.0941,-0.0581 -0.24246,0.013 -0.32961,0.15806 -0.20073,0.33424 -1.1631,1.60134 -1.98665,2.61576 -0.34896,0.42982 -0.59588,0.84394 -0.54872,0.92026 0.0493,0.0797 1.23265,0.12149 2.78204,0.0981 2.30378,-0.0347 2.71862,-0.0761 2.84989,-0.28442 z m -10.15219,-1.48116 c 1.2671,-1.12933 3.98744,-4.26502 3.98744,-4.59622 0,-0.45133 -0.8472,-2.32862 -1.07178,-2.37497 -0.11058,-0.0228 -1.34155,0.88503 -2.73551,2.01744 l -2.53449,2.05894 -0.0446,0.76454 c -0.0403,0.69128 0.0212,0.86617 0.6414,1.82492 0.37728,0.58321 0.73646,1.06039 0.79816,1.06039 0.0617,0 0.49341,-0.33978 0.95933,-0.75504 z m 86.76964,0.23278 c 0.0376,-0.41241 -0.19382,-0.65036 -2.93875,-3.02167 -1.63876,-1.41572 -3.0522,-2.57402 -3.141,-2.57402 -0.24838,0 -5.89205,5.56025 -5.94642,5.85851 -0.0452,0.24794 0.29312,0.26063 5.96871,0.22383 l 6.01664,-0.0389 0.0408,-0.44765 z m -73.27253,-1.30566 c 0.17837,-0.22868 1.23402,-3.5575 1.23402,-3.89127 0,-0.31742 -4.33325,-4.59453 -5.32797,-5.25895 -0.42726,-0.28539 -0.81731,-0.58441 -0.86681,-0.66449 -0.2165,-0.35029 -0.88387,-0.11689 -1.76654,0.61781 -0.50443,0.41988 -0.93872,0.82033 -0.96508,0.88989 -0.0263,0.0696 0.64511,0.92395 1.49218,1.89867 0.84706,0.97472 2.47962,2.8573 3.62792,4.18353 1.14828,1.32623 2.16407,2.41133 2.25729,2.41133 0.0932,0 0.23498,-0.0839 0.31499,-0.18652 z m 60.42092,-4.53849 c 1.67036,-1.73702 3.0366,-3.24785 3.03612,-3.35741 -0.001,-0.26232 -2.4938,-2.39643 -2.72779,-2.33543 -0.0996,0.0259 -1.11486,1.00278 -2.25616,2.1707 l -2.07508,2.12351 0.096,2.11164 c 0.096,2.11073 0.22103,2.57676 0.66765,2.48892 0.12221,-0.024 1.58886,-1.46492 3.25922,-3.20193 z m 13.10923,-3.63054 0,-2.905 -3.05898,-2.65647 c -1.68243,-1.46107 -3.21311,-2.73348 -3.40151,-2.82759 -0.31428,-0.15701 -0.44041,-0.0739 -1.52949,1.00886 -0.65281,0.64899 -1.18693,1.24645 -1.18693,1.32767 0,0.25607 8.71823,8.99771 8.95308,8.97714 0.19062,-0.0168 0.22383,-0.45059 0.22383,-2.92461 z m -85.1629,-1.20137 c 1.98841,-1.56315 3.61526,-2.92963 3.61526,-3.03658 0,-0.2764 -0.74102,-1.24349 -1.55491,-2.02929 l -0.69489,-0.6709 -0.47432,0.27222 c -0.26088,0.14972 -1.50053,1.01738 -2.75477,1.92813 l -2.28045,1.65592 0,2.26182 c 0,2.22467 0.0349,2.46078 0.36389,2.46078 0.0907,0 1.79181,-1.27895 3.78019,-2.8421 z m 12.36088,-2.10857 c 0.0597,-0.0967 0.0919,-0.95238 0.0715,-1.90163 l -0.0371,-1.72591 -0.8461,-0.79703 c -0.46536,-0.43837 -1.08113,-0.97492 -1.36837,-1.19234 -0.28724,-0.21741 -1.02167,-0.8496 -1.63206,-1.40483 -0.61038,-0.55526 -1.16793,-1.00956 -1.239,-1.00956 -0.30342,0 -2.3674,1.67166 -2.32365,1.88199 0.0445,0.21382 6.94761,6.30222 7.16304,6.31763 0.0567,0.004 0.15197,-0.0717 0.21171,-0.16832 z m 59.4887,-5.41513 c 1.45432,-1.59769 2.64423,-3.00139 2.64423,-3.11932 0,-0.2309 -3.57642,-3.37969 -4.69987,-4.13788 -1.16093,-0.78352 -1.11964,-0.96186 -1.11964,4.8353 0,2.82031 0.0447,5.17262 0.0995,5.22732 0.0547,0.0547 0.17419,0.0995 0.26551,0.0995 0.0913,0 1.35595,-1.30721 2.81028,-2.90491 z m -72.5744,-3.08344 c 3.43727,-2.56877 4.04164,-3.06886 4.04164,-3.34416 0,-0.23234 -2.05144,-2.24225 -2.23995,-2.19459 -0.0811,0.0206 -0.26612,0.15482 -0.41104,0.29844 -0.50108,0.49659 -4.18184,3.3201 -4.32812,3.3201 -0.0807,0 -0.21651,0.084 -0.30171,0.18663 -0.1945,0.23436 -0.30605,4.14121 -0.11822,4.1409 0.0751,-1.1e-4 1.58589,-1.08341 3.3574,-2.40732 z m 85.48064,-3.63329 0.0405,-2.97756 -2.50102,-2.50427 c -1.37556,-1.37734 -2.60249,-2.50075 -2.7265,-2.49643 -0.24248,0.008 -3.03117,3.25621 -3.10513,3.61635 -0.0256,0.1244 1.3409,1.4812 3.20578,3.18321 1.78766,1.63151 3.55355,3.25126 3.92418,3.59944 1.09894,1.03235 1.11555,0.99777 1.16213,-2.42074 z m -72.67066,-0.45244 0.0391,-2.08719 -2.38224,-2.38749 c -1.31024,-1.31311 -2.43577,-2.37403 -2.50119,-2.35755 -0.15328,0.0386 -2.28259,2.15527 -2.28259,2.26904 0,0.22817 6.66784,6.7293 6.86403,6.69243 0.18401,-0.0346 0.23077,-0.41327 0.26291,-2.12924 z m -10.17567,-9.22471 c 0.44575,-0.39664 0.81046,-0.83504 0.81046,-0.97423 0,-0.36862 -1.84516,-2.15025 -2.16133,-2.08692 -0.1423,0.0286 -1.25646,0.95833 -2.4759,2.06629 l -2.21714,2.01445 -0.005,2.17608 c -0.003,1.19686 0.0385,2.21939 0.0914,2.27231 0.0529,0.0529 1.23262,-0.99347 2.62155,-2.32531 1.38893,-1.33184 2.89005,-2.74604 3.3358,-3.14267 z m 73.7351,-2.52046 c -0.0666,-0.22733 -2.53307,-2.65251 -2.69768,-2.65251 -0.0953,0 -1.07086,0.89945 -2.16793,1.99879 l -1.99467,1.9988 -0.0601,2.70767 c -0.033,1.48921 -0.0122,2.78512 0.0463,2.87979 0.10716,0.17338 6.93763,-6.71528 6.87399,-6.93254 z m 10.18979,0.71783 0,-2.29992 -1.6787,-1.6354 c -1.98409,-1.93289 -5.2567,-4.80686 -5.47361,-4.80686 -0.0839,0 -0.26861,0.18464 -0.41051,0.41035 -0.14191,0.22569 -0.44466,0.6298 -0.67278,0.89804 -0.89823,1.05621 -1.06372,0.80531 3.62593,5.49713 2.32908,2.33013 4.31903,4.23661 4.42216,4.23661 0.14242,0 0.18751,-0.55305 0.18751,-2.29995 z m -73.74705,-0.30572 0.0412,-2.38183 -2.35239,-2.35584 c -1.29381,-1.2957 -2.44213,-2.35583 -2.55184,-2.35583 -0.23582,0 -2.7109,2.24543 -2.71261,2.46093 -5.6e-4,0.0814 1.56001,1.71159 3.46814,3.62258 2.5203,2.52408 3.55095,3.46321 3.76775,3.43317 0.28225,-0.0391 0.30067,-0.17058 0.3397,-2.42318 z m -12.1468,-7.4474 c 1.93904,-1.79501 3.52551,-3.33822 3.52551,-3.42935 0,-0.27852 -2.88594,-3.08077 -3.17277,-3.08077 -0.14774,0 -0.3048,0.0943 -0.34901,0.20952 -0.0443,0.11524 -0.94863,0.93654 -2.00977,1.82511 l -1.92935,1.61559 0,3.11001 c 0,2.56111 0.0361,3.1015 0.20495,3.06177 0.11272,-0.0265 1.79142,-1.51687 3.73044,-3.31188 z m 71.43421,-0.78116 c 1.75652,-1.85532 3.20863,-3.48367 3.2269,-3.61854 0.0351,-0.2587 -2.64168,-2.63269 -2.96843,-2.63269 -0.0995,0 -1.0025,1.04079 -2.00662,2.31288 l -1.82569,2.31288 -0.011,2.3999 c -0.0102,2.24145 0.0295,2.5989 0.28956,2.5989 0.0558,0 1.53871,-1.518 3.29522,-3.37333 z m -59.13748,-2.41931 0.0419,-1.83473 -2.79364,-2.86381 c -1.53651,-1.57512 -2.84585,-2.8855 -2.90963,-2.91198 -0.18116,-0.0753 -2.18997,1.66327 -2.20299,1.90651 -0.0165,0.30883 7.32481,7.63406 7.59832,7.58165 0.18194,-0.0349 0.2319,-0.38747 0.26598,-1.87764 z m 72.92564,-3.39545 0,-3.11988 -3.49204,-2.7245 c -1.92062,-1.49846 -3.57747,-2.72447 -3.68192,-2.72447 -0.22366,0 -2.89825,3.39448 -2.89825,3.67835 0,0.36689 9.5946,8.1696 9.91457,8.06294 0.10399,-0.0347 0.15764,-1.11424 0.15764,-3.17244 z m -87.80754,-5.06717 c 1.19406,-0.80841 4.6185,-4.0319 4.6185,-4.34746 0,-0.28489 -3.42277,-4.15302 -3.67486,-4.15302 -0.2476,0 -1.47225,1.43893 -1.89142,2.22241 -0.30017,0.56101 -0.33194,0.86245 -0.37648,3.57182 -0.0467,2.84204 -0.0116,3.38267 0.21954,3.38267 0.0581,0 0.55524,-0.30438 1.10472,-0.67642 z m 72.01222,-0.85306 c 0.24936,-0.26673 1.34122,-1.64392 2.42635,-3.06044 1.39137,-1.81625 1.94611,-2.652 1.88184,-2.83513 -0.0501,-0.14281 -0.8708,-0.85437 -1.82372,-1.58123 l -1.73256,-1.32156 -0.53607,0.30145 c -0.32572,0.18317 -0.66436,0.55535 -0.86301,0.94852 -0.3087,0.61098 -0.32741,0.84811 -0.33573,4.25315 -0.008,3.54771 0.0101,3.70615 0.44687,3.76841 0.0455,0.006 0.28667,-0.20646 0.53603,-0.47317 z m -57.38157,-3.08076 c -0.0424,-2.91282 -0.1258,-3.17122 -1.19705,-3.7109 -0.29343,-0.14783 -0.8021,-0.43643 -1.13038,-0.64133 -1.07856,-0.67321 -1.18655,-0.7342 -1.93983,-1.09545 -0.58698,-0.28151 -1.0484,-0.36891 -2.16366,-0.40989 -1.26148,-0.0463 -1.41757,-0.0238 -1.41757,0.20466 0,0.14119 0.73864,1.04174 1.6414,2.00122 0.90277,0.95946 1.96655,2.11975 2.36397,2.57841 1.54854,1.78718 3.46564,3.71775 3.66823,3.694 0.17668,-0.0206 0.20631,-0.46483 0.17489,-2.62072 z m 73.3689,-2.0334 c 0.0399,-1.11753 0.0128,-1.24243 -0.40777,-1.87741 -0.2819,-0.42559 -0.72363,-0.82884 -1.18002,-1.07724 -0.40118,-0.21835 -0.81621,-0.50158 -0.92228,-0.62937 -0.41823,-0.50395 -1.39274,-0.77916 -3.1284,-0.88352 -1.79183,-0.10773 -2.5367,0.0194 -2.5367,0.43316 0,0.12225 0.13162,0.29271 0.29249,0.37881 0.16087,0.0861 1.67783,1.1364 3.371,2.33402 3.41488,2.41541 3.74023,2.61498 4.17045,2.55815 0.26618,-0.0352 0.30306,-0.1688 0.34123,-1.2366 z m -27.60167,-11.67287 c 0.45826,-0.3945 2.25709,-2.56792 2.6861,-3.24549 0.7244,-1.14411 2.26623,-5.5084 2.26623,-6.41479 0,-0.18594 -0.10256,-0.42321 -0.22793,-0.52724 -0.19002,-0.15772 -0.32503,-0.11114 -0.81194,0.28016 -0.32121,0.25813 -0.64605,0.46933 -0.72186,0.46933 -0.37369,0 -0.89601,0.64133 -1.05872,1.29998 -0.0971,0.39295 -0.2474,0.91589 -0.33405,1.16211 -0.0867,0.24622 -0.21288,0.68267 -0.28052,0.96992 -0.22251,0.94508 -1.56191,4.79247 -1.87813,5.39487 -0.40629,0.77399 -0.21155,1.10386 0.36082,0.61115 z m -24.74205,-4.2351 c 0,-2.18369 -0.029,-2.45417 -0.31284,-2.91337 -0.34391,-0.55646 -0.77748,-0.82728 -1.73828,-1.08575 -0.8457,-0.22753 -1.272,-0.0208 -1.14583,0.55547 0.19602,0.89531 0.70621,2.3859 1.05623,3.0859 0.39944,0.79887 1.84098,2.76493 2.02727,2.76493 0.0625,0 0.11345,-1.08322 0.11345,-2.40718 z m 5.81952,-14.16468 c 0.9265,-0.20032 2.02235,-0.97878 2.29199,-1.62816 0.46466,-1.11908 0.58889,-1.90344 0.41244,-2.6042 -0.0923,-0.36636 -0.16774,-0.86742 -0.16774,-1.11349 0,-0.24605 -0.0657,-0.48799 -0.14601,-0.53763 -0.17158,-0.10604 -1.04526,0.50364 -1.0531,0.73488 -0.0136,0.40091 -0.71056,0.99288 -1.27246,1.08072 -1.0206,0.15957 -4.09401,2.86311 -4.09401,3.60132 0,0.0811 0.41967,0.19535 0.93261,0.25387 0.51294,0.0585 1.10049,0.1992 1.30566,0.31264 0.20517,0.11346 0.54091,0.17005 0.74608,0.12575 0.20518,-0.0443 0.67522,-0.14585 1.04454,-0.2257 z m 17.28138,-0.21517 c 0.40851,-0.20517 0.87848,-0.37304 1.04442,-0.37304 0.16594,0 0.61505,-0.13432 0.99804,-0.2985 l 0.69635,-0.29847 -0.45394,-0.57315 c -0.52355,-0.66104 -2.05796,-2.01455 -2.92844,-2.5832 -0.32829,-0.21445 -1.20121,-0.70922 -1.93984,-1.09947 -1.14445,-0.60468 -1.4753,-0.71204 -2.23827,-0.72623 l -0.89531,-0.0166 -0.0467,1.04453 c -0.0782,1.7459 0.0499,2.21774 0.79425,2.92723 0.70018,0.66732 3.55638,2.37 3.97561,2.37 0.13817,0 0.58543,-0.16787 0.99393,-0.37304 z m -23.28742,-2.60857 c 0.75915,-0.489 1.38028,-0.94941 1.38028,-1.02313 0,-0.0738 -0.26746,-0.16993 -0.59433,-0.21377 -0.84327,-0.11311 -1.91351,-0.66875 -2.1472,-1.11476 -0.29597,-0.56489 -0.4245,-0.21341 -0.50838,1.39018 -0.0765,1.46416 -0.0137,1.85515 0.29817,1.8523 0.10515,-0.001 0.81231,-0.40184 1.57146,-0.89082 z m 26.82859,-4.74951 c -0.15036,-0.15922 -0.34063,-0.0458 -1.02294,0.60978 -0.89741,0.86228 -1.95709,1.33388 -2.68467,1.19479 -0.22139,-0.0423 -0.40253,-0.012 -0.40253,0.0673 0,0.0793 0.6547,0.65064 1.45488,1.26957 0.80018,0.61893 1.65629,1.33845 1.90247,1.59892 l 0.44763,0.47358 0.24494,-2.50916 c 0.19484,-1.99598 0.20716,-2.54915 0.0603,-2.70477 z m -5.90076,0.93176 c 0,-0.0465 -0.17724,-0.31694 -0.39387,-0.60097 -0.42547,-0.5578 -0.42295,-0.45585 -0.078,-3.15961 0.12988,-1.01809 0.48411,-1.6336 1.11949,-1.9452 0.31242,-0.15323 0.39693,-0.30144 0.39693,-0.69625 0,-0.40463 -0.11232,-0.59053 -0.58105,-0.96178 -0.76649,-0.60706 -1.05693,-0.60036 -1.07222,0.0247 -0.029,1.18644 -0.12437,2.04787 -0.25456,2.30055 -0.0775,0.1504 -0.18402,0.70991 -0.23669,1.24337 -0.1318,1.33474 -0.33794,2.00168 -0.78168,2.52903 -0.2079,0.24708 -0.34075,0.50948 -0.29523,0.58316 0.0455,0.0737 0.36929,0.20855 0.71949,0.29976 0.35019,0.0913 0.73743,0.23273 0.86054,0.3145 0.24472,0.16254 0.59687,0.20306 0.59687,0.0686 z m -15.34195,-0.38373 c 0.13822,-0.0707 0.39721,-0.12857 0.57553,-0.12857 0.25147,0 0.29937,-0.0586 0.21348,-0.26113 -0.0609,-0.14363 -0.18769,-0.47158 -0.28174,-0.72876 -0.0941,-0.2572 -0.24585,-0.55937 -0.33732,-0.67149 -0.30152,-0.36961 -0.60916,-1.2647 -0.71617,-2.0836 -0.0579,-0.4434 -0.26039,-1.04121 -0.44986,-1.32844 -0.1895,-0.28726 -0.38934,-0.67335 -0.44412,-0.85801 -0.14301,-0.48209 -0.47616,-0.41366 -0.74509,0.15307 -0.12758,0.26884 -0.53361,0.83366 -0.9023,1.25513 -0.90462,1.03411 -0.86279,1.28695 0.18638,1.12652 0.28057,-0.0429 0.58092,0.006 0.7152,0.11818 0.44335,0.36794 1.01232,1.83711 1.0813,2.79207 0.0663,0.91863 0.0726,0.92986 0.46032,0.83735 0.21618,-0.0515 0.50615,-0.1516 0.64439,-0.22232 z m -3.7569,-0.35367 c 0.22455,-0.27055 0.0997,-1.2585 -0.18229,-1.44311 -0.10549,-0.069 -0.49337,-0.10807 -0.86194,-0.0867 -0.90149,0.0523 -0.96367,0.40173 -0.20903,1.17456 0.60461,0.61915 0.9524,0.71774 1.25326,0.35523 z m 21.66112,-1.2156 c 0.15008,-0.13583 0.27287,-0.40061 0.27287,-0.58842 0,-0.42155 -0.56971,-0.86513 -0.83178,-0.64763 -0.27421,0.2276 -0.55629,1.001 -0.45824,1.25648 0.11507,0.29991 0.67562,0.28864 1.01715,-0.0204 z m 45.18751,-0.88353 c 0.69759,-0.12605 1.44977,-0.26616 1.67152,-0.31135 0.5783,-0.11781 4.03354,-3.47495 4.88956,-4.75072 0.94071,-1.40198 2.54121,-4.901881 2.54121,-5.556991 0,-0.10557 0.0612,-0.30856 0.13597,-0.45106 0.0748,-0.14252 0.2744,-1.09847 0.44362,-2.12432 0.40463,-2.45319 0.55666,-6.35075 0.32013,-8.20701 -0.18139,-1.42356 -0.64066,-3.39558 -0.90647,-3.89225 -0.0783,-0.14643 -0.14247,-0.42509 -0.14247,-0.61924 0,-0.19416 -0.0616,-0.4168 -0.13678,-0.49477 -0.32396,-0.33575 -0.90774,-1.63858 -0.90774,-2.02576 0,-0.27749 -0.1193,-0.50015 -0.34836,-0.65024 -0.19159,-0.12555 -0.44184,-0.41247 -0.55609,-0.63763 -0.51778,-1.02043 -3.81594,-4.19535 -4.84535,-4.66431 -0.33978,-0.15479 -0.70413,-0.38547 -0.80967,-0.51263 -0.10554,-0.12717 -0.27618,-0.23122 -0.37917,-0.23122 -0.10301,0 -0.27089,-0.10073 -0.37304,-0.22382 -0.10218,-0.12312 -0.28783,-0.22384 -0.41258,-0.22384 -0.12474,0 -0.81361,-0.23205 -1.53082,-0.51565 -0.7172,-0.28361 -1.63094,-0.59138 -2.0305,-0.68395 -0.39956,-0.0925 -0.86078,-0.22755 -1.02492,-0.29999 -0.4935,-0.2178 -3.05785,-0.55811 -4.23762,-0.56237 -1.15866,-0.004 -3.61798,0.39204 -4.41701,0.71163 -0.16415,0.0657 -0.66776,0.22767 -1.11914,0.36005 -0.45139,0.13238 -1.15644,0.49499 -1.56679,0.80582 -0.41034,0.31081 -1.04826,0.74196 -1.41756,0.9581 -0.78596,0.45996 -2.97902,2.71893 -3.73046,3.84257 -0.28726,0.4295 -0.75973,1.0756 -1.04997,1.43578 -0.29024,0.36015 -0.92352,1.44563 -1.40728,2.41215 -0.94309,1.88417 -1.00976,2.03754 -1.28242,2.95105 -0.098,0.32827 -0.24117,0.76085 -0.31817,0.96127 -0.077,0.20043 -0.19631,0.63688 -0.26516,0.96991 -0.0688,0.33303 -0.30301,1.2682 -0.52037,2.07815 -0.42501,1.58383 -0.4069,2.17887 0.0826,2.71306 0.23337,0.25469 0.25571,0.39225 0.13312,0.81972 -0.17973,0.62666 -0.1939,1.88683 -0.0224,1.99281 0.0687,0.0424 0.0936,0.61758 0.0555,1.27807 -0.063,1.08799 -0.0351,1.2534 0.29674,1.75953 0.60575,0.92392 1.61203,3.37754 1.61203,3.93058 0,0.11945 0.3646,0.958291 0.81024,1.864111 0.67357,1.36917 0.99445,1.83018 1.90253,2.73338 1.30343,1.29645 2.83463,2.40124 3.328,2.40124 0.79224,0 1.55358,-0.51254 1.56461,-1.0533 0.003,-0.12794 0.24163,-0.62597 0.53113,-1.10677 0.28952,-0.48078 0.5021,-0.94686 0.47241,-1.03574 -0.0335,-0.10024 -0.58746,-0.16347 -1.45899,-0.16649 -2.05307,-0.007 -2.47987,-0.17446 -3.31571,-1.29961 -1.21387,-1.63405 -2.17874,-4.066511 -1.7737,-4.471531 0.0978,-0.0978 0.17902,-0.28184 0.18056,-0.40905 0.004,-0.27429 1.7585,-1.77371 2.6063,-2.22654 0.42947,-0.22939 0.86107,-0.31762 1.55368,-0.31762 0.52745,0 1.32097,-0.11411 1.76335,-0.25355 0.76641,-0.24159 0.82819,-0.24069 1.31059,0.0191 0.56725,0.30547 0.97027,0.23167 0.97027,-0.17769 0,-0.14976 -0.39791,-0.68147 -0.88425,-1.18157 -1.6453,-1.69188 -2.08392,-3.14862 -1.83797,-6.10433 0.17674,-2.12399 0.13381,-2.03209 2.4045,-5.14906 0.54695,-0.75078 2.15342,-2.07471 2.51748,-2.07471 0.0493,0 0.19562,-0.0898 0.32518,-0.19953 0.45666,-0.38679 2.3031,-0.84499 3.40507,-0.84499 1.14788,0 2.428,0.37638 3.24378,0.95373 0.24452,0.17304 0.57485,0.38177 0.7341,0.46384 0.15925,0.082 0.41892,0.38423 0.57702,0.67148 0.15813,0.28723 0.54962,0.87191 0.87002,1.29925 0.32038,0.42735 0.5825,0.85481 0.5825,0.9499 0,0.0951 0.0961,0.48407 0.21347,0.8644 0.52691,1.70678 0.73159,3.90832 0.3834,4.12351 -0.082,0.0507 -0.14922,0.24881 -0.14922,0.44018 0,0.41203 -0.36531,1.24116 -0.95661,2.17114 -0.23481,0.36933 -1.26375,1.48533 -2.28655,2.48001 -2.47815,2.41006 -2.49025,2.36959 0.70851,2.36959 2.45418,0 2.46133,0.001 2.99639,0.41034 0.295,0.22569 0.60224,0.41036 0.68278,0.41036 0.18645,0 0.69903,0.56019 0.95577,1.04452 0.27101,0.51126 0.4728,1.82424 0.45441,2.956631 -0.0142,0.87502 -0.0621,1.00267 -0.67153,1.79062 -0.94518,1.22193 -1.70828,1.81833 -2.32665,1.81833 -0.38355,0 -1.64432,0.29531 -1.97502,0.46262 -0.27896,0.14112 -1.583,-0.0592 -2.06513,-0.31719 -0.51927,-0.2779 -0.56481,-0.0319 -0.23619,1.27548 0.29512,1.17414 0.37192,1.31537 0.97431,1.79206 0.63257,0.50058 0.69591,0.5174 1.9386,0.51451 0.70656,-0.002 1.85541,-0.10612 2.55301,-0.23218 z m -39.33284,-4.55878 c 0.67788,-0.5967 0.69826,-0.63913 0.65519,-1.3649 -0.0661,-1.11355 -0.37975,-1.23224 -1.1524,-0.43608 -0.55689,0.57384 -0.60805,0.69349 -0.60805,1.42221 0,1.20715 0.11817,1.24765 1.10526,0.37877 z m -34.56026,-0.52261 c 0.0561,-0.74809 -0.34649,-1.18744 -0.94937,-1.03614 -0.31814,0.0798 -0.37758,0.16287 -0.30649,0.42805 0.0486,0.18093 0.0891,0.44433 0.0902,0.58534 0.002,0.26156 0.7017,0.73542 0.97196,0.65831 0.082,-0.0234 0.1692,-0.30941 0.19365,-0.63556 z m 72.19345,-1.49064 c 0.70016,-0.33224 0.77556,-0.7681 0.2793,-1.614881 -0.57053,-0.97355 -1.49597,-1.49571 -2.43048,-1.37137 -0.88529,0.11779 -1.22261,0.49666 -1.22261,1.37327 0,0.73684 0.0627,0.81081 1.19375,1.408831 0.94101,0.49752 1.45949,0.54607 2.18004,0.20415 z m -14.22736,-0.54179 c 0.74726,-0.417671 0.85599,-0.587671 0.85599,-1.338591 0,-0.80745 -0.14969,-1.18585 -0.70459,-1.78137 l -0.36968,-0.39671 -0.7048,0.35399 c -0.80094,0.4023 -1.05608,0.83199 -1.05608,1.77857 0,0.57311 0.0686,0.71006 0.55627,1.11212 0.60599,0.499511 0.91138,0.557891 1.42289,0.271991 z m 8.12288,-5.843101 c 1.09122,-0.29052 1.6647,-0.71798 3.80613,-2.83701 1.2159,-1.20319 2.20737,-2.79528 2.20737,-3.54456 0,-0.16058 0.0638,-0.41116 0.14177,-0.55686 0.0932,-0.17409 0.0683,-0.72051 -0.0727,-1.59428 -0.41521,-2.57256 -0.6325,-3.0168 -2.30033,-4.70266 -0.96237,-0.97279 -1.15179,-1.0846 -2.21976,-1.31022 -1.12228,-0.23712 -2.51583,0.01 -3.87581,0.68591 -1.37221,0.6825 -2.25734,1.45781 -2.93179,2.56806 -0.29058,0.47835 -0.62493,0.94991 -0.74297,1.04787 -0.82674,0.68613 -1.33273,3.59916 -0.92717,5.33766 0.3075,1.31816 0.70707,1.94123 2.15058,3.35361 1.13243,1.10799 1.44258,1.32824 2.13463,1.51592 1.04384,0.28306 1.67151,0.29178 2.63014,0.0366 z m -61.20922,-39.03422 c -0.0507,-0.082 -0.0251,-0.14921 0.057,-0.14921 0.082,0 0.19071,0.0672 0.24143,0.14921 0.0507,0.082 0.0251,0.14922 -0.057,0.14922 -0.082,0 -0.19072,-0.0671 -0.24144,-0.14922 z"
             id="path4635"
             inkscape:connector-curvature="0" />
          <g
             id="g4752"
             onclick="window.parent.location='index.html'"
             onmouseover="this.style.cursor='pointer'">
            <rect
               y="65.483124"
               x="-165.22925"
               height="137.2574"
               width="519.43909"
               id="rect4745"
               style="opacity:1;fill:#f2f2f2;fill-opacity:1;fill-rule:evenodd;stroke:none;stroke-width:0.31002447;stroke-linecap:round;stroke-miterlimit:4;stroke-dasharray:none;stroke-opacity:1" />
            <text
               xml:space="preserve"
               style="font-style:normal;font-weight:normal;font-size:61.15559769px;line-height:125%;font-family:sans-serif;text-align:end;letter-spacing:0px;word-spacing:0px;text-anchor:end;opacity:1;fill:#000000;fill-opacity:1;stroke:none;stroke-width:1px;stroke-linecap:butt;stroke-linejoin:miter;stroke-opacity:1"
               x="93.923706"
               y="161.16556"
               id="text4637"
               sodipodi:linespacing="125%"
               onmouseover="this.style.cursor='pointer'"
               onclick="window.parent.location='index.html'"
               transform="scale(1.0002852,0.99971489)"><tspan
                 sodipodi:role="line"
                 id="tspan4639"
                 x="93.923698"
                 y="161.16556"
                 style="font-style:normal;font-variant:normal;font-weight:500;font-stretch:normal;font-size:91.73339844px;line-height:125%;font-family:Ubuntu;-inkscape-font-specification:'Ubuntu, Medium';text-align:center;writing-mode:lr-tb;text-anchor:middle">Ryder Farm</tspan></text>
          </g>
          <g
             transform="matrix(0.25069929,0,0,0.25055634,-409.03774,69.969406)"
             id="open-menu">
            <rect
               style="opacity:1;fill:#f2f2f2;fill-opacity:1;fill-rule:evenodd;stroke:none;stroke-width:0;stroke-linecap:round;stroke-miterlimit:4;stroke-dasharray:none;stroke-opacity:1"
               id="rect6317"
               width="625.487"
               height="475.15723"
               x="-60.730743"
               y="5.5855589" />
            <g
               id="open-menu-2">
              <path
                 inkscape:connector-curvature="0"
                 d="m 64,384 384,0 0,-42.666 -384,0 0,42.666 z m 0,-106.666 384,0 0,-42.667 -384,0 0,42.667 z M 64,128 l 0,42.665 384,0 0,-42.665 -384,0 z"
                 id="path4645" />
            </g>
          </g>
        </g>
      </g>
      <path
         style="fill:none;fill-rule:evenodd;stroke:#000000;stroke-width:0.99964619px;stroke-linecap:butt;stroke-linejoin:miter;stroke-opacity:1"
         d="M -0.09923276,385.98828 375.15712,385.86201"
         id="path4785"
         inkscape:connector-curvature="0" />
    </g>
    <g
       transform="translate(-24.855346,-244.52895)"
       id="menu-open"
       style="display:none">
      <g
         id="g4734">
        <rect
           ry="1.4829844"
           y="385.362"
           x="-0.0010012342"
           height="378.09003"
           width="375"
           id="rect4144"
           style="opacity:1;fill:#f2f2f2;fill-opacity:1;fill-rule:evenodd;stroke:none;stroke-width:0.30377078;stroke-linecap:round;stroke-miterlimit:4;stroke-dasharray:none;stroke-opacity:1" />
        <path
           style="fill:#050505"
           d="m 335.98886,450.85877 c -0.35083,-0.0537 -0.91041,-0.20881 -1.02722,-0.28483 -0.20466,-0.1332 -0.73153,-0.65302 -0.84919,-0.83786 -0.22718,-0.35686 -0.23242,-0.44038 -0.26146,-4.16326 l -0.0274,-3.51457 -0.409,0 -0.409,0 -0.024,1.3962 -0.0241,1.3962 -6.83265,0 -6.83266,0 -0.0241,-1.42027 -0.024,-1.42027 -0.48118,0 -0.48117,0 -0.0262,3.87565 c -0.0179,2.64855 -0.0433,3.93429 -0.0802,4.06085 -0.0628,0.21555 -0.2171,0.3948 -0.42218,0.49059 -0.0798,0.0373 -0.44702,0.13337 -0.81607,0.21355 l -0.67099,0.14578 -2.04538,0 -2.04539,0 -0.46273,-0.14478 c -0.3382,-0.10582 -0.50067,-0.18441 -0.60371,-0.29201 l -0.141,-0.14722 -0.024,-3.64384 c -0.0132,-2.0041 -0.0132,-6.76906 0,-10.58879 l 0.024,-6.94497 0.20112,-0.23361 c 0.21281,-0.24719 0.92703,-0.69016 1.4602,-0.90564 0.65858,-0.26616 1.01771,-0.32581 1.97154,-0.32746 0.77765,-0.001 0.94491,0.0125 1.32323,0.11014 0.5835,0.15046 1.41172,0.56054 1.81622,0.89929 l 0.32458,0.27183 0.0123,5.40077 0.0122,5.40078 0.43305,0 0.43306,0 0.0241,-16.68217 0.024,-16.68216 7.55442,0 7.55441,0 0,0.91475 0,0.91475 -6.88077,0.0241 -6.88077,0.0241 0,15.74334 0,15.74334 0.21653,0 0.21652,0 0.0254,-4.45339 0.0254,-4.45339 0.13433,-0.38516 c 0.21111,-0.60529 0.29548,-0.74906 0.63571,-1.08326 0.17523,-0.17212 0.33288,-0.34782 0.35033,-0.39045 0.0454,-0.1108 1.15274,-1.10044 1.30219,-1.16376 0.0687,-0.0291 0.16827,-0.0881 0.2212,-0.13114 0.0529,-0.043 0.19366,-0.11881 0.31276,-0.16845 0.34608,-0.14428 0.33682,-0.12384 0.33682,-0.74346 l 0,-0.56339 -0.27054,-0.30936 c -0.4201,-0.48036 -0.83617,-1.01495 -0.83603,-1.07417 8e-5,-0.0295 -0.042,-0.1403 -0.0934,-0.24622 -0.18407,-0.37889 -0.34885,-0.83242 -0.40399,-1.11197 l -0.0561,-0.28423 -0.19247,-0.0113 c -0.33639,-0.0197 -1.05246,-0.16343 -1.22618,-0.24611 -0.12856,-0.0612 -0.17559,-0.11902 -0.20184,-0.24821 -0.0188,-0.0926 -0.0562,-0.26593 -0.0829,-0.38509 -0.0268,-0.11916 -0.0496,-0.46288 -0.0508,-0.76382 l -0.002,-0.54718 0.17204,-0.15767 c 0.0946,-0.0867 0.23507,-0.17028 0.31211,-0.1857 0.077,-0.0154 0.35148,-0.16524 0.60987,-0.33294 l 0.46979,-0.30491 -0.024,-0.69155 c -0.0255,-0.73292 -0.071,-0.85631 -0.21179,-0.57397 -0.0423,0.0848 -0.0769,0.18137 -0.0769,0.21452 0,0.0331 -0.0782,0.15391 -0.17377,0.26837 -0.0956,0.11447 -0.19247,0.25734 -0.21533,0.3175 -0.0356,0.0935 -0.0763,0.10939 -0.28123,0.10939 l -0.23965,0 -0.19459,-0.33338 c -0.10703,-0.18336 -0.19459,-0.3637 -0.19459,-0.40076 0,-0.11888 0.30658,-0.50355 0.56614,-0.71034 0.13852,-0.11034 0.2551,-0.22046 0.25907,-0.24468 0.0259,-0.15816 0.0119,-0.16442 -0.3681,-0.16442 l -0.38494,0 -0.015,-0.23753 c -0.0273,-0.43202 -0.0171,-0.44326 0.45976,-0.50533 0.5437,-0.0708 0.86967,-0.17477 1.03487,-0.3302 0.17287,-0.16265 0.1669,-0.20277 -0.0302,-0.20277 -0.0894,0 -0.18751,-0.0301 -0.21805,-0.067 -0.0305,-0.0368 -0.16253,-0.11299 -0.29333,-0.1693 -0.13078,-0.0563 -0.2614,-0.14648 -0.29025,-0.20043 -0.0289,-0.0539 -0.11519,-0.13624 -0.19185,-0.18288 -0.30314,-0.18445 -0.35202,-0.30496 -0.3535,-0.87134 -10e-4,-0.49987 0.003,-0.52304 0.15126,-0.74641 0.21319,-0.32203 0.33648,-0.37573 0.80822,-0.35204 0.32409,0.0163 0.41555,0.04 0.55335,0.14326 0.0908,0.0681 0.23611,0.15972 0.32292,0.20367 0.11778,0.0596 0.19412,0.15913 0.30073,0.39204 0.0786,0.17169 0.14289,0.33528 0.14289,0.36353 0,0.0283 0.0433,0.10647 0.0962,0.1738 0.0529,0.0673 0.0962,0.18183 0.0962,0.25446 0,0.0726 0.0308,0.15764 0.0685,0.18894 0.0558,0.0463 0.0982,0.0146 0.22855,-0.17088 0.088,-0.12527 0.27831,-0.34861 0.42285,-0.49633 0.26395,-0.26975 0.34247,-0.37292 0.42987,-0.5648 0.026,-0.057 0.0688,-0.11701 0.0953,-0.13335 0.14381,-0.0889 0.21738,-0.36136 0.24804,-0.91848 0.0335,-0.60825 0.0487,-0.65474 0.48168,-1.46841 0.0493,-0.0927 0.0907,-0.20474 0.092,-0.24902 0.007,-0.25122 1.06353,-0.85831 1.49343,-0.85831 0.10962,0 0.23886,-0.0212 0.28718,-0.0471 0.12104,-0.0648 1.83111,-0.0709 2.0312,-0.007 0.0881,0.028 0.22101,0.0633 0.29535,0.0783 0.0743,0.0151 0.23316,0.11775 0.35293,0.22821 0.23629,0.21792 0.64266,0.72959 0.64266,0.80917 0,0.0271 0.0341,0.10144 0.0759,0.16515 0.11482,0.17533 0.20922,0.63377 0.21113,1.0254 0.002,0.32716 0.01,0.35321 0.12023,0.39532 0.0652,0.0248 0.17084,0.12804 0.2348,0.22942 0.28446,0.45086 0.89773,0.85842 0.89773,0.5966 0,-0.0492 0.11026,-0.19973 0.24501,-0.33457 0.31802,-0.31819 0.70779,-0.45947 1.29227,-0.4684 0.37428,-0.006 0.42293,0.005 0.6135,0.13355 0.11383,0.0769 0.20697,0.16429 0.20697,0.19425 0,0.0299 0.0688,0.12548 0.15285,0.21227 0.17353,0.17913 0.22275,0.40671 0.22858,1.05684 l 0.004,0.39159 -0.18993,0.16208 c -0.29743,0.25381 -0.44364,0.35703 -0.66585,0.47008 -0.11341,0.0577 -0.19333,0.12575 -0.1776,0.15121 0.0157,0.0255 0.26008,0.0464 0.54302,0.0466 0.28293,3.3e-4 0.66255,0.0144 0.8436,0.0315 0.4071,0.0385 0.45198,0.1029 0.3875,0.55629 l -0.043,0.30261 -0.60029,0 c -0.53289,0 -0.60218,0.009 -0.617,0.0841 -0.0106,0.0534 0.0251,0.10003 0.098,0.12776 0.0631,0.024 0.18226,0.12059 0.26478,0.21464 0.13711,0.15624 0.14556,0.18465 0.098,0.32961 -0.0286,0.0872 -0.0584,0.18444 -0.0662,0.21601 -0.0297,0.12021 -0.27256,0.2278 -0.4926,0.21822 -0.17222,-0.007 -0.25142,-0.0414 -0.37372,-0.16001 -0.0854,-0.0828 -0.17636,-0.1374 -0.20223,-0.12139 -0.0259,0.016 -0.0626,0.24701 -0.0817,0.51334 -0.0431,0.60305 -0.0832,0.64247 -0.65591,0.64576 -0.20801,10e-4 -0.37827,0.0147 -0.37834,0.0299 0,0.0153 0.0533,0.0779 0.11857,0.13929 0.1133,0.1065 0.1423,0.11033 0.63755,0.0842 0.62331,-0.0329 0.90692,-0.11688 1.27648,-0.37788 0.0991,-0.07 0.25156,-0.14068 0.33878,-0.15704 0.12112,-0.0227 0.22267,-0.10826 0.4299,-0.36208 0.50323,-0.61634 0.51904,-0.65328 0.66119,-1.54475 0.0232,-0.14564 0.0567,-0.57202 0.0745,-0.9475 0.0177,-0.37548 0.0495,-0.75918 0.0705,-0.85266 0.0317,-0.14056 0.0185,-0.19692 -0.0765,-0.32567 -0.15346,-0.20811 -0.16331,-0.5666 -0.0166,-0.60498 0.13155,-0.0344 0.23867,-0.25419 0.23867,-0.48967 0,-0.10566 0.022,-0.20572 0.0488,-0.22233 0.0769,-0.0476 0.18825,-0.34946 0.18223,-0.49407 -0.0155,-0.37165 0.0563,-0.79771 0.15134,-0.89898 0.0543,-0.0578 0.0988,-0.1298 0.0988,-0.15988 0,-0.0301 0.0286,-0.072 0.0636,-0.0932 0.1572,-0.0952 0.27323,-0.47047 0.27338,-0.8842 0,-0.40397 0.14824,-1.31707 0.23964,-1.47747 0.0264,-0.0462 0.12163,-0.31425 0.21175,-0.59559 0.0901,-0.28133 0.25274,-0.68034 0.36139,-0.88667 0.10865,-0.20634 0.19754,-0.39414 0.19754,-0.41734 0,-0.0668 0.55179,-0.80204 0.85493,-1.13925 1.23445,-1.37315 2.17404,-1.94376 3.54459,-2.15258 0.7554,-0.1151 1.46006,-0.0663 2.50531,0.17341 0.41033,0.0941 1.34335,0.39939 1.42326,0.46568 0.0418,0.0347 0.10388,0.063 0.138,0.063 0.0341,0 0.13601,0.065 0.22644,0.14444 0.0904,0.0794 0.18675,0.14443 0.21406,0.14443 0.0273,0 0.12062,0.0542 0.20736,0.12036 0.0867,0.0662 0.1725,0.12036 0.19056,0.12036 0.0181,0 0.11121,0.0704 0.20698,0.15648 0.57197,0.51398 0.78794,0.73834 0.86158,0.89501 0.0455,0.0969 0.19866,0.35101 0.34025,0.56464 0.14159,0.21364 0.25743,0.43089 0.25743,0.48277 0,0.0519 0.03,0.13717 0.0666,0.18951 0.0367,0.0523 0.11455,0.27924 0.17311,0.5042 0.0586,0.22496 0.15038,0.50651 0.20403,0.62567 0.20897,0.46414 0.249,1.97823 0.0802,3.03313 -0.12235,0.76455 -0.24767,1.38335 -0.30711,1.51655 -0.0355,0.0794 -0.11246,0.29609 -0.17112,0.48145 -0.16802,0.53092 -0.66265,1.45355 -0.91463,1.70604 -0.90421,0.90604 -1.30383,1.25959 -1.55236,1.37332 -0.14693,0.0673 -0.30177,0.12227 -0.3441,0.12227 -0.0423,0 -0.12912,0.0342 -0.19289,0.076 -0.0894,0.0586 -0.17779,0.0683 -0.38592,0.0423 -0.23329,-0.0292 -0.28432,-0.0204 -0.37556,0.0646 -0.0581,0.0541 -0.17055,0.10547 -0.24995,0.11421 -0.25278,0.0278 -0.2199,0.21592 0.26787,1.53245 0.24037,0.64875 0.54119,1.47202 0.66849,1.8295 0.44204,1.24128 0.52656,1.44898 0.64885,1.5944 0.0676,0.0804 0.12295,0.17022 0.12295,0.19958 0,0.0294 0.046,0.10243 0.10233,0.16237 0.1061,0.113 0.0935,0.27842 -0.0191,0.24984 -0.0338,-0.009 -0.38434,-0.35742 -0.77902,-0.77519 -0.56725,-0.60044 -0.72945,-0.74671 -0.77408,-0.69811 -0.0311,0.0338 -0.10575,0.51647 -0.16599,1.07254 -0.0602,0.55608 -0.13165,1.03905 -0.15868,1.07329 -0.027,0.0342 -0.0798,0.0559 -0.11725,0.0481 -0.0389,-0.008 -0.31076,-0.59594 -0.63452,-1.37231 -0.31153,-0.74701 -0.58877,-1.38613 -0.6161,-1.42027 -0.0273,-0.0341 -0.0645,-0.11623 -0.0827,-0.18242 -0.0182,-0.0662 -0.0515,-0.1637 -0.0742,-0.21665 -0.0227,-0.053 -0.28888,-0.69209 -0.59153,-1.42027 -0.31119,-0.74872 -0.57949,-1.32976 -0.6175,-1.33726 -0.0434,-0.009 -0.18999,0.22998 -0.41411,0.67403 -0.19079,0.37801 -0.379,0.74146 -0.41824,0.80766 -0.14766,0.24914 -1.88435,3.64024 -1.95943,3.82604 -0.0523,0.1295 -0.10835,0.19405 -0.16841,0.19405 -0.0844,0 -0.0908,-0.0587 -0.10304,-0.95086 -0.009,-0.63883 -0.0301,-0.95086 -0.0649,-0.95086 -0.0285,0 -0.33252,0.2329 -0.67562,0.51755 -0.81369,0.67509 -0.78427,0.65509 -0.84893,0.57712 -0.0384,-0.0463 -0.0346,-0.0951 0.0143,-0.1818 0.12949,-0.22981 0.22142,-0.45505 0.27376,-0.67074 0.0291,-0.11993 0.08,-0.25056 0.11316,-0.29028 0.11961,-0.14337 2.28395,-4.16185 2.28395,-4.24055 0,-0.10473 -0.0636,-0.15056 -0.38694,-0.2787 -0.31085,-0.1232 -1.00662,-0.7092 -1.28788,-1.0847 -0.1012,-0.1351 -0.27612,-0.41354 -0.38872,-0.61876 -0.33517,-0.61088 -0.37897,-0.51873 -0.30107,0.63335 0.0491,0.72646 0.0465,0.92595 -0.0182,1.40077 -0.0415,0.30452 -0.0911,0.68366 -0.1102,0.84253 -0.0191,0.15888 -0.0552,0.32135 -0.0802,0.36104 -0.0251,0.0397 -0.0598,0.19135 -0.0773,0.33701 -0.05,0.41761 -0.38371,1.0454 -0.76204,1.43384 -0.34168,0.3508 -0.65048,0.59044 -0.91795,0.71235 -0.0926,0.0422 -0.27668,0.18137 -0.40901,0.30924 -0.25454,0.24596 -0.46622,0.37514 -1.26465,0.77174 -0.49394,0.24535 -0.49473,0.24603 -0.46612,0.39901 0.0158,0.0843 0.004,0.25073 -0.0263,0.36989 -0.0302,0.11915 -0.10766,0.4658 -0.17203,0.77031 -0.12403,0.58675 -0.23984,0.92179 -0.46349,1.34073 -0.29035,0.54392 -0.84501,1.19401 -1.18564,1.38962 -0.45244,0.25982 -0.63494,0.40871 -0.73035,0.59582 -0.10428,0.20452 -0.0919,0.28469 0.0441,0.28469 0.0835,0 0.2949,0.23944 0.2949,0.33396 0,0.0269 0.0541,0.0845 0.1203,0.12785 0.0662,0.0434 0.12029,0.10509 0.12029,0.13715 0,0.0321 0.0541,0.10917 0.1203,0.17136 0.0662,0.0622 0.12029,0.14873 0.12029,0.1923 0,0.0436 0.0704,0.16445 0.15638,0.2686 0.20894,0.25299 0.37291,0.4892 0.37291,0.53717 0,0.0464 0.17843,0.23196 0.30955,0.32187 0.0907,0.0622 0.0937,0.19274 0.12029,5.16133 l 0.0272,5.09755 0.50523,0 0.50523,0 0.0241,-5.25283 0.0241,-5.25282 0.27799,-0.31681 c 0.29024,-0.33075 0.69632,-0.66007 0.81392,-0.66007 0.0377,0 0.19172,-0.0742 0.34224,-0.1649 0.15052,-0.0907 0.46321,-0.22068 0.69487,-0.28887 0.40147,-0.11818 0.47568,-0.12399 1.5844,-0.12398 1.01221,10e-6 1.22147,0.0133 1.61193,0.10213 0.79619,0.18119 1.95117,0.73188 2.18727,1.04287 0.0512,0.0674 0.0631,2.05114 0.0643,10.73933 0.002,10.47781 -3e-5,10.65884 -0.092,10.78805 -0.0514,0.0723 -0.32751,0.27062 -0.6135,0.44074 l -0.51997,0.30932 -0.60146,0.0164 c -1.08676,0.0296 -3.67795,0.0443 -3.82533,0.0218 z m -20.07389,-0.98343 c 0.0401,-0.0636 -0.0351,-0.17588 -0.39376,-0.58816 -0.2438,-0.28022 -0.46812,-0.52485 -0.49848,-0.54363 -0.0303,-0.0187 -0.0782,0.004 -0.10628,0.051 -0.0647,0.10784 -0.37506,0.51667 -0.64063,0.84397 -0.11252,0.13868 -0.19214,0.27229 -0.17694,0.29692 0.0159,0.0257 0.39749,0.0392 0.89711,0.0316 0.74288,-0.0112 0.87665,-0.0246 0.91898,-0.0918 z m -3.2737,-0.47789 c 0.40859,-0.36438 1.2858,-1.3761 1.2858,-1.48296 0,-0.14562 -0.27319,-0.75133 -0.34561,-0.76628 -0.0357,-0.007 -0.4326,0.28555 -0.8821,0.65092 l -0.81728,0.66431 -0.0144,0.24668 c -0.013,0.22304 0.007,0.27947 0.20682,0.5888 0.12166,0.18818 0.23748,0.34214 0.25738,0.34214 0.0199,0 0.15911,-0.10963 0.30935,-0.24361 z m 27.98001,0.0751 c 0.0121,-0.13306 -0.0625,-0.20984 -0.94764,-0.97493 -0.52844,-0.45678 -0.98422,-0.8305 -1.01285,-0.8305 -0.0801,0 -1.89997,1.794 -1.9175,1.89023 -0.0146,0.08 0.0945,0.0841 1.92468,0.0722 l 1.94015,-0.0125 0.0132,-0.14444 z m -23.62769,-0.42127 c 0.0575,-0.0738 0.39792,-1.14781 0.39792,-1.2555 0,-0.10242 -1.39731,-1.48242 -1.71807,-1.69679 -0.13778,-0.0921 -0.26355,-0.18856 -0.27952,-0.2144 -0.0698,-0.11302 -0.28501,-0.0377 -0.56964,0.19934 -0.16266,0.13547 -0.3027,0.26468 -0.3112,0.28712 -0.008,0.0225 0.20802,0.29811 0.48117,0.6126 0.27315,0.31449 0.79959,0.9219 1.16987,1.3498 0.37028,0.42791 0.69783,0.77801 0.72789,0.77801 0.0301,0 0.0758,-0.0271 0.10158,-0.0602 z m 19.48352,-1.46433 c 0.53863,-0.56044 0.97919,-1.04791 0.97904,-1.08326 -3.2e-4,-0.0846 -0.80416,-0.7732 -0.87961,-0.75352 -0.0321,0.008 -0.35951,0.32355 -0.72753,0.70037 l -0.66914,0.68515 0.031,0.68131 c 0.031,0.68102 0.0713,0.83139 0.21529,0.80305 0.0394,-0.008 0.51235,-0.47266 1.05098,-1.0331 z m 4.22725,-1.17138 0,-0.93729 -0.98641,-0.8571 c -0.54252,-0.47141 -1.03611,-0.88195 -1.09686,-0.91232 -0.10135,-0.0507 -0.14202,-0.0238 -0.49321,0.32551 -0.21051,0.20939 -0.38274,0.40216 -0.38274,0.42837 0,0.0826 2.81131,2.90308 2.88704,2.89645 0.0615,-0.005 0.0722,-0.14539 0.0722,-0.94362 z m -27.46191,-0.38762 c 0.64119,-0.50435 1.16579,-0.94524 1.16579,-0.97974 0,-0.0892 -0.23895,-0.40121 -0.5014,-0.65475 l -0.22408,-0.21646 -0.15295,0.0878 c -0.0841,0.0483 -0.48386,0.32825 -0.88831,0.6221 l -0.73536,0.53428 0,0.72977 c 0,0.71779 0.0113,0.79397 0.11734,0.79397 0.0292,0 0.57779,-0.41265 1.21897,-0.917 z m 3.98593,-0.68032 c 0.0192,-0.0312 0.0296,-0.30729 0.0231,-0.61356 l -0.012,-0.55686 -0.27283,-0.25716 c -0.15006,-0.14144 -0.34863,-0.31455 -0.44125,-0.3847 -0.0926,-0.0702 -0.32945,-0.27413 -0.52628,-0.45327 -0.19682,-0.17915 -0.37661,-0.32573 -0.39953,-0.32573 -0.0978,0 -0.7634,0.53936 -0.74929,0.60722 0.0144,0.069 2.24035,2.03339 2.30981,2.03836 0.0183,0.001 0.049,-0.0231 0.0683,-0.0543 z m 19.18292,-1.74718 c 0.46896,-0.51549 0.85267,-0.96839 0.85267,-1.00644 0,-0.0745 -1.15327,-1.09045 -1.51554,-1.33508 -0.37436,-0.2528 -0.36104,-0.31034 -0.36104,1.5601 0,0.90997 0.0144,1.66893 0.0321,1.68658 0.0176,0.0177 0.0562,0.0321 0.0856,0.0321 0.0294,0 0.43724,-0.42176 0.90621,-0.93726 z m -23.40258,-0.99486 c 1.1084,-0.82881 1.30329,-0.99016 1.30329,-1.07899 0,-0.075 -0.66152,-0.72345 -0.72231,-0.70808 -0.0261,0.007 -0.0858,0.05 -0.13254,0.0963 -0.16158,0.16023 -1.34849,1.07123 -1.39566,1.07123 -0.026,0 -0.0698,0.0271 -0.0973,0.0602 -0.0627,0.0756 -0.0987,1.33615 -0.0381,1.33605 0.0242,-3e-5 0.51139,-0.34956 1.08263,-0.77671 z m 27.56437,-1.17227 0.0131,-0.96071 -0.80649,-0.80799 c -0.44357,-0.4444 -0.83921,-0.80686 -0.8792,-0.80547 -0.0782,0.003 -0.97744,1.05061 -1.00129,1.16681 -0.008,0.0401 0.43239,0.4779 1.03375,1.02705 0.57645,0.5264 1.14589,1.04901 1.2654,1.16135 0.35437,0.33309 0.35973,0.32193 0.37475,-0.78104 z m -23.43362,-0.14598 0.0126,-0.67343 -0.76818,-0.77032 c -0.42251,-0.42367 -0.78545,-0.76597 -0.80655,-0.76065 -0.0494,0.0125 -0.73605,0.69539 -0.73605,0.7321 0,0.0736 2.15014,2.17119 2.2134,2.15929 0.0593,-0.0112 0.0744,-0.13334 0.0848,-0.68699 z m -3.28128,-2.97633 c 0.14374,-0.12797 0.26135,-0.26942 0.26135,-0.31433 0,-0.11894 -0.595,-0.69377 -0.69695,-0.67334 -0.0459,0.009 -0.40517,0.3092 -0.79839,0.66668 l -0.71495,0.64996 -0.002,0.7021 c -9.7e-4,0.38617 0.0124,0.71608 0.0295,0.73316 0.017,0.0171 0.39747,-0.32054 0.84535,-0.75026 0.44788,-0.42971 0.93193,-0.886 1.07567,-1.01397 z m 23.77686,-0.81322 c -0.0215,-0.0734 -0.81682,-0.85582 -0.8699,-0.85582 -0.0307,0 -0.34531,0.2902 -0.69908,0.6449 l -0.64321,0.64491 -0.0194,0.87362 c -0.0106,0.48049 -0.004,0.89861 0.0149,0.92916 0.0346,0.0559 2.23713,-2.16667 2.21661,-2.23677 z m 3.28583,0.23161 0,-0.74207 -0.54132,-0.52765 c -0.63979,-0.62364 -1.69509,-1.55092 -1.76503,-1.55092 -0.0271,0 -0.0866,0.0596 -0.13238,0.1324 -0.0458,0.0728 -0.14338,0.2032 -0.21694,0.28975 -0.28965,0.34078 -0.34302,0.25983 1.16922,1.77363 0.75105,0.75181 1.39273,1.36693 1.42599,1.36693 0.0459,0 0.0605,-0.17844 0.0605,-0.74207 z m -23.78071,-0.0986 0.0133,-0.76849 -0.75856,-0.76011 c -0.41721,-0.41805 -0.7875,-0.7601 -0.82288,-0.7601 -0.076,0 -0.87416,0.72448 -0.87471,0.79401 -1.8e-4,0.0263 0.50304,0.55224 1.11834,1.16882 0.81271,0.81438 1.14506,1.11739 1.21497,1.1077 0.091,-0.0126 0.0969,-0.055 0.10954,-0.78183 z m -3.91689,-2.40289 c 0.62526,-0.57915 1.13684,-1.07706 1.13684,-1.10647 0,-0.0899 -0.93061,-0.994 -1.0231,-0.994 -0.0476,0 -0.0983,0.0304 -0.11254,0.0676 -0.0143,0.0372 -0.3059,0.30218 -0.64808,0.58887 l -0.62214,0.52127 0,1.00343 c 0,0.82634 0.0116,1.00069 0.0661,0.98787 0.0363,-0.009 0.57766,-0.48941 1.20293,-1.06857 z m 23.0349,-0.25203 c 0.56641,-0.59862 1.03467,-1.124 1.04056,-1.16752 0.0113,-0.0835 -0.85185,-0.84943 -0.95721,-0.84943 -0.0321,0 -0.32327,0.33581 -0.64706,0.74625 l -0.58872,0.74624 -0.004,0.77432 c -0.003,0.7232 0.01,0.83853 0.0934,0.83853 0.018,0 0.49618,-0.48978 1.06259,-1.08839 z m -19.06966,-0.78059 0.0135,-0.59197 -0.90085,-0.924 c -0.49546,-0.50821 -0.91768,-0.931 -0.93824,-0.93954 -0.0584,-0.0243 -0.70619,0.53665 -0.71039,0.61513 -0.005,0.0996 2.36198,2.46311 2.45018,2.4462 0.0587,-0.0113 0.0748,-0.12502 0.0858,-0.60582 z m 23.51584,-1.09553 0,-1.00662 -1.12606,-0.87905 c -0.61933,-0.48348 -1.1536,-0.87905 -1.18728,-0.87905 -0.0721,0 -0.93458,1.09522 -0.93458,1.18681 0,0.11838 3.0939,2.6359 3.19708,2.60149 0.0335,-0.0112 0.0508,-0.35951 0.0508,-1.02358 z m -28.31471,-1.63491 c 0.38504,-0.26083 1.4893,-1.30088 1.4893,-1.40269 0,-0.0919 -1.10372,-1.33996 -1.18501,-1.33996 -0.0798,0 -0.47474,0.46426 -0.60991,0.71705 -0.0968,0.18101 -0.10704,0.27827 -0.1214,1.15244 -0.0151,0.91697 -0.004,1.09141 0.0708,1.09141 0.0187,0 0.17905,-0.0982 0.35623,-0.21825 z m 23.2213,-0.27524 c 0.0804,-0.0861 0.43249,-0.5304 0.7824,-0.98744 0.44867,-0.58601 0.62755,-0.85566 0.60683,-0.91475 -0.0162,-0.0461 -0.2808,-0.27566 -0.58808,-0.51017 l -0.55869,-0.4264 -0.17286,0.0973 c -0.10504,0.0591 -0.21424,0.17918 -0.27829,0.30604 -0.0996,0.19713 -0.10558,0.27364 -0.10826,1.37226 -0.003,1.14466 0.003,1.19578 0.1441,1.21587 0.0147,0.002 0.0924,-0.0666 0.17285,-0.15267 z m -18.50345,-0.99399 c -0.0137,-0.93982 -0.0406,-1.02319 -0.386,-1.19732 -0.0946,-0.0477 -0.25865,-0.14081 -0.36451,-0.20692 -0.3478,-0.21721 -0.38262,-0.23689 -0.62552,-0.35344 -0.18928,-0.0908 -0.33807,-0.11903 -0.69771,-0.13225 -0.40678,-0.0149 -0.45711,-0.008 -0.45711,0.066 0,0.0455 0.23818,0.33611 0.52929,0.64569 0.29111,0.30956 0.63414,0.68393 0.7623,0.83191 0.49934,0.57663 1.11754,1.19953 1.18286,1.19186 0.057,-0.007 0.0665,-0.14997 0.0564,-0.84556 z m 23.65877,-0.65608 c 0.0129,-0.36056 0.004,-0.40086 -0.13149,-0.60574 -0.0909,-0.13731 -0.23334,-0.26742 -0.38051,-0.34757 -0.12937,-0.0704 -0.2632,-0.16183 -0.2974,-0.20306 -0.13487,-0.1626 -0.44911,-0.25139 -1.0088,-0.28506 -0.5778,-0.0348 -0.81799,0.006 -0.81799,0.13975 0,0.0394 0.0424,0.0944 0.0943,0.12222 0.0519,0.0278 0.54104,0.36666 1.08702,0.75307 1.10117,0.77933 1.20609,0.84372 1.34482,0.82538 0.0858,-0.0114 0.0977,-0.0545 0.11003,-0.39899 z m -8.90052,-3.76621 c 0.14777,-0.12729 0.72783,-0.82854 0.86617,-1.04715 0.23359,-0.36915 0.73077,-1.77727 0.73077,-2.06972 0,-0.06 -0.0331,-0.13654 -0.0735,-0.17011 -0.0613,-0.0509 -0.10481,-0.0359 -0.26182,0.0904 -0.10358,0.0833 -0.20832,0.15143 -0.23277,0.15143 -0.1205,0 -0.28893,0.20693 -0.3414,0.41944 -0.0313,0.12678 -0.0798,0.29551 -0.10772,0.37495 -0.028,0.0794 -0.0686,0.22026 -0.0904,0.31294 -0.0718,0.30493 -0.50366,1.54628 -0.60563,1.74064 -0.13102,0.24973 -0.0682,0.35616 0.11635,0.19719 z m -7.9784,-1.36645 c 0,-0.70456 -0.009,-0.79183 -0.10088,-0.93999 -0.1109,-0.17954 -0.25071,-0.26692 -0.56053,-0.35031 -0.27271,-0.0734 -0.41018,-0.007 -0.36949,0.17922 0.0632,0.28887 0.22773,0.7698 0.34059,0.99566 0.12881,0.25775 0.59365,0.89209 0.65372,0.89209 0.0202,0 0.0366,-0.3495 0.0366,-0.77667 z m 1.87658,-4.57019 c 0.29876,-0.0646 0.65213,-0.3158 0.73908,-0.52532 0.14984,-0.36107 0.1899,-0.61414 0.133,-0.84024 -0.0298,-0.11821 -0.0541,-0.27987 -0.0541,-0.35927 0,-0.0794 -0.0212,-0.15744 -0.0471,-0.17346 -0.0553,-0.0342 -0.33705,0.1625 -0.33958,0.23711 -0.004,0.12935 -0.22913,0.32035 -0.41032,0.34869 -0.32911,0.0515 -1.32017,0.92377 -1.32017,1.16195 0,0.0262 0.13533,0.063 0.30073,0.0819 0.16541,0.0189 0.35487,0.0643 0.42103,0.10088 0.0662,0.0366 0.17442,0.0549 0.24058,0.0406 0.0662,-0.0143 0.21774,-0.0471 0.33683,-0.0728 z m 5.57261,-0.0694 c 0.13173,-0.0662 0.28328,-0.12036 0.33678,-0.12036 0.0535,0 0.19834,-0.0433 0.32184,-0.0963 l 0.22454,-0.0963 -0.14638,-0.18492 c -0.16882,-0.21328 -0.66361,-0.64999 -0.94431,-0.83346 -0.10586,-0.0692 -0.38735,-0.22883 -0.62553,-0.35475 -0.36904,-0.19509 -0.47573,-0.22973 -0.72176,-0.23431 l -0.2887,-0.005 -0.0151,0.33702 c -0.0252,0.56331 0.0161,0.71555 0.25612,0.94446 0.22578,0.21531 1.1468,0.76467 1.28198,0.76467 0.0446,0 0.18878,-0.0542 0.32051,-0.12036 z m -7.50934,-0.84164 c 0.2448,-0.15778 0.44509,-0.30633 0.44509,-0.33011 0,-0.0238 -0.0862,-0.0548 -0.19165,-0.069 -0.27192,-0.0365 -0.61704,-0.21577 -0.69239,-0.35967 -0.0954,-0.18226 -0.13689,-0.0689 -0.16394,0.44854 -0.0247,0.4724 -0.004,0.59856 0.0962,0.59764 0.0339,-3.3e-4 0.26194,-0.12966 0.50674,-0.28742 z m 8.65124,-1.53242 c -0.0485,-0.0514 -0.10985,-0.0148 -0.32987,0.19674 -0.28938,0.27822 -0.63109,0.43038 -0.8657,0.3855 -0.0714,-0.0136 -0.1298,-0.004 -0.1298,0.0217 0,0.0256 0.21111,0.20993 0.46914,0.40963 0.25803,0.19969 0.53409,0.43184 0.61348,0.51588 l 0.14434,0.1528 0.079,-0.80957 c 0.0628,-0.644 0.0668,-0.82248 0.0194,-0.87269 z m -1.90278,0.30063 c 0,-0.015 -0.0572,-0.10226 -0.12701,-0.1939 -0.1372,-0.17997 -0.13639,-0.14708 -0.0251,-1.01944 0.0419,-0.32848 0.1561,-0.52708 0.36099,-0.62761 0.10074,-0.0494 0.128,-0.0973 0.128,-0.22465 0,-0.13055 -0.0362,-0.19053 -0.18737,-0.31031 -0.24717,-0.19587 -0.34082,-0.19371 -0.34575,0.008 -0.009,0.3828 -0.0401,0.66074 -0.0821,0.74226 -0.025,0.0485 -0.0593,0.22905 -0.0763,0.40117 -0.0425,0.43065 -0.10898,0.64584 -0.25207,0.81599 -0.067,0.0797 -0.10988,0.16438 -0.0952,0.18815 0.0147,0.0238 0.11909,0.0673 0.23201,0.0967 0.11293,0.0295 0.2378,0.0751 0.27749,0.10147 0.0789,0.0524 0.19247,0.0655 0.19247,0.0221 z m -4.94722,-0.12381 c 0.0446,-0.0228 0.12809,-0.0415 0.18559,-0.0415 0.0811,0 0.0965,-0.0189 0.0688,-0.0842 -0.0196,-0.0464 -0.0605,-0.15216 -0.0909,-0.23514 -0.0303,-0.083 -0.0793,-0.18048 -0.10878,-0.21665 -0.0972,-0.11926 -0.19643,-0.40805 -0.23093,-0.67227 -0.0187,-0.14306 -0.084,-0.33594 -0.14507,-0.42862 -0.0611,-0.0927 -0.12554,-0.21725 -0.14321,-0.27683 -0.0461,-0.15555 -0.15354,-0.13347 -0.24026,0.0494 -0.0411,0.0867 -0.17207,0.26897 -0.29096,0.40496 -0.29171,0.33365 -0.27822,0.41523 0.0601,0.36347 0.0905,-0.0138 0.18732,0.002 0.23062,0.0381 0.14297,0.11871 0.32644,0.59274 0.34868,0.90085 0.0214,0.2964 0.0234,0.30002 0.14844,0.27017 0.0697,-0.0166 0.16322,-0.0489 0.20779,-0.0717 z m -1.21146,-0.11411 c 0.0724,-0.0873 0.0322,-0.40605 -0.0588,-0.46562 -0.034,-0.0223 -0.1591,-0.0349 -0.27795,-0.028 -0.29069,0.0169 -0.31074,0.12962 -0.0674,0.37897 0.19496,0.19977 0.30711,0.23158 0.40413,0.11461 z m 6.98491,-0.39221 c 0.0484,-0.0438 0.088,-0.12926 0.088,-0.18985 0,-0.13601 -0.18372,-0.27913 -0.26822,-0.20896 -0.0884,0.0734 -0.17939,0.32297 -0.14777,0.4054 0.0371,0.0968 0.21786,0.0931 0.32799,-0.007 z m 14.57131,-0.28507 c 0.22495,-0.0407 0.4675,-0.0859 0.53901,-0.10045 0.18648,-0.038 1.30067,-1.12119 1.5767,-1.53281 0.30335,-0.45235 0.81945,-1.58158 0.81945,-1.79295 0,-0.0341 0.0197,-0.0995 0.0438,-0.14553 0.0241,-0.046 0.0885,-0.35442 0.14305,-0.68541 0.13048,-0.79151 0.17951,-2.04905 0.10324,-2.64797 -0.0585,-0.4593 -0.20659,-1.09557 -0.29231,-1.25582 -0.0253,-0.0473 -0.0459,-0.13715 -0.0459,-0.1998 0,-0.0626 -0.0199,-0.13448 -0.0441,-0.15963 -0.10446,-0.10833 -0.29271,-0.52869 -0.29271,-0.65361 0,-0.0895 -0.0385,-0.16137 -0.11233,-0.2098 -0.0618,-0.0405 -0.14248,-0.13308 -0.17932,-0.20573 -0.16697,-0.32923 -1.2305,-1.35361 -1.56245,-1.50492 -0.10956,-0.0499 -0.22705,-0.12437 -0.26109,-0.1654 -0.034,-0.041 -0.089,-0.0746 -0.12226,-0.0746 -0.0332,0 -0.0874,-0.0325 -0.1203,-0.0722 -0.0329,-0.0397 -0.0928,-0.0722 -0.13304,-0.0722 -0.0402,0 -0.26236,-0.0749 -0.49363,-0.16637 -0.23127,-0.0915 -0.52592,-0.19081 -0.65476,-0.22068 -0.12885,-0.0298 -0.27757,-0.0734 -0.3305,-0.0968 -0.15914,-0.0703 -0.98605,-0.18007 -1.36648,-0.18144 -0.37362,-0.001 -1.16666,0.12649 -1.42432,0.2296 -0.0529,0.0212 -0.21533,0.0735 -0.36088,0.11617 -0.14556,0.0427 -0.37291,0.15971 -0.50524,0.26 -0.13232,0.10028 -0.33802,0.23939 -0.45711,0.30912 -0.25344,0.14841 -0.96062,0.87726 -1.20293,1.2398 -0.0926,0.13857 -0.24499,0.34704 -0.33858,0.46325 -0.0936,0.1162 -0.2978,0.46643 -0.4538,0.77827 -0.30411,0.60792 -0.32561,0.65741 -0.41353,0.95215 -0.0316,0.10592 -0.0778,0.24549 -0.1026,0.31015 -0.0248,0.0647 -0.0633,0.20549 -0.0855,0.31294 -0.0222,0.10745 -0.0977,0.40918 -0.1678,0.67051 -0.13705,0.51102 -0.13121,0.70301 0.0266,0.87536 0.0753,0.0822 0.0825,0.12656 0.0429,0.26448 -0.058,0.20219 -0.0625,0.60878 -0.007,0.64297 0.0222,0.0137 0.0302,0.19927 0.0179,0.41237 -0.0203,0.35104 -0.0113,0.40441 0.0957,0.56771 0.19533,0.2981 0.51982,1.08975 0.51982,1.26819 0,0.0385 0.11757,0.30919 0.26127,0.60145 0.21721,0.44176 0.32068,0.5905 0.6135,0.88192 0.42031,0.41829 0.91406,0.77475 1.07316,0.77475 0.25547,0 0.50097,-0.16537 0.50453,-0.33984 9.6e-4,-0.0413 0.0779,-0.20197 0.17127,-0.3571 0.0934,-0.15512 0.16191,-0.3055 0.15233,-0.33418 -0.0108,-0.0323 -0.18943,-0.0527 -0.47047,-0.0537 -0.66204,-0.002 -0.79967,-0.0563 -1.06919,-0.41931 -0.39143,-0.52722 -0.70257,-1.31205 -0.57196,-1.44273 0.0315,-0.0315 0.0577,-0.0909 0.0582,-0.13198 10e-4,-0.0885 0.56705,-0.57228 0.84043,-0.71839 0.13849,-0.074 0.27767,-0.10247 0.50101,-0.10247 0.17008,0 0.42596,-0.0368 0.56861,-0.0818 0.24714,-0.0779 0.26706,-0.0777 0.42262,0.006 0.18292,0.0986 0.31288,0.0747 0.31288,-0.0573 0,-0.0483 -0.12831,-0.21987 -0.28514,-0.38123 -0.53055,-0.54588 -0.67199,-1.01589 -0.59268,-1.96955 0.057,-0.68529 0.0432,-0.65564 0.77536,-1.66133 0.17638,-0.24223 0.6944,-0.66939 0.8118,-0.66939 0.0159,0 0.0631,-0.029 0.10486,-0.0644 0.14725,-0.1248 0.74266,-0.27264 1.09801,-0.27264 0.37015,0 0.78294,0.12144 1.046,0.30772 0.0788,0.0558 0.18537,0.12318 0.23672,0.14966 0.0514,0.0265 0.13508,0.12397 0.18607,0.21665 0.051,0.0927 0.17723,0.28132 0.28054,0.4192 0.10332,0.13788 0.18784,0.2758 0.18784,0.30648 0,0.0307 0.031,0.15619 0.0688,0.2789 0.1699,0.55069 0.23591,1.26101 0.12363,1.33044 -0.0264,0.0164 -0.0481,0.0803 -0.0481,0.14202 0,0.13294 -0.1178,0.40046 -0.30847,0.70051 -0.0757,0.11917 -0.40751,0.47924 -0.73733,0.80017 -0.79911,0.7776 -0.80301,0.76454 0.22847,0.76454 0.79138,0 0.79369,3.2e-4 0.96622,0.1324 0.0951,0.0728 0.1942,0.1324 0.22018,0.1324 0.0601,0 0.22541,0.18074 0.3082,0.33701 0.0874,0.16496 0.15246,0.58859 0.14653,0.95395 -0.005,0.28232 -0.02,0.32351 -0.21655,0.57774 -0.30478,0.39425 -0.55085,0.58668 -0.75026,0.58668 -0.12368,0 -0.53023,0.0953 -0.63687,0.14926 -0.09,0.0455 -0.51046,-0.0191 -0.66593,-0.10234 -0.16744,-0.0897 -0.18213,-0.0103 -0.0762,0.41153 0.0952,0.37883 0.11993,0.4244 0.31418,0.5782 0.20398,0.16151 0.22441,0.16694 0.62513,0.16601 0.22784,-6.5e-4 0.5983,-0.0342 0.82325,-0.0749 z m -12.68339,-1.47088 c 0.21859,-0.19252 0.22516,-0.20621 0.21128,-0.44038 -0.0213,-0.35928 -0.12246,-0.39758 -0.37161,-0.1407 -0.17958,0.18515 -0.19608,0.22376 -0.19608,0.45888 0,0.38948 0.0381,0.40255 0.35641,0.1222 z M 322.1454,415.1391 c 0.0181,-0.24137 -0.11173,-0.38313 -0.30614,-0.33431 -0.10259,0.0257 -0.12175,0.0525 -0.0988,0.13811 0.0157,0.0584 0.0287,0.14336 0.0291,0.18886 6.4e-4,0.0844 0.22627,0.23728 0.31342,0.2124 0.0264,-0.008 0.0546,-0.0998 0.0624,-0.20506 z m 23.27973,-0.48096 c 0.22578,-0.10719 0.25009,-0.24782 0.0901,-0.52103 -0.18397,-0.31412 -0.48239,-0.48259 -0.78374,-0.44247 -0.28547,0.038 -0.39424,0.16025 -0.39424,0.44308 0,0.23774 0.0202,0.26161 0.38494,0.45456 0.30344,0.16052 0.47063,0.17618 0.70298,0.0659 z m -4.5878,-0.1748 c 0.24096,-0.13476 0.27603,-0.18961 0.27603,-0.43189 0,-0.26053 -0.0483,-0.38262 -0.22721,-0.57476 l -0.11921,-0.128 -0.22727,0.11422 c -0.25827,0.1298 -0.34055,0.26844 -0.34055,0.57385 0,0.18491 0.0221,0.2291 0.17938,0.35882 0.19541,0.16117 0.29389,0.18 0.45883,0.0878 z m 2.61933,-1.88526 c 0.35188,-0.0937 0.5368,-0.23166 1.22734,-0.91536 0.39208,-0.3882 0.71179,-0.90188 0.71179,-1.14364 0,-0.0518 0.0206,-0.13266 0.0457,-0.17967 0.0301,-0.0562 0.022,-0.23247 -0.0234,-0.51439 -0.13388,-0.83003 -0.20395,-0.97336 -0.74177,-1.5173 -0.31033,-0.31387 -0.37141,-0.34994 -0.71579,-0.42274 -0.36189,-0.0765 -0.81126,0.003 -1.2498,0.22131 -0.44249,0.22021 -0.72791,0.47036 -0.9454,0.82858 -0.0937,0.15434 -0.20152,0.30648 -0.23958,0.33809 -0.26659,0.22138 -0.42976,1.16126 -0.29898,1.72218 0.0992,0.4253 0.22801,0.62633 0.69349,1.08203 0.36516,0.35749 0.46517,0.42856 0.68834,0.48911 0.3366,0.0913 0.539,0.0941 0.84812,0.0118 z M 323.71894,400.0038 c -0.0163,-0.0265 -0.008,-0.0482 0.0184,-0.0482 0.0264,0 0.0615,0.0217 0.0779,0.0482 0.0163,0.0265 0.008,0.0481 -0.0184,0.0481 -0.0264,0 -0.0615,-0.0217 -0.0779,-0.0481 z"
           id="path5402"
           inkscape:connector-curvature="0" />
        <text
           onclick="window.parent.location='index.html'"
           onmouseover="this.style.cursor='pointer'"
           sodipodi:linespacing="125%"
           id="text4767"
           y="434.12668"
           x="187.32594"
           style="font-style:normal;font-weight:normal;font-size:19.72605515px;line-height:125%;font-family:sans-serif;text-align:end;letter-spacing:0px;word-spacing:0px;text-anchor:end;opacity:1;fill:#000000;fill-opacity:1;stroke:none;stroke-width:1px;stroke-linecap:butt;stroke-linejoin:miter;stroke-opacity:1"
           xml:space="preserve"><tspan
             style="font-style:normal;font-variant:normal;font-weight:500;font-stretch:normal;font-size:29.58908463px;line-height:125%;font-family:Ubuntu;-inkscape-font-specification:'Ubuntu, Medium';text-align:center;writing-mode:lr-tb;text-anchor:middle"
             y="434.12668"
             x="187.32594"
             id="tspan4769"
             sodipodi:role="line">Ryder Farm</tspan></text>
        <g
           id="g6529"
           onclick="window.parent.location='csa.html'"
           onmouseover="this.style.cursor='pointer'">
          <rect
             style="opacity:1;fill:#f2f2f2;fill-opacity:1;fill-rule:evenodd;stroke:none;stroke-width:0.1;stroke-linecap:round;stroke-miterlimit:4;stroke-dasharray:none;stroke-opacity:1"
             id="rect6516"
             width="142.85715"
             height="42.857178"
             x="119.18632"
             y="525.97504" />
          <text
             xml:space="preserve"
             style="font-style:normal;font-weight:normal;font-size:19.70186615px;line-height:125%;font-family:sans-serif;letter-spacing:0px;word-spacing:0px;fill:#000000;fill-opacity:1;stroke:none;stroke-width:1px;stroke-linecap:butt;stroke-linejoin:miter;stroke-opacity:1"
             x="169.47456"
             y="558.42883"
             id="text4671"
             sodipodi:linespacing="125%"><tspan
               sodipodi:role="line"
               id="tspan4673"
               x="169.47456"
               y="558.42883"
               style="font-style:normal;font-variant:normal;font-weight:300;font-stretch:normal;font-size:19.70186615px;line-height:125%;font-family:Ubuntu;-inkscape-font-specification:'Ubuntu, Light';text-align:start;writing-mode:lr-tb;text-anchor:start">CSA</tspan></text>
        </g>
        <g
           id="g6534"
           onclick="window.parent.location='intern.html'"
           onmouseover="this.style.cursor='pointer'">
          <rect
             y="585.68933"
             x="119.18632"
             height="42.857178"
             width="142.85715"
             id="rect6518"
             style="opacity:1;fill:#f2f2f2;fill-opacity:1;fill-rule:evenodd;stroke:none;stroke-width:0.1;stroke-linecap:round;stroke-miterlimit:4;stroke-dasharray:none;stroke-opacity:1" />
          <text
             xml:space="preserve"
             style="font-style:normal;font-weight:normal;font-size:19.70186615px;line-height:125%;font-family:sans-serif;letter-spacing:0px;word-spacing:0px;fill:#000000;fill-opacity:1;stroke:none;stroke-width:1px;stroke-linecap:butt;stroke-linejoin:miter;stroke-opacity:1"
             x="187.00383"
             y="615.1214"
             id="text4675"
             sodipodi:linespacing="125%"><tspan
               sodipodi:role="line"
               id="tspan4677"
               x="187.00383"
               y="615.1214"
               style="font-style:normal;font-variant:normal;font-weight:300;font-stretch:normal;font-size:19.70186615px;line-height:125%;font-family:Ubuntu;-inkscape-font-specification:'Ubuntu, Light';text-align:center;writing-mode:lr-tb;text-anchor:middle">Internships</tspan></text>
        </g>
        <g
           id="g6539"
           onclick="window.parent.location='floral.html'"
           onmouseover="this.style.cursor='pointer'">
          <rect
             style="opacity:1;fill:#f2f2f2;fill-opacity:1;fill-rule:evenodd;stroke:none;stroke-width:0.1;stroke-linecap:round;stroke-miterlimit:4;stroke-dasharray:none;stroke-opacity:1"
             id="rect6520"
             width="142.85715"
             height="42.857178"
             x="115.18632"
             y="644.40363" />
          <text
             xml:space="preserve"
             style="font-style:normal;font-weight:normal;font-size:19.70186615px;line-height:125%;font-family:sans-serif;letter-spacing:0px;word-spacing:0px;fill:#000000;fill-opacity:1;stroke:none;stroke-width:1px;stroke-linecap:butt;stroke-linejoin:miter;stroke-opacity:1"
             x="130.46271"
             y="672.77936"
             id="text4679"
             sodipodi:linespacing="125%"><tspan
               sodipodi:role="line"
               id="tspan4681"
               x="130.46271"
               y="672.77936"
               style="font-style:normal;font-variant:normal;font-weight:300;font-stretch:normal;font-size:19.70186615px;line-height:125%;font-family:Ubuntu;-inkscape-font-specification:'Ubuntu, Light';text-align:start;writing-mode:lr-tb;text-anchor:start">Floral Design</tspan></text>
        </g>
        <g
           id="g6544"
           onclick="window.parent.location='markets.html'"
           onmouseover="this.style.cursor='pointer'">
          <rect
             y="701.54651"
             x="119.18632"
             height="42.857178"
             width="142.85715"
             id="rect6522"
             style="opacity:1;fill:#f2f2f2;fill-opacity:1;fill-rule:evenodd;stroke:none;stroke-width:0.1;stroke-linecap:round;stroke-miterlimit:4;stroke-dasharray:none;stroke-opacity:1" />
          <text
             xml:space="preserve"
             style="font-style:normal;font-weight:normal;font-size:19.70186615px;line-height:125%;font-family:sans-serif;letter-spacing:0px;word-spacing:0px;fill:#000000;fill-opacity:1;stroke:none;stroke-width:1px;stroke-linecap:butt;stroke-linejoin:miter;stroke-opacity:1"
             x="151.808"
             y="732.22028"
             id="text4683"
             sodipodi:linespacing="125%"><tspan
               sodipodi:role="line"
               id="tspan4685"
               x="151.808"
               y="732.22028"
               style="font-style:normal;font-variant:normal;font-weight:300;font-stretch:normal;font-size:19.70186615px;line-height:125%;font-family:Ubuntu;-inkscape-font-specification:'Ubuntu, Light';text-align:start;writing-mode:lr-tb;text-anchor:start">Markets</tspan></text>
        </g>
        <g
           id="g6524"
           onmouseover="this.style.cursor='pointer'"
           onclick="window.parent.location='about.html'">
          <rect
             y="473.83215"
             x="119.18632"
             height="42.857178"
             width="142.85715"
             id="rect6509"
             style="opacity:1;fill:#f2f2f2;fill-opacity:1;fill-rule:evenodd;stroke:none;stroke-width:0.1;stroke-linecap:round;stroke-miterlimit:4;stroke-dasharray:none;stroke-opacity:1" />
          <text
             xml:space="preserve"
             style="font-style:normal;font-weight:normal;font-size:19.70186615px;line-height:125%;font-family:sans-serif;text-align:center;letter-spacing:0px;word-spacing:0px;text-anchor:middle;fill:#000000;fill-opacity:1;stroke:none;stroke-width:1px;stroke-linecap:butt;stroke-linejoin:miter;stroke-opacity:1"
             x="187.73373"
             y="501.41119"
             id="text4687"
             sodipodi:linespacing="125%"><tspan
               sodipodi:role="line"
               id="tspan4689"
               x="187.73373"
               y="501.41119"
               style="font-style:normal;font-variant:normal;font-weight:300;font-stretch:normal;font-size:19.70186615px;line-height:125%;font-family:Ubuntu;-inkscape-font-specification:'Ubuntu, Light';text-align:center;writing-mode:lr-tb;text-anchor:middle">Who We Are</tspan></text>
        </g>
        <g
           id="close-menu"
           transform="matrix(0.10417135,0,0,0.10417135,19.158242,398.74483)">
          <rect
             y="5.5855589"
             x="-60.730743"
             height="475.15723"
             width="625.487"
             id="rect6320"
             style="opacity:1;fill:#f2f2f2;fill-opacity:1;fill-rule:evenodd;stroke:none;stroke-width:0;stroke-linecap:round;stroke-miterlimit:4;stroke-dasharray:none;stroke-opacity:1" />
          <g
             id="g4718">
            <polygon
               id="polygon4720"
               points="226.202,256 107,375.202 136.798,405 256,285.798 375.202,405 405,375.202 285.798,256 405,136.798 375.202,107 256,226.202 136.798,107 107,136.798 " />
          </g>
        </g>
      </g>
      <path
         inkscape:connector-curvature="0"
         id="path4732"
         d="m 0,763.33211 375.52421,-0.12627"
         style="fill:none;fill-rule:evenodd;stroke:#000000;stroke-width:1px;stroke-linecap:butt;stroke-linejoin:miter;stroke-opacity:1" />
      <g
         id="csa-apply"
         transform="matrix(0.59341344,0,0,0.59341344,-124.55684,330.42303)"
         onmouseover="this.style.cursor='pointer'">
        <rect
           ry="13.131983"
           y="355.1777"
           x="598.82324"
           height="33.335041"
           width="80.812172"
           id="rect6982"
           style="opacity:1;fill:#888888;fill-opacity:1;fill-rule:evenodd;stroke:none;stroke-width:0.1;stroke-linecap:round;stroke-miterlimit:4;stroke-dasharray:none;stroke-opacity:1" />
        <text
           sodipodi:linespacing="125%"
           id="text6978"
           y="377.36279"
           x="611.22638"
           style="font-style:normal;font-weight:normal;font-size:20px;line-height:125%;font-family:sans-serif;letter-spacing:0px;word-spacing:0px;fill:#eeeeee;fill-opacity:1;stroke:none;stroke-width:1px;stroke-linecap:butt;stroke-linejoin:miter;stroke-opacity:1"
           xml:space="preserve"><tspan
             y="377.36279"
             x="611.22638"
             id="tspan6980"
             sodipodi:role="line">Apply</tspan></text>
      </g>
      <g
         onmouseover="this.style.cursor='pointer'"
         transform="matrix(0.59341344,0,0,0.59341344,-100.27113,388.99446)"
         id="intern-apply"
         inkscape:label="">
        <rect
           style="opacity:1;fill:#888888;fill-opacity:1;fill-rule:evenodd;stroke:none;stroke-width:0.1;stroke-linecap:round;stroke-miterlimit:4;stroke-dasharray:none;stroke-opacity:1"
           id="rect4200"
           width="80.812172"
           height="33.335041"
           x="598.82324"
           y="355.1777"
           ry="13.131983" />
        <text
           xml:space="preserve"
           style="font-style:normal;font-weight:normal;font-size:20px;line-height:125%;font-family:sans-serif;letter-spacing:0px;word-spacing:0px;fill:#eeeeee;fill-opacity:1;stroke:none;stroke-width:1px;stroke-linecap:butt;stroke-linejoin:miter;stroke-opacity:1"
           x="611.22638"
           y="377.36279"
           id="text4202"
           sodipodi:linespacing="125%"><tspan
             sodipodi:role="line"
             id="tspan4204"
             x="611.22638"
             y="377.36279">Apply</tspan></text>
      </g>
    </g>
  </g>
</svg>
