<?xml version="1.0" encoding="UTF-8" standalone="no"?>
<!-- Created with Inkscape (http://www.inkscape.org/) -->

<svg
   xmlns:dc="http://purl.org/dc/elements/1.1/"
   xmlns:cc="http://creativecommons.org/ns#"
   xmlns:rdf="http://www.w3.org/1999/02/22-rdf-syntax-ns#"
   xmlns:svg="http://www.w3.org/2000/svg"
   xmlns="http://www.w3.org/2000/svg"
   xmlns:sodipodi="http://sodipodi.sourceforge.net/DTD/sodipodi-0.dtd"
   xmlns:inkscape="http://www.inkscape.org/namespaces/inkscape"
   width="560"
   height="560"
   id="svg5369"
   version="1.1"
   inkscape:version="0.91 r13725"
   sodipodi:docname="favicon.svg"
   inkscape:export-filename="/home/jamie/Code/jgaehring/assets/img/favicon.png"
   inkscape:export-xdpi="90"
   inkscape:export-ydpi="90">
  <defs
     id="defs5371" />
  <sodipodi:namedview
     id="base"
     pagecolor="#ffffff"
     bordercolor="#666666"
     borderopacity="1.0"
     inkscape:pageopacity="0.0"
     inkscape:pageshadow="2"
     inkscape:zoom="1.5570193"
     inkscape:cx="137.51366"
     inkscape:cy="280.79805"
     inkscape:document-units="px"
     inkscape:current-layer="g3038"
     showgrid="false"
     inkscape:window-width="1920"
     inkscape:window-height="1056"
     inkscape:window-x="0"
     inkscape:window-y="24"
     inkscape:window-maximized="1"
     fit-margin-top="0"
     fit-margin-left="0"
     fit-margin-right="0"
     fit-margin-bottom="0" />
  <metadata
     id="metadata5374">
    <rdf:RDF>
      <cc:Work
         rdf:about="">
        <dc:format>image/svg+xml</dc:format>
        <dc:type
           rdf:resource="http://purl.org/dc/dcmitype/StillImage" />
        <dc:title></dc:title>
      </cc:Work>
    </rdf:RDF>
  </metadata>
  <g
     inkscape:groupmode="layer"
     id="layer8"
     inkscape:label="c-apple"
     style="display:inline"
     transform="translate(-531.90112,-496.76891)">
    <g
       id="g3038"
       transform="translate(0.57792491,-5.611336)">
      <path
         sodipodi:nodetypes="cccccccccccccccc"
         inkscape:connector-curvature="0"
         id="outline"
         d="m 670.39932,517.62982 c 36.34565,-10.06322 136.92451,-4.30028 200.38681,-0.76372 22.3815,1.1611 39.5609,-0.33656 97.43817,19.60823 47.5174,21.85539 74.2878,65.54336 94.3925,110.28038 32.3683,70.30534 26.8868,130.36754 14.0187,206.54205 -19.2677,85.71076 -104.73734,184.74954 -140.48143,191.30554 -8.32368,5.0419 -57.37331,1.0346 -82.46571,-1.2414 -32.67776,-1.3267 -47.036,-2.9293 -85.66564,3.1595 l -33.24003,2.6933 c -64.61405,11.3633 -83.61327,-7.638 -92.67679,-13.0841 -6.33848,-7.2597 -10.18129,-10.104 -23.41431,-29.5618 -10.94242,-9.16016 -30.04303,-38.72878 -41.1215,-58.87851 -10.61686,-22.11838 -19.77417,-48.50115 -24.00414,-70.61953 -8.51239,-26.43245 -13.38657,-48.52202 -16.82243,-85.45524 -4.70484,-67.46383 10.8562,-123.83419 33.34994,-181.30841 24.46549,-47.67842 58.55353,-75.50915 100.30586,-92.67629 z"
         style="fill:none;stroke:#000000;stroke-width:8;stroke-linecap:butt;stroke-linejoin:miter;stroke-miterlimit:4;stroke-opacity:1;stroke-dasharray:none" />
      <g
         style="stroke:#fdde00;stroke-width:8;stroke-miterlimit:4;stroke-opacity:1;stroke-dasharray:none"
         id="slice">
        <path
           sodipodi:nodetypes="ccc"
           style="fill:none;stroke:#000000;stroke-width:8;stroke-linecap:butt;stroke-linejoin:miter;stroke-miterlimit:4;stroke-opacity:1;stroke-dasharray:none"
           d="m 838.47651,1001.0049 c 11.37156,12.4405 21.36842,25.0844 38.71066,36.225 2.18353,2.8411 37.4146,11.6551 57.17999,7.9739"
           id="path5467"
           inkscape:connector-curvature="0" />
        <path
           sodipodi:nodetypes="ccc"
           style="fill:none;stroke:#000000;stroke-width:8;stroke-linecap:butt;stroke-linejoin:miter;stroke-miterlimit:4;stroke-opacity:1;stroke-dasharray:none"
           d="m 776.69999,1004.9195 c -8.3123,10.0215 -20.36587,17.1369 -34.69513,29.2795 -24.46053,18.6939 -30.70666,17.173 -48.03373,18.1632"
           id="path5480"
           inkscape:connector-curvature="0" />
        <path
           sodipodi:nodetypes="ccccscccc"
           style="fill:none;stroke:#000000;stroke-width:8;stroke-linecap:butt;stroke-linejoin:miter;stroke-miterlimit:4;stroke-opacity:1;stroke-dasharray:none"
           d="m 671.61017,517.19269 c 26.48253,-5.49103 34.08482,-4.31693 53.81356,2.54237 17.41622,6.89685 35.59861,22.77566 50.6261,44.05967 19.27927,33.37304 22.64706,47.98229 23.52644,83.48271 1.56565,0.53398 5.14221,1.8822 7.94086,2.06685 2.60949,0.17217 5.48433,-1.13972 8.58456,-1.64312 8.38505,-30.89636 18.68351,-43.97891 41.53085,-68.63323 18.11469,-18.79351 41.04216,-38.06892 58.51524,-42.18677 19.65543,-6.74891 40.78734,-2.54472 67.3268,7.85389"
           id="path5482"
           inkscape:connector-curvature="0" />
      </g>
      <path
         sodipodi:nodetypes="ccccccc"
         inkscape:connector-curvature="0"
         id="stem"
         d="m 799.15254,646.42998 c 4.35385,-22.0339 10.87067,-44.0678 20.33899,-66.1017 8.09079,-14.20322 13.95728,-18.76784 18.64406,-18.22033 4.83802,1.23543 7.46468,4.68221 8.89831,9.32203 -3.54019,4.4115 -8.86206,6.99435 -13.34881,14.39865 -12.0865,19.63277 -11.42667,40.54485 -17.15967,60.17762 -0.96442,-13.13174 -2.99371,-23.3351 -17.37288,0.42373 z"
         style="fill:#000000;fill-opacity:1;stroke:#000000;stroke-width:8;stroke-linecap:butt;stroke-linejoin:miter;stroke-miterlimit:4;stroke-opacity:1;stroke-dasharray:none" />
      <path
         sodipodi:nodetypes="ccccccccccccccccc"
         inkscape:connector-curvature="0"
         id="calyx"
         d="m 804.23729,962.53167 -9.32204,17.37289 c -12.05606,12.36128 -17.2492,9.43779 -18.64406,20.76274 l -3.04394,3.3922 c 3.32887,0.8191 6.63579,0.7324 8.97614,2.54 l 3.38983,6.7796 5.9322,-8.8983 2.96611,5.0848 2.9661,-4.2373 5.9322,4.661 8.05085,-2.1186 c 5.44597,1.2712 6.91608,2.5423 10.16949,3.8135 1.80891,-1.8634 3.63846,-3.7061 5.9322,-5.0847 l 4.66102,2.1186 c -0.9496,-3.7935 2.82757,-5.9581 6.17276,-7.7851 -5.19209,-8.06566 -11.5297,-12.31291 -18.19518,-15.4673 -3.11199,-11.02439 -8.40712,-19.77554 -15.94368,-22.93403 z"
         style="fill:#000000;fill-opacity:1;stroke:#000000;stroke-width:8;stroke-linecap:butt;stroke-linejoin:miter;stroke-miterlimit:4;stroke-opacity:1;stroke-dasharray:none" />
      <g
         style="stroke:#fdde00;stroke-width:8;stroke-miterlimit:4;stroke-opacity:1;stroke-dasharray:none"
         id="mesocarp">
        <g
           style="stroke:#fdde00;stroke-width:8;stroke-miterlimit:4;stroke-opacity:1;stroke-dasharray:none"
           id="g5443">
          <g
             style="stroke:#fdde00;stroke-width:8;stroke-miterlimit:4;stroke-opacity:1;stroke-dasharray:none"
             id="g5451">
            <path
               style="fill:none;stroke:#000000;stroke-width:8;stroke-linecap:butt;stroke-linejoin:miter;stroke-miterlimit:4;stroke-opacity:1;stroke-dasharray:none"
               d="m 862.96296,738.93626 c -7.95728,-8.55542 -21.44967,-16.70817 -26.85185,-16.20371 4.08399,7.37277 5.22098,2.09649 15.17634,32.9629 12.16509,1.16486 21.1407,5.17648 32.16358,9.36291"
               id="path5425"
               inkscape:connector-curvature="0"
               sodipodi:nodetypes="cccc" />
            <path
               style="fill:none;stroke:#000000;stroke-width:8;stroke-linecap:butt;stroke-linejoin:miter;stroke-miterlimit:4;stroke-opacity:1;stroke-dasharray:none"
               d="m 883.33333,799.12144 c -9.46074,-4.26247 -20.8643,-13.76683 -31.01852,-16.09413 0.41963,-3.48617 1.80142,-7.528 0.56666,-16.04057 23.59433,5.42466 28.87928,10.51568 33.69264,12.03112"
               id="path5427"
               inkscape:connector-curvature="0"
               sodipodi:nodetypes="cccc" />
            <path
               style="fill:none;stroke:#000000;stroke-width:8;stroke-linecap:butt;stroke-linejoin:miter;stroke-miterlimit:4;stroke-opacity:1;stroke-dasharray:none"
               d="m 879.03059,808.51142 c -12.60661,-8.47444 -18.35185,-14.05692 -28.31834,-15.45823 -0.94004,12.91264 -5.67072,16.64789 -10.5301,24.94748 17.53291,17.24548 20.59021,18.03499 27.1959,21.86151"
               id="path5433"
               inkscape:connector-curvature="0"
               sodipodi:nodetypes="cccc" />
            <path
               style="fill:none;stroke:#000000;stroke-width:8;stroke-linecap:butt;stroke-linejoin:miter;stroke-miterlimit:4;stroke-opacity:1;stroke-dasharray:none"
               d="m 894.90741,816.25107 c -2.72317,17.79047 -4.50035,29.39981 -15.27778,32.87037"
               id="path5435"
               inkscape:connector-curvature="0"
               sodipodi:nodetypes="cc" />
            <path
               style="fill:none;stroke:#000000;stroke-width:8;stroke-linecap:butt;stroke-linejoin:miter;stroke-miterlimit:4;stroke-opacity:1;stroke-dasharray:none"
               d="M 845.37037,885.69552 C 835.18,878.14362 831.78673,874.55671 828.24074,870.8807 828.70598,879.2154 827.37296,886.47114 825,893.10292"
               id="path5439"
               inkscape:connector-curvature="0"
               sodipodi:nodetypes="ccc" />
            <path
               style="fill:none;stroke:#000000;stroke-width:8;stroke-linecap:butt;stroke-linejoin:miter;stroke-miterlimit:4;stroke-opacity:1;stroke-dasharray:none"
               d="m 834.29578,823.62787 c 0,0 -9.29578,7.43802 -11.14763,7.43802 -9.13665,2.57944 -9.64443,5.06522 -5.16564,12.93235 15.44416,11.11065 20.56018,14.82508 46.36934,13.9195"
               id="path5441"
               inkscape:connector-curvature="0"
               sodipodi:nodetypes="cccc" />
          </g>
        </g>
        <g
           style="stroke:#fdde00;stroke-width:8;stroke-miterlimit:4;stroke-opacity:1;stroke-dasharray:none"
           id="g6297">
          <path
             inkscape:connector-curvature="0"
             id="path5492"
             d="m 804.66102,962.53167 0.84745,-126.27118 c -2.41777,-2.66698 -0.79935,-9.37014 -8.47457,-6.77966 0.48141,-12.6967 -3.40677,-16.34697 -9.3619,-22.6157 -6.94872,-5.83676 -12.1693,-7.18283 -9.7059,-18.90973 -5.49414,-8.49094 -6.29411,-9.90385 5.08475,-13.98305 l -1.27119,-4.23729 c -22.26633,-28.41568 -29.33721,-30.35582 10.84788,-57.71344 6.82754,-4.64435 4.87716,-19.37807 8.35206,-23.98221 -2.66029,-17.35716 1.27294,-35.62422 7.51434,-38.05886 2.03063,0.29586 17.29604,24.90353 -0.44309,47.29689 l 5.50847,43.64406 11.86441,35.1695 c 7.27168,19.38416 3.7064,32.14575 -6.77966,40.67796 l -9.32204,13.1356 -4.23728,6.35593"
             style="fill:none;stroke:#000000;stroke-width:8;stroke-linecap:butt;stroke-linejoin:miter;stroke-miterlimit:4;stroke-opacity:1;stroke-dasharray:none"
             sodipodi:nodetypes="cccccccccccccccc" />
        </g>
        <path
           sodipodi:nodetypes="ccc"
           style="fill:none;stroke:#000000;stroke-width:8;stroke-linecap:butt;stroke-linejoin:miter;stroke-miterlimit:4;stroke-opacity:1;stroke-dasharray:none"
           d="m 766.32907,781.8008 c 0,0 -26.40843,20.48091 20.43204,67.32138 0,0 -7.14515,11.11469 10.32078,43.66484"
           id="path5496"
           inkscape:connector-curvature="0" />
      </g>
      <g
         style="fill:#fdde00;fill-opacity:1;stroke:#fdde00;stroke-width:8;stroke-miterlimit:4;stroke-opacity:1;stroke-dasharray:none"
         id="seeds">
        <path
           style="fill:#000000;fill-opacity:1;stroke:#000000;stroke-width:8;stroke-linecap:butt;stroke-linejoin:miter;stroke-miterlimit:4;stroke-opacity:1;stroke-dasharray:none"
           d="m 816.94316,739.67547 c 0,0 -33.4019,28.34951 -11.78891,49.12044 35.78775,-4.7717 11.78891,-49.12044 11.78891,-49.12044 z"
           id="path5521"
           inkscape:connector-curvature="0" />
        <path
           style="fill:#000000;fill-opacity:1;stroke:#000000;stroke-width:8;stroke-linecap:butt;stroke-linejoin:miter;stroke-miterlimit:4;stroke-opacity:1;stroke-dasharray:none"
           d="m 775.24932,777.89591 c 0,0 22.04566,7.25106 12.64261,28.86405 -3.96751,-5.01518 -10.96024,-4.25494 -9.65092,-19.34408 -1.23845,-3.17332 -4.57909,-6.34665 -2.99169,-9.51997 z"
           id="path5523"
           inkscape:connector-curvature="0"
           sodipodi:nodetypes="cccc" />
      </g>
      <path
         sodipodi:nodetypes="cc"
         transform="translate(-8.7857141,286.29074)"
         inkscape:connector-curvature="0"
         id="path6341"
         d="m 718.34274,472.83335 c 8.39335,-47.22204 38.71764,-56.92773 52.75575,-69.77365"
         style="fill:none;stroke:#000000;stroke-width:8;stroke-linecap:butt;stroke-linejoin:miter;stroke-miterlimit:4;stroke-opacity:1;stroke-dasharray:none" />
    </g>
  </g>
</svg>
