<?xml version="1.0" encoding="UTF-8" standalone="no"?>
<!-- Created with Inkscape (http://www.inkscape.org/) -->

<svg
   xmlns:dc="http://purl.org/dc/elements/1.1/"
   xmlns:cc="http://creativecommons.org/ns#"
   xmlns:rdf="http://www.w3.org/1999/02/22-rdf-syntax-ns#"
   xmlns:svg="http://www.w3.org/2000/svg"
   xmlns="http://www.w3.org/2000/svg"
   xmlns:sodipodi="http://sodipodi.sourceforge.net/DTD/sodipodi-0.dtd"
   xmlns:inkscape="http://www.inkscape.org/namespaces/inkscape"
   id="svg5369"
   height="1035"
   width="1709"
   version="1.1"
   inkscape:version="0.91 r13725"
   sodipodi:docname="golden-russet-black.svg">
  <defs
     id="defs44" />
  <sodipodi:namedview
     pagecolor="#ffffff"
     bordercolor="#666666"
     borderopacity="1"
     objecttolerance="10"
     gridtolerance="10"
     guidetolerance="10"
     inkscape:pageopacity="0"
     inkscape:pageshadow="2"
     inkscape:window-width="1920"
     inkscape:window-height="1056"
     id="namedview42"
     showgrid="false"
     inkscape:zoom="3.9455648"
     inkscape:cx="987.02347"
     inkscape:cy="53.826146"
     inkscape:window-x="0"
     inkscape:window-y="24"
     inkscape:window-maximized="1"
     inkscape:current-layer="svg5369" />
  <metadata
     id="metadata5374">
    <rdf:RDF>
      <cc:Work
         rdf:about="">
        <dc:format>image/svg+xml</dc:format>
        <dc:type
           rdf:resource="http://purl.org/dc/dcmitype/StillImage" />
        <dc:title />
      </cc:Work>
    </rdf:RDF>
  </metadata>
  <g
     id="layer7"
     transform="translate(8.7857 -286.29)">
    <path
       id="path5418"
       style="stroke:#000;stroke-width:8;fill:none"
       d="m577.71 947.07c-1.095 14.86-2.7165 27.655-4.3884 35.359-10.376 39.647-9.8719 32.679-24.03 67.825-24.801 46.128-53.492 80.506-100 107.54-26.84 11.423-55.321 22.594-85.915 30.262-18.525 4.7387-40.715 1.7294-55.826 1.4426-21.547-0.409-39.842-0.2007-57.554-6.1506-46.346-10.346-87.881-31.019-121.13-56.338-45.928-38.935-71.73-86.496-91.549-136.62-8.8234-34.657-12.247-72.474-6.9098-115.91 7.1184-39.509 26.697-82.787 65.36-120.71 15.023-14.015 37.702-29.27 57.635-38.243 20.001-9.0038 33.041-16.348 57.799-23.227v0.0001c24.758-6.8784 109.84-12.317 169.78-0.50209 18.285 5.1215 44.223 8.1025 93.662 40.141 29.833 20.188 46.847 40.376 63.38 60.563" />
    <path
       id="path6322"
       style="stroke:#000;stroke-width:8;fill:none"
       d="m220.55 487.17c15.348-0.28647 29.958 3.0812 43.478 13.043 21.617 8.4847 42.957 13.977 65.217-0.79051 12.505-9.4175 18.29-11.798 35.968-15.415"
       transform="translate(-8.7857 286.29)" />
    <path
       id="path6324"
       style="stroke:#000;stroke-width:8;fill:none"
       d="m220.55 431.05c38.61 15.792 45.136 41.106 58.769 65.89"
       transform="translate(-8.7857 286.29)" />
    <path
       id="path6326"
       style="stroke:#000;stroke-width:8"
       d="m278.07 504.45c1.2163-2.7377 1.233-8.031 1.9642-9.809 0.81653-1.2699 3.9382-3.8526 7.9575-4.2902 5.0804-0.79458 8.2796-1.5616 13.643-0.44519 3.9314 0.86463 6.7165 3.0574 6.8472 7.3728-0.13212 3.9678 0.0123 7.106 0.13651 10.305"
       transform="translate(-8.7857 286.29)" />
  </g>
  <g
     id="layer8"
     transform="translate(8.7857 -286.29)">
    <path
       id="outline"
       style="stroke:#000;stroke-width:8;fill:none"
       d="m670.4 517.63c36.346-10.063 136.92-4.3003 200.39-0.76372 22.382 1.1611 39.561-0.33656 97.438 19.608 47.517 21.855 74.288 65.543 94.392 110.28 32.368 70.305 26.887 130.37 14.019 206.54-19.268 85.711-104.74 184.75-140.48 191.31-8.3237 5.0419-57.373 1.0346-82.466-1.2414-32.678-1.3267-47.036-2.9293-85.666 3.1595l-33.24 2.6933c-64.614 11.363-83.613-7.638-92.677-13.084-6.3385-7.2597-10.181-10.104-23.414-29.562-10.942-9.1602-30.043-38.729-41.122-58.879-10.617-22.118-19.774-48.501-24.004-70.62-8.5124-26.432-13.387-48.522-16.822-85.455-4.7048-67.464 10.856-123.83 33.35-181.31 24.465-47.678 58.554-75.509 100.31-92.676z" />
    <g
       id="slice"
       style="stroke:#000;stroke-width:8;fill:none">
      <path
         id="path5467"
         d="m838.48 1001c11.372 12.44 21.368 25.084 38.711 36.225 2.1835 2.8411 37.415 11.655 57.18 7.9739"
         style="stroke:#000;stroke-width:8;fill:none" />
      <path
         id="path5480"
         d="m776.7 1004.9c-8.3123 10.022-20.366 17.137-34.695 29.28-24.461 18.694-30.707 17.173-48.034 18.163"
         style="stroke:#000;stroke-width:8;fill:none" />
      <path
         id="path5482"
         d="m671.61 517.19c26.483-5.491 34.085-4.3169 53.814 2.5424 17.416 6.8968 35.599 22.776 50.626 44.06 19.279 33.373 22.647 47.982 23.526 83.483 1.5656 0.53398 5.1422 1.8822 7.9409 2.0668 2.6095 0.17217 5.4843-1.1397 8.5846-1.6431 8.385-30.896 18.684-43.979 41.531-68.633 18.115-18.794 41.042-38.069 58.515-42.187 19.655-6.7489 40.787-2.5447 67.327 7.8539"
         style="stroke:#000;stroke-width:8;fill:none" />
    </g>
    <path
       id="stem"
       style="stroke:#000;stroke-width:8"
       d="m799.15 646.43c4.3538-22.034 10.871-44.068 20.339-66.102 8.0908-14.203 13.957-18.768 18.644-18.22 4.838 1.2354 7.4647 4.6822 8.8983 9.322-3.5402 4.4115-8.8621 6.9944-13.349 14.399-12.086 19.633-11.427 40.545-17.16 60.178-0.96442-13.132-2.9937-23.335-17.373 0.42373z" />
    <path
       id="calyx"
       style="stroke:#000;stroke-width:8"
       d="m804.24 962.53-9.322 17.373c-12.056 12.361-17.249 9.4378-18.644 20.763l-3.0439 3.3922c3.3289 0.8191 6.6358 0.7324 8.9761 2.54l3.3898 6.7796 5.9322-8.8983 2.9661 5.0848 2.9661-4.2373 5.9322 4.661 8.0508-2.1186c5.446 1.2712 6.9161 2.5423 10.169 3.8135 1.8089-1.8634 3.6385-3.7061 5.9322-5.0847l4.661 2.1186c-0.9496-3.7935 2.8276-5.9581 6.1728-7.7851-5.1921-8.0657-11.53-12.313-18.195-15.467-3.112-11.024-8.4071-19.776-15.944-22.934z" />
    <g
       id="mesocarp"
       style="stroke:#000;stroke-width:8;fill:none">
      <g
         id="g5443"
         style="stroke:#000;stroke-width:8;fill:none">
        <g
           id="g5451"
           style="stroke:#000;stroke-width:8;fill:none">
          <path
             id="path5425"
             d="m862.96 738.94c-7.9573-8.5554-21.45-16.708-26.852-16.204 4.084 7.3728 5.221 2.0965 15.176 32.963 12.165 1.1649 21.141 5.1765 32.164 9.3629"
             style="stroke:#000;stroke-width:8;fill:none" />
          <path
             id="path5427"
             d="m883.33 799.12c-9.4607-4.2625-20.864-13.767-31.019-16.094 0.41963-3.4862 1.8014-7.528 0.56666-16.041 23.594 5.4247 28.879 10.516 33.693 12.031"
             style="stroke:#000;stroke-width:8;fill:none" />
          <path
             id="path5433"
             d="m879.03 808.51c-12.607-8.4744-18.352-14.057-28.318-15.458-0.94004 12.913-5.6707 16.648-10.53 24.947 17.533 17.245 20.59 18.035 27.196 21.862"
             style="stroke:#000;stroke-width:8;fill:none" />
          <path
             id="path5435"
             d="m894.91 816.25c-2.7232 17.79-4.5004 29.4-15.278 32.87"
             style="stroke:#000;stroke-width:8;fill:none" />
          <path
             id="path5439"
             d="m845.37 885.7c-10.19-7.56-13.58-11.14-17.13-14.82 0.47 8.34-0.87 15.59-3.24 22.22"
             style="stroke:#000;stroke-width:8;fill:none" />
          <path
             id="path5441"
             d="m834.3 823.63s-9.2958 7.438-11.148 7.438c-9.1366 2.5794-9.6444 5.0652-5.1656 12.932 15.444 11.111 20.56 14.825 46.369 13.92"
             style="stroke:#000;stroke-width:8;fill:none" />
        </g>
      </g>
      <g
         id="g6297"
         style="stroke:#000;stroke-width:8;fill:none">
        <path
           id="path5492"
           style="stroke:#000;stroke-width:8;fill:none"
           d="m804.66 962.53 0.84745-126.27c-2.4178-2.667-0.79935-9.3701-8.4746-6.7797 0.48141-12.697-3.4068-16.347-9.3619-22.616-6.9487-5.8368-12.169-7.1828-9.7059-18.91-5.4941-8.4909-6.2941-9.9038 5.0848-13.983l-1.2712-4.2373c-22.266-28.416-29.337-30.356 10.848-57.713 6.8275-4.6444 4.8772-19.378 8.3521-23.982-2.6603-17.357 1.2729-35.624 7.5143-38.059 2.0306 0.29586 17.296 24.904-0.44309 47.297l5.5085 43.644 11.864 35.17c7.2717 19.384 3.7064 32.146-6.7797 40.678l-9.322 13.136-4.2373 6.3559" />
      </g>
      <path
         id="path5496"
         d="m766.33 781.8s-26.408 20.481 20.432 67.321c0 0-7.1452 11.115 10.321 43.665"
         style="stroke:#000;stroke-width:8;fill:none" />
    </g>
    <g
       id="seeds"
       style="stroke:#000;stroke-width:8">
      <path
         id="path5521"
         d="m816.94 739.68s-33.402 28.35-11.789 49.12c35.788-4.7717 11.789-49.12 11.789-49.12z"
         style="stroke:#000;stroke-width:8" />
      <path
         id="path5523"
         d="m775.25 777.9s22.046 7.2511 12.643 28.864c-3.9675-5.0152-10.96-4.2549-9.6509-19.344-1.2384-3.1733-4.5791-6.3466-2.9917-9.52z"
         style="stroke:#000;stroke-width:8" />
    </g>
    <path
       id="path6341"
       style="stroke:#000;stroke-width:8;fill:none"
       d="m718.34 472.83c8.3934-47.222 38.718-56.928 52.756-69.774"
       transform="translate(-8.7857 286.29)" />
  </g>
  <g
     id="layer9">
    <path
       id="path6329"
       style="stroke:#000;stroke-width:8;fill:none"
       d="m1038.8 667.18c5.6451 91.296 39.042 134.74 72.318 176.12 23.386 26.087 57.489 42.694 100.35 51.557 73.897 15.906 154.24 18.581 256.4-23.529 42.474-24.112 80.972-55.539 104.86-113.84 23.462-61.082 17.231-105.45 12.09-150.52-7.1824-25.869-9.4218-38.316-21.964-72.762-8.3506-22.935-29.094-60.965-32.106-62.456-9.7521-15.876-44.445-45.402-53.839-46.194-11.741-12.785-43.354-35.431-82.13-41.557-30.056-10.449-50.059-7.1222-66.708-6.442-40.369-5.188-80.738-3.9128-121.11 6.5744-37.042 11.954-62.528 22.232-112.46 80.969" />
    <path
       id="path6331"
       style="stroke:#000;stroke-width:8;fill:none"
       d="m1455.6 425.12c6.0656-0.76963 15.675-2.7804 28.292 3.4598" />
    <path
       id="path6333"
       style="stroke:#000;stroke-width:8;fill:none"
       d="m1386.6 438.13c-28.08 1.6955-43.752 9.8924-58.824 13.122-8.9877 1.9261-35.19-1.2135-37.459-1.861-8.8589-1.5084-19.108-1.8053-42.016 2.7427" />
    <path
       id="path6335"
       style="stroke:#000;stroke-width:8;fill:none"
       d="m1307.6 442.3c-17.168-18.628-35.832-29.481-56.742-28.652" />
    <path
       id="path6337"
       style="stroke:#000;stroke-width:8;fill:none"
       d="m1322.8 433.31c-1.1867-9.2192 0.4413-32.234 16.292-48.596" />
    <path
       id="path6339"
       style="stroke:#000;stroke-width:8"
       d="m1364.3 441.06c-3.9904-3.5923-5.935-7.804-7.8425-12.091-1.6702 4.1043-1.639 9.3631-2.3693 13.781-8.0213-1.6839-10.462-4.3707-15.197-6.2439-1.8816-2.6205-0.6929-5.2409-0.2931-7.8614-2.6721-0.023-3.7699-3.1947-5.5085-5.0848-1.8811 0.12056-2.9227 4.7-4.2372 7.8298-2.5267 0.48313-6.7287-3.0468-6.5004-1.149 0.334 2.7775-5.0815 4.9471-13.415 3.065l0.058 4.2755 3.4718 2.7296c-0.2579 3.3699-3.8685 1.3755-5.8104 2.0511 0.9557 2.6415 5.9145 2.6819 3.1285 8.3167 6.6311 1.3053 15.727 1.4938 25.2-1.4693 14.665-4.9087 24.178-7.3591 29.315-8.1495z" />
  </g>
</svg>
